<?xml version="1.0" standalone="no"?>
<!DOCTYPE svg PUBLIC "-//W3C//DTD SVG 20010904//EN"
 "http://www.w3.org/TR/2001/REC-SVG-20010904/DTD/svg10.dtd">
<svg version="1.0" xmlns="http://www.w3.org/2000/svg"
 width="736.000000pt" height="1104.000000pt" viewBox="0 0 736.000000 1104.000000"
 preserveAspectRatio="xMidYMid meet">

<g transform="translate(0.000000,1104.000000) scale(0.100000,-0.100000)"
fill="#000000" stroke="none">
<path d="M3335 9749 c-4 -6 -19 -7 -36 -4 -33 8 -36 0 -12 -28 17 -18 17 -19
-2 -33 -23 -17 -280 -21 -270 -4 3 6 35 10 71 10 40 0 64 4 64 11 0 8 -30 9
-107 4 -124 -8 -201 -26 -258 -60 -75 -44 -207 -178 -311 -317 -57 -75 -113
-142 -125 -148 -36 -20 -49 -6 -49 54 0 76 -17 79 -27 4 -9 -70 -25 -83 -50
-39 -30 52 -47 40 -39 -28 7 -58 6 -59 -21 -70 -23 -9 -18 -10 33 -5 56 5 61
4 71 -18 10 -22 16 -18 140 107 72 72 138 141 147 155 12 18 23 24 47 22 17
-1 36 2 43 7 6 5 45 27 86 50 74 40 73 51 -3 30 -50 -14 -56 -6 -21 26 l29 25
-55 -20 c-30 -11 -57 -20 -59 -20 -3 0 11 16 30 36 42 44 77 63 137 74 26 5
79 20 117 34 48 17 91 26 136 26 36 0 81 5 99 11 24 9 62 9 154 -1 66 -7 129
-16 139 -22 37 -19 14 -28 -73 -28 -72 0 -99 4 -132 21 -29 15 -43 18 -51 10
-8 -8 -8 -14 1 -23 7 -7 12 -15 12 -19 0 -4 -44 -21 -97 -38 -101 -31 -256
-101 -267 -120 -10 -15 -10 -15 100 25 116 42 221 64 307 64 57 1 60 2 38 14
-23 13 -23 13 15 19 45 8 104 9 104 2 0 -2 -5 -16 -12 -29 -9 -21 -8 -29 5
-44 12 -13 14 -21 6 -29 -9 -9 0 -15 32 -23 71 -19 249 -92 249 -102 0 -5 -9
-21 -21 -37 -12 -16 -19 -39 -17 -55 3 -26 -2 -30 -67 -57 -136 -55 -270 -61
-397 -18 -55 18 -62 18 -105 4 -43 -15 -48 -14 -88 5 -53 26 -64 49 -35 72 27
22 44 23 75 2 24 -16 25 -15 25 5 0 16 8 23 30 28 35 6 35 6 14 38 -15 23 -15
24 21 31 35 6 110 1 183 -12 26 -5 32 -3 32 11 0 10 7 23 17 30 13 10 0 15
-83 31 -139 27 -280 25 -364 -4 -120 -41 -160 -70 -199 -142 -63 -116 -158
-188 -314 -240 -72 -25 -97 -20 -57 10 106 80 103 86 -14 24 -74 -39 -92 -45
-124 -39 -33 5 -42 2 -79 -30 -45 -38 -63 -73 -44 -85 30 -18 -155 -218 -203
-221 -21 -1 29 -18 56 -18 22 -1 35 10 67 57 47 69 103 123 193 186 67 46 141
80 152 69 3 -4 6 -15 6 -25 0 -18 2 -18 39 2 21 12 46 20 56 19 14 -3 -1 -22
-63 -78 l-82 -74 0 -51 c0 -62 -13 -83 -86 -137 -31 -22 -53 -43 -51 -46 3 -2
33 10 67 27 63 32 63 32 89 13 46 -34 49 -34 86 -2 34 31 36 31 55 14 29 -26
25 -39 -22 -76 -24 -18 -60 -48 -82 -67 -21 -19 -62 -44 -90 -57 -56 -25 -82
-48 -71 -65 11 -17 38 -11 85 20 91 60 93 31 4 -52 -60 -57 -94 -73 -94 -43 0
20 -6 19 -43 -9 -44 -32 -90 -46 -153 -46 -29 0 -56 -4 -59 -10 -9 -14 -48
-13 -63 2 -11 11 -18 68 -8 68 2 0 25 -9 51 -20 26 -11 59 -19 73 -19 23 1 21
3 -12 12 -53 15 -142 97 -133 122 6 14 15 16 45 12 200 -30 203 -30 227 -11
159 130 200 173 134 138 -25 -13 -37 -14 -56 -5 -31 14 -45 6 -37 -24 12 -50
-79 -74 -158 -41 -44 19 -58 20 -58 6 0 -6 14 -17 30 -24 34 -14 30 -26 -10
-26 -41 0 -78 34 -87 82 -11 55 -29 59 -37 8 -3 -22 -9 -40 -13 -40 -3 0 -30
14 -60 30 -54 31 -64 27 -40 -13 8 -12 22 -57 32 -99 15 -64 16 -82 6 -107
-17 -40 -35 -45 -70 -16 -16 14 -32 25 -35 25 -34 0 67 -96 123 -116 120 -44
131 -51 131 -84 l0 -31 93 7 c50 4 100 11 110 16 21 11 23 32 1 24 -9 -3 -41
-9 -71 -13 -84 -9 -65 15 40 53 93 33 135 57 144 80 6 15 29 19 37 6 9 -15
-31 -87 -69 -124 -20 -20 -66 -49 -102 -64 -61 -26 -64 -29 -59 -56 l6 -28
-58 1 c-81 0 -151 13 -168 31 -9 8 -19 41 -23 72 -4 31 -15 64 -24 73 -15 15
-17 14 -26 -10 -9 -23 -15 -26 -36 -21 -23 6 -25 4 -25 -27 1 -80 59 -152 158
-195 28 -13 52 -26 52 -28 0 -3 -22 -2 -50 1 -27 3 -50 3 -50 0 0 -17 36 -37
65 -37 19 0 37 -4 40 -10 11 -18 -76 -11 -136 11 -49 18 -62 19 -74 9 -10 -8
-41 -13 -83 -12 -61 2 -65 1 -48 -13 10 -8 49 -24 85 -36 69 -23 98 -39 67
-39 -29 0 -9 -17 29 -24 48 -9 34 -26 -21 -26 -47 0 -87 16 -142 57 -18 14
-35 23 -38 21 -2 -2 19 -30 46 -60 28 -31 50 -59 50 -62 0 -3 -27 -6 -60 -6
-33 0 -79 -5 -104 -12 -56 -15 -96 0 -138 54 -17 21 -38 38 -47 38 -8 0 -25
10 -38 21 -18 18 -23 19 -28 7 -3 -8 -1 -27 5 -42 15 -40 12 -74 -7 -85 -16
-8 -16 -12 2 -46 11 -21 48 -62 83 -93 34 -31 62 -59 62 -64 0 -4 -11 -8 -25
-8 -17 0 -43 16 -75 46 -55 51 -64 47 -24 -11 18 -26 24 -45 19 -62 -5 -21 -3
-24 13 -19 10 4 40 -1 68 -9 71 -21 100 -19 159 15 l52 30 82 -12 c47 -7 80
-16 78 -23 -6 -18 -109 -84 -164 -105 -29 -11 -72 -20 -93 -20 -22 0 -40 -4
-40 -10 0 -20 76 -9 178 26 92 32 106 35 114 21 5 -9 15 -14 23 -11 23 9 18
-4 -21 -52 -40 -48 -78 -64 -156 -64 -36 0 -48 4 -48 15 0 23 -45 28 -98 11
-37 -12 -56 -14 -76 -7 -41 16 -30 -5 17 -31 27 -15 42 -30 42 -43 0 -16 10
-22 51 -29 l52 -8 6 -49 c4 -32 2 -59 -8 -83 -8 -19 -22 -69 -31 -112 -27
-117 -11 -304 24 -304 14 0 21 28 26 104 8 104 44 171 150 276 78 77 85 82 85
58 0 -20 -11 -36 -40 -59 -37 -30 -40 -36 -40 -83 1 -91 38 -327 55 -344 12
-12 25 24 25 73 0 72 24 175 54 234 35 68 152 191 165 172 5 -8 16 -11 30 -6
31 9 27 -12 -14 -72 -39 -58 -42 -68 -20 -77 8 -3 15 -14 15 -24 0 -21 18 -42
38 -42 8 0 37 24 64 53 28 29 52 47 55 40 8 -23 -28 -73 -82 -113 -63 -46 -84
-77 -60 -86 8 -3 21 -4 29 -1 20 8 27 -3 15 -25 -10 -18 -8 -19 25 -17 37 4
67 -13 47 -25 -19 -12 -12 -23 29 -41 58 -26 51 -50 -15 -50 -43 0 -50 -3 -53
-21 -2 -15 4 -23 18 -27 12 -3 24 -15 27 -26 3 -12 17 -24 32 -27 40 -10 44
-15 24 -29 -17 -13 -15 -15 19 -29 51 -22 69 -20 114 10 69 47 160 76 102 33
-38 -28 -35 -39 11 -39 48 0 53 -6 36 -47 -19 -45 -47 -57 -118 -49 -59 6 -60
6 -43 -13 14 -16 15 -23 5 -39 -10 -16 -9 -24 10 -51 19 -26 29 -31 62 -31 26
0 42 -5 45 -15 4 -8 12 -15 20 -15 27 0 13 -27 -26 -49 -22 -12 -42 -27 -46
-32 -10 -17 34 -55 98 -84 38 -17 62 -35 66 -47 4 -16 10 -19 38 -13 43 8 44
-8 7 -73 -55 -97 -65 -103 -259 -166 -139 -44 -206 -61 -362 -91 -186 -36
-297 -90 -627 -309 -355 -235 -542 -337 -790 -431 -100 -38 -147 -65 -113 -65
21 0 378 148 505 210 56 28 185 106 285 174 189 127 365 233 548 328 79 42
124 58 180 68 89 14 281 59 403 95 104 30 117 31 117 7 0 -27 -26 -47 -113
-86 -91 -42 -143 -57 -298 -90 -82 -17 -141 -37 -199 -66 -112 -57 -131 -63
-123 -44 3 8 14 19 24 25 21 11 25 29 7 29 -20 0 -139 -75 -213 -135 -155
-124 -358 -344 -430 -467 -45 -76 -89 -195 -155 -417 -102 -346 -171 -633
-157 -648 24 -24 56 67 143 411 52 206 79 282 129 368 59 101 122 176 254 307
l125 124 -59 -8 c-32 -4 -64 -9 -72 -12 -47 -18 46 105 140 184 156 131 351
241 537 304 95 31 211 44 219 24 2 -5 -39 -40 -90 -77 -275 -198 -515 -443
-726 -743 -305 -433 -431 -628 -501 -770 -72 -145 -153 -337 -185 -440 -21
-65 -59 -237 -54 -242 11 -11 83 144 124 266 47 140 68 188 101 230 16 20 22
22 40 12 12 -7 22 -18 22 -26 0 -8 6 -12 14 -9 23 9 36 -29 37 -108 1 -71 1
-72 15 -41 15 35 27 111 44 275 26 259 98 420 191 430 l24 3 -2 -96 c-3 -170
-71 -492 -158 -749 -25 -74 -57 -178 -70 -232 -26 -108 -44 -298 -27 -298 5 0
13 37 17 83 9 100 33 194 113 437 91 277 110 361 137 608 40 358 76 504 137
569 25 27 43 30 34 7 -3 -8 -1 -24 5 -35 8 -15 6 -31 -7 -65 -18 -47 -14 -65
10 -44 27 22 39 6 16 -23 -25 -32 -50 -159 -43 -217 3 -22 -3 -75 -16 -127
-27 -116 -50 -232 -62 -318 -6 -38 -17 -97 -25 -130 -12 -48 -13 -67 -4 -90
l12 -30 29 64 c18 39 29 80 29 107 0 24 8 63 19 86 25 57 79 284 91 379 5 46
26 120 50 183 22 58 40 115 40 126 0 11 16 60 35 109 19 48 35 98 35 111 0 13
15 41 34 64 36 44 76 119 95 178 14 44 47 88 65 88 20 0 28 -71 15 -130 -8
-37 -8 -55 -1 -62 8 -8 7 -22 -4 -46 -14 -33 -13 -37 6 -56 25 -25 34 -16 49
48 12 50 48 126 75 161 15 18 15 14 10 -65 -3 -47 -10 -101 -15 -120 -11 -44
-11 -60 0 -60 5 0 12 17 16 38 15 85 107 444 135 532 17 52 45 116 61 142 30
46 107 124 115 115 2 -2 -19 -64 -47 -138 -153 -401 -152 -396 -158 -769 -3
-173 -9 -308 -13 -300 -3 8 -10 29 -14 45 -6 22 -10 1 -15 -80 -4 -60 -15
-150 -24 -200 -56 -308 -96 -615 -79 -615 4 0 13 8 20 18 13 16 13 16 15 -3 0
-11 9 13 19 52 23 87 100 257 111 246 5 -5 13 -123 18 -263 9 -230 8 -255 -6
-266 -15 -10 -15 -18 -4 -68 12 -52 11 -59 -5 -77 -16 -18 -17 -26 -6 -78 7
-31 12 -73 12 -92 0 -72 21 -99 50 -64 9 11 17 12 33 4 17 -9 23 -8 34 7 19
26 53 140 53 178 0 34 -56 613 -64 661 -22 131 -24 477 -3 395 19 -70 81 -583
117 -955 31 -331 29 -322 58 -293 9 9 19 7 42 -10 16 -12 32 -22 35 -22 3 0 5
30 5 68 0 93 19 282 30 301 6 10 9 -55 10 -185 l0 -200 31 -23 c29 -22 31 -22
50 -6 10 10 21 26 24 36 11 33 24 21 18 -16 -8 -52 18 -45 49 13 14 26 35 52
47 58 33 17 150 126 157 146 5 17 120 222 245 438 145 250 334 520 364 520 36
0 10 -50 -85 -170 -121 -151 -207 -270 -278 -387 -60 -99 -208 -395 -246 -493
l-26 -65 33 38 c25 29 35 35 44 26 9 -9 9 -18 2 -31 -6 -10 -9 -29 -7 -41 3
-17 10 -9 37 40 34 64 96 143 111 143 5 0 -7 -44 -26 -97 -39 -112 -41 -128
-13 -94 26 31 34 21 18 -23 -7 -20 -9 -39 -5 -43 5 -5 11 -2 13 4 3 7 14 23
25 35 l19 23 -5 -47 c-5 -47 -5 -48 27 -56 17 -5 45 -5 62 0 16 4 51 8 77 8
55 0 85 10 115 39 28 27 34 26 63 -4 25 -27 48 -31 80 -15 11 5 29 14 39 20
14 6 23 5 32 -6 20 -24 52 -12 79 30 l25 39 3 -32 c4 -36 14 -39 34 -9 18 27
45 19 59 -19 5 -16 21 -37 36 -47 l26 -19 33 39 33 39 31 -17 c42 -24 55 -23
78 7 22 28 34 23 26 -11 -6 -24 9 -34 21 -14 11 17 33 11 59 -16 25 -28 46
-25 46 5 0 10 7 24 15 31 19 16 23 41 35 255 9 172 43 421 59 438 9 9 21 -263
21 -492 0 -201 5 -241 31 -241 13 0 19 7 19 24 0 33 16 42 30 16 13 -24 30
-18 30 11 0 32 14 21 39 -31 13 -28 27 -50 31 -50 4 0 10 80 13 178 9 231 17
305 113 987 45 319 130 706 206 940 l23 70 38 -2 c54 -4 151 -53 293 -149 108
-74 190 -122 482 -281 35 -20 66 -41 68 -48 11 -27 -30 -157 -93 -295 -36 -80
-76 -179 -89 -220 -12 -41 -41 -137 -63 -212 -22 -75 -52 -162 -66 -194 -35
-78 -51 -146 -92 -379 -46 -262 -46 -264 -34 -244 5 8 48 166 95 350 113 443
197 706 314 980 68 159 90 199 108 199 34 0 24 -37 -54 -198 -86 -178 -140
-309 -192 -462 -67 -202 -92 -355 -120 -730 -18 -257 -19 -276 -3 -287 22 -17
44 -16 70 2 18 13 26 13 42 4 30 -19 124 5 167 43 29 26 34 27 34 11 0 -58 80
-92 130 -55 l27 21 11 -25 c13 -26 34 -31 49 -11 11 13 26 76 43 177 38 226
267 846 348 941 29 34 39 39 75 39 62 0 148 -45 271 -144 110 -88 144 -111
152 -103 9 8 -32 47 -207 194 -391 329 -777 636 -929 737 -52 35 -277 177
-500 316 -367 228 -486 310 -453 310 32 0 210 -73 395 -161 114 -55 211 -99
214 -99 4 0 -3 11 -16 25 -32 34 -20 41 27 17 52 -27 113 -52 113 -47 0 3 -26
29 -57 60 -32 30 -53 55 -46 55 7 0 161 -74 342 -165 182 -90 345 -171 363
-179 18 -7 59 -26 91 -40 31 -14 57 -24 57 -22 0 9 -127 95 -178 120 -29 15
-80 53 -113 86 -33 33 -66 60 -73 60 -18 0 -88 70 -83 83 13 40 79 32 102 -13
21 -40 70 -65 101 -51 39 18 216 -67 612 -292 106 -60 195 -107 198 -104 8 8
-81 82 -228 190 -76 55 -136 102 -134 105 2 2 57 -12 122 -32 195 -58 164 -31
-112 99 -111 52 -287 128 -392 169 -231 91 -462 195 -462 208 0 13 119 6 217
-13 66 -12 74 -11 91 4 18 16 23 17 66 2 26 -9 67 -25 92 -36 89 -38 83 -23
-21 56 -41 31 -75 60 -75 64 0 20 244 -41 475 -119 65 -22 124 -40 130 -40 16
0 -88 60 -256 148 -218 114 -355 156 -804 247 -243 49 -472 116 -482 141 -13
34 18 32 207 -17 262 -66 398 -94 576 -118 82 -11 185 -25 229 -31 88 -12 358
-78 457 -111 97 -32 257 -111 343 -168 43 -28 83 -50 89 -48 19 6 -238 168
-371 233 -73 36 -135 69 -138 75 -4 5 -28 9 -55 9 -27 0 -98 7 -157 15 -59 8
-151 19 -203 25 -222 24 -776 139 -939 194 l-69 24 -7 -46 c-9 -58 -35 -110
-94 -187 -102 -134 -245 -267 -390 -364 -111 -75 -409 -206 -427 -188 -13 12
11 28 139 90 255 125 501 309 603 452 57 81 98 169 90 199 -3 14 -23 32 -53
47 -73 37 -154 122 -197 209 -46 93 -55 140 -31 164 24 23 41 7 60 -57 20 -69
56 -126 107 -174 48 -44 136 -99 144 -90 3 3 -8 13 -24 21 -46 24 -150 124
-176 170 -13 23 -27 55 -31 72 -10 51 24 59 255 59 208 0 291 -10 423 -52 75
-23 79 -26 100 -71 28 -59 48 -59 125 0 l55 41 -6 66 c-15 171 -241 928 -431
1448 -94 257 -141 485 -151 738 -3 72 -10 153 -15 180 -5 28 -18 107 -29 176
-37 224 -126 474 -223 622 -64 98 -207 247 -319 332 -81 61 -258 147 -371 179
-79 23 -160 33 -410 51 -74 6 -88 4 -88 -8 0 -10 17 -17 58 -22 31 -4 70 -14
85 -23 27 -16 29 -16 41 1 26 35 216 12 380 -47 233 -83 422 -223 547 -403 58
-85 175 -315 213 -421 60 -168 77 -270 101 -592 26 -351 52 -478 158 -762 36
-95 72 -195 80 -223 8 -27 63 -203 122 -390 128 -408 155 -507 195 -693 36
-171 38 -207 9 -222 -15 -9 -24 -8 -35 0 -22 19 -59 150 -99 355 -89 456 -270
956 -493 1359 -39 72 -68 134 -66 138 3 4 14 4 24 -2 10 -5 29 -10 41 -10 21
0 22 1 16 118 -7 156 -101 623 -174 862 -121 398 -361 655 -729 783 -56 20
-125 47 -153 61 -36 19 -66 26 -108 26 -46 0 -68 6 -108 30 -56 33 -75 37 -75
15 0 -33 -44 -13 -111 52 -68 66 -82 71 -54 23 31 -54 9 -67 -37 -23 -27 25
-28 26 -47 9 -19 -17 -20 -16 -47 23 -26 41 -47 51 -59 30z m317 -285 c80 -19
80 -38 1 -32 -43 4 -60 11 -81 32 -23 24 -24 27 -7 22 11 -3 50 -13 87 -22z
m-712 -122 c0 -8 -82 -52 -132 -71 -16 -6 -28 -7 -28 -1 0 16 62 54 109 66 25
7 47 13 49 13 1 1 2 -3 2 -7z m1292 -49 c38 -20 92 -56 119 -81 42 -38 49 -49
49 -82 0 -22 -5 -40 -13 -43 -8 -3 -63 44 -130 110 -149 146 -153 164 -25 96z
m-1304 -236 c6 -5 12 -20 12 -33 0 -19 5 -24 25 -24 42 0 28 -16 -33 -39 -32
-11 -69 -32 -82 -46 -32 -34 -18 -31 73 15 136 68 184 66 272 -11 54 -47 61
-51 97 -45 30 5 46 2 68 -14 45 -32 106 -50 225 -65 136 -18 207 -34 199 -46
-7 -12 -74 -11 -244 5 -80 7 -161 11 -181 9 -28 -4 -42 1 -67 22 -30 25 -31
26 -42 5 -7 -13 -21 -20 -41 -20 -41 0 -29 -16 18 -24 52 -8 71 -22 56 -37 -9
-9 -25 -9 -62 -2 -57 11 -64 6 -23 -19 131 -84 201 -148 269 -248 41 -60 85
-149 79 -159 -3 -4 -51 -7 -108 -7 -100 1 -105 2 -171 39 -55 31 -72 47 -91
86 -38 74 -43 76 -173 74 -67 -1 -113 2 -113 7 0 6 5 10 10 10 19 0 10 28 -10
33 -41 11 -10 43 53 56 15 3 27 11 25 16 -5 18 -82 8 -161 -20 -43 -15 -80
-25 -84 -22 -24 24 106 85 237 111 l105 21 -62 3 c-48 2 -82 -4 -150 -27 -48
-16 -90 -27 -92 -25 -2 2 4 14 15 26 17 19 17 21 1 15 -9 -4 -42 -25 -72 -48
-31 -23 -59 -39 -62 -35 -4 4 1 28 11 54 31 81 31 92 5 85 -19 -5 -21 -3 -17
15 4 15 2 22 -8 22 -25 0 -15 18 47 90 34 39 59 73 57 76 -3 2 -29 -14 -58
-36 -30 -22 -55 -40 -57 -40 -7 0 20 46 41 69 11 13 44 38 71 57 28 19 67 47
89 64 39 30 72 32 104 7z m714 -23 c47 -25 43 -34 -17 -34 -48 0 -58 -3 -62
-19 -3 -11 -11 -22 -17 -24 -16 -6 -166 43 -166 54 0 8 75 34 120 42 37 7 111
-3 142 -19z m128 -116 c39 -18 42 -22 22 -26 -21 -3 -152 34 -152 44 0 13 92
0 130 -18z m-197 -255 c9 -3 17 -9 17 -14 0 -16 -35 -26 -65 -18 -32 9 -105
64 -105 79 0 5 30 -3 68 -17 37 -14 75 -28 85 -30z m122 25 c7 -7 -5 -9 -44
-4 -80 10 -102 29 -26 21 33 -3 64 -11 70 -17z m97 -100 c-19 -19 -115 -22
-148 -5 -28 16 -26 16 66 17 71 0 91 -3 82 -12z m518 -186 c0 -51 -17 -107
-37 -123 -15 -13 -16 -9 -10 41 13 113 47 173 47 82z m-1402 26 c21 -21 14
-48 -15 -59 -27 -10 -27 -11 -9 -25 11 -8 23 -14 28 -14 4 0 8 -4 8 -10 0 -23
-88 1 -129 35 -31 27 -60 32 -78 14 -16 -16 -57 -7 -61 14 -2 10 4 27 14 38
15 16 31 19 124 19 69 0 110 -4 118 -12z m212 -88 c14 -6 38 -31 54 -56 16
-25 39 -52 52 -61 24 -15 33 -43 14 -43 -17 0 -11 -17 15 -48 28 -34 24 -42
-22 -42 -51 0 -83 21 -154 101 -60 68 -62 72 -34 65 37 -9 27 2 -41 47 -75 50
-71 61 17 54 41 -3 85 -10 99 -17z m-552 -2 c7 -7 12 -35 12 -63 0 -28 5 -56
10 -61 8 -8 6 -15 -5 -24 -23 -19 -49 -1 -53 38 -2 23 -10 33 -33 41 -37 13
-37 23 2 55 34 29 49 32 67 14z m247 -40 c48 -24 56 -41 26 -58 -25 -13 -54
-13 -85 1 -31 14 -39 34 -26 60 14 25 29 24 85 -3z m659 -113 c41 -20 86 -62
86 -81 0 -12 -8 -13 -35 -8 -55 10 -42 -10 25 -39 84 -37 81 -57 -9 -57 -79 0
-115 19 -168 88 -42 56 -42 70 0 68 28 -1 32 2 29 22 -4 27 24 30 72 7z m194
-18 c18 -14 15 -31 -9 -53 -24 -21 -45 -12 -69 30 -13 23 -13 28 0 36 16 10
57 3 78 -13z m-1203 -6 c5 -9 -104 -56 -112 -48 -8 9 9 35 30 45 28 13 74 15
82 3z m250 -50 c56 -33 66 -36 139 -35 74 0 80 2 101 28 20 26 27 28 61 21 59
-11 105 -38 164 -99 64 -66 68 -82 23 -78 -18 1 -33 0 -33 -3 0 -12 81 -43
129 -48 29 -4 68 -15 86 -26 18 -10 46 -22 63 -26 36 -7 50 -23 61 -62 4 -17
24 -39 49 -56 44 -30 53 -51 25 -61 -12 -5 -14 -9 -5 -18 7 -7 12 -25 12 -40
0 -25 4 -28 31 -28 l31 0 -6 -52 c-8 -65 0 -78 50 -85 32 -4 47 1 84 25 31 22
49 28 60 22 22 -12 44 -39 37 -46 -15 -16 -170 -25 -322 -19 -163 6 -169 6
-152 -11 13 -14 39 -20 111 -24 52 -3 97 -8 101 -12 12 -12 -5 -28 -30 -28
-29 0 -43 -19 -24 -31 8 -5 33 -9 57 -9 36 0 43 -3 40 -17 -2 -12 -16 -20 -42
-23 -22 -3 -41 -10 -43 -17 -6 -17 35 -36 64 -28 23 5 24 3 21 -27 -3 -31 -5
-33 -48 -36 -66 -4 -90 -11 -90 -27 0 -25 37 -38 75 -25 41 14 55 7 55 -25 0
-26 -9 -30 -87 -40 -34 -4 -53 -12 -53 -20 0 -18 49 -33 89 -27 32 4 34 3 26
-19 -5 -13 -10 -87 -12 -163 -4 -129 -3 -144 18 -188 28 -60 22 -68 -62 -74
-35 -3 -74 -7 -86 -10 -46 -9 -21 -21 51 -26 93 -6 133 -29 171 -99 20 -38 29
-71 33 -121 3 -43 1 -68 -6 -68 -14 0 -22 25 -22 70 0 21 -5 51 -11 67 -14 38
-67 92 -106 109 -43 19 -117 18 -154 -2 -27 -13 -30 -19 -24 -42 4 -15 11 -44
15 -65 10 -50 17 -56 30 -21 17 44 61 104 77 104 23 0 63 -99 63 -155 0 -100
-48 -120 -147 -60 -57 34 -108 46 -101 23 2 -6 27 -19 56 -28 97 -32 113 -60
113 -212 1 -82 -2 -113 -12 -120 -23 -15 -133 0 -230 32 -50 17 -104 30 -120
30 -16 0 -38 5 -48 12 -21 13 -55 4 -49 -14 3 -7 18 -15 34 -20 16 -4 46 -17
67 -28 26 -15 46 -20 67 -15 31 7 181 -26 237 -52 47 -22 71 -106 38 -133 -24
-20 -111 3 -174 46 -29 20 -55 34 -57 31 -3 -2 -2 -23 2 -47 8 -52 30 -63 154
-80 100 -14 166 -7 180 19 5 10 10 111 10 224 1 222 6 241 48 211 21 -15 22
-21 22 -228 0 -202 1 -215 21 -240 15 -19 29 -26 47 -24 42 5 52 38 52 183 l0
130 36 -37 c41 -40 52 -83 53 -195 1 -76 7 -92 38 -104 31 -11 61 4 73 37 11
29 26 31 40 4 12 -23 0 -54 -26 -64 -8 -3 -121 -6 -250 -6 l-234 0 0 -22 c0
-46 11 -50 161 -61 105 -7 172 -7 246 2 116 13 133 9 190 -51 l33 -34 -158
-156 c-92 -91 -175 -165 -201 -178 -58 -29 -145 -36 -232 -20 -38 7 -72 10
-76 6 -4 -3 14 -26 40 -49 25 -23 47 -49 48 -57 4 -36 -3 -53 -30 -81 -52 -51
-78 -43 -237 72 -155 113 -219 164 -281 223 -24 22 -46 36 -50 32 -10 -10 74
-86 277 -250 191 -155 233 -196 228 -224 -3 -22 -317 -321 -353 -337 -13 -6
-33 -19 -44 -29 -21 -19 -21 -19 -21 5 0 29 -67 339 -75 347 -3 3 -10 1 -16
-5 -11 -11 10 -152 36 -238 16 -50 16 -50 -10 -72 -30 -27 -50 -29 -59 -8 -10
26 -29 17 -22 -10 4 -14 2 -25 -3 -25 -11 0 -31 78 -41 160 -6 57 -5 68 12 87
20 21 20 22 -2 90 -13 37 -33 92 -46 122 -13 29 -24 58 -24 63 0 21 23 -7 41
-50 25 -58 31 -62 97 -62 66 0 69 18 10 53 -24 14 -55 38 -70 54 -38 41 -103
165 -133 258 -14 44 -39 105 -55 135 -37 72 -80 220 -80 277 0 48 26 103 48
103 8 0 13 -9 12 -22 -3 -36 -1 -48 9 -48 19 0 33 69 38 183 4 77 10 117 17
117 6 0 49 -38 96 -85 47 -47 88 -85 93 -85 5 0 -24 37 -65 83 -130 145 -221
274 -286 402 -39 79 -48 113 -68 275 -9 74 -22 149 -29 166 -8 20 -36 47 -73
72 -33 23 -72 56 -87 73 -26 31 -27 36 -20 106 9 101 -6 157 -71 254 -58 87
-67 116 -62 194 2 42 6 50 24 53 31 4 50 -23 36 -52 -9 -20 -4 -41 25 -117 47
-126 78 -189 113 -233 28 -37 33 -50 46 -136 6 -43 41 -116 51 -106 3 2 -1 56
-7 120 -7 64 -10 122 -7 129 7 18 -7 83 -26 128 -15 34 -15 38 5 78 17 35 19
48 10 82 -7 27 -7 62 -1 102 8 48 6 73 -5 112 -15 48 -15 51 4 65 18 14 19 22
11 106 -4 50 -11 96 -15 102 -4 6 -3 19 2 29 25 50 30 81 14 97 -17 17 -19 12
51 171 52 117 78 125 192 56z m-313 -41 c-23 -21 -57 -43 -75 -49 -38 -14 -30
-5 43 48 70 50 87 51 32 1z m2273 -115 c28 -12 59 -30 70 -39 19 -16 18 -16
-20 -10 -49 8 -150 51 -167 72 -11 13 -8 14 27 8 22 -4 63 -18 90 -31z m-1139
5 c26 -10 26 -11 9 -30 -25 -27 -70 -26 -89 2 -9 12 -16 26 -16 30 0 11 64 10
96 -2z m1104 -126 c42 -17 43 -18 18 -25 -14 -4 -76 -10 -137 -14 -110 -7
-131 -16 -98 -43 15 -12 194 -89 294 -126 40 -15 98 -45 130 -65 63 -42 177
-141 169 -148 -2 -2 -33 17 -68 42 -115 85 -241 137 -371 154 -118 14 -202 0
-371 -63 -83 -30 -152 -53 -155 -51 -2 3 35 23 83 45 83 38 185 72 304 100 82
19 63 42 -46 55 -82 9 -107 31 -103 86 5 65 234 100 351 53z m-3328 -293 c29
-32 71 -70 92 -85 37 -25 37 -26 13 -26 -14 0 -38 5 -54 11 -52 19 -123 102
-123 144 0 27 17 16 72 -44z m457 32 c-28 -35 -45 -42 -106 -43 -58 0 -91 14
-60 25 11 5 141 30 171 34 5 1 2 -7 -5 -16z m27 -88 l-66 -65 -78 0 c-112 1
-192 35 -192 83 0 17 5 18 63 12 114 -14 218 -9 272 14 28 11 54 20 59 20 5 1
-21 -28 -58 -64z m214 -21 c0 -4 -17 -34 -38 -68 -36 -57 -57 -106 -45 -106 3
0 21 14 40 30 55 48 102 36 65 -18 -11 -15 -31 -51 -46 -80 -27 -53 -53 -72
-99 -72 -31 0 -44 -11 -52 -43 -9 -35 13 -36 45 -2 13 14 35 25 49 25 19 0 35
12 55 40 36 48 53 53 30 8 -38 -73 -188 -198 -211 -175 -3 4 -15 0 -25 -10
-17 -15 -18 -15 -18 3 0 10 11 50 25 88 13 38 22 73 19 78 -10 16 -24 7 -30
-19 -14 -65 -26 -95 -36 -85 -13 13 16 141 47 210 38 82 75 118 75 72 0 -33
26 -23 55 23 45 69 75 107 86 107 5 0 9 -3 9 -6z m2437 -9 c90 -27 193 -142
193 -216 0 -19 -4 -15 -22 21 -35 71 -126 155 -198 181 -33 12 -60 23 -60 25
0 8 39 3 87 -11z m582 -131 c82 -86 148 -183 196 -287 74 -163 179 -525 255
-886 36 -171 35 -173 -77 -127 -122 49 -196 103 -318 230 -82 86 -115 114
-128 110 -24 -8 -61 18 -97 68 -23 31 -30 52 -30 87 0 73 25 171 70 278 62
146 67 239 30 508 -13 94 -13 95 9 95 10 0 51 -34 90 -76z m-179 46 c28 -15
43 -81 30 -130 -12 -45 -12 -45 -41 -27 -21 12 -32 4 -58 -42 -12 -20 -33 -9
-63 35 -46 68 -45 80 5 129 46 47 85 57 127 35z m-703 -174 c12 -39 23 -76 23
-83 0 -16 -59 -43 -93 -43 -13 0 -44 14 -69 30 -25 17 -67 34 -94 39 -70 13
-108 69 -69 101 20 17 105 28 199 26 l79 -1 24 -69z m404 -28 c23 -46 29 -121
12 -153 -10 -16 -11 -15 -11 16 0 18 -8 63 -16 99 -9 36 -16 68 -16 73 0 17
11 4 31 -35z m-2323 -51 c28 -30 49 -83 58 -144 14 -108 -28 -53 -76 99 -23
74 -22 68 -12 68 5 0 18 -10 30 -23z m-583 -85 c14 3 28 2 31 -3 8 -13 -21
-63 -82 -141 -30 -39 -71 -99 -90 -134 -20 -35 -40 -64 -46 -64 -21 0 0 132
31 195 45 90 103 165 118 153 7 -6 24 -8 38 -6z m2570 -50 c40 -6 50 -11 50
-26 0 -45 -231 -68 -332 -33 -57 20 -68 30 -59 52 4 12 32 15 148 14 79 0 166
-4 193 -7z m-190 -172 c137 -10 162 -15 177 -31 9 -11 30 -24 47 -30 43 -15
39 -33 -12 -58 -48 -24 -141 -28 -217 -10 -70 16 -163 66 -206 111 l-39 41 45
-6 c25 -3 117 -11 205 -17z m-2285 -64 c0 -16 -12 -49 -26 -74 -22 -38 -28
-42 -36 -28 -10 18 1 85 22 141 11 29 12 29 26 11 8 -11 14 -33 14 -50z m2994
-138 c-5 -24 -8 -81 -6 -128 2 -83 1 -88 -34 -145 -59 -100 -111 -162 -139
-169 -34 -9 -89 22 -93 51 -4 25 49 133 115 236 54 86 143 197 156 197 6 0 6
-16 1 -42z m-622 -144 c47 -16 63 -38 70 -94 2 -18 10 -26 28 -28 38 -3 102
38 113 73 14 44 26 55 57 55 38 0 60 -9 60 -25 0 -7 -43 -115 -97 -239 -76
-181 -100 -227 -113 -223 -27 7 -367 280 -384 309 -20 33 -21 90 -1 128 27 53
172 77 267 44z m-449 -102 c12 -20 17 -45 15 -69 l-4 -38 -27 55 c-29 59 -35
94 -15 88 7 -3 21 -19 31 -36z m308 -259 c34 -29 91 -112 103 -151 7 -21 6
-21 -21 -11 -48 18 -89 51 -122 98 -55 82 -30 122 40 64z m726 -16 c-9 -12
-79 -96 -157 -187 -78 -91 -158 -189 -179 -217 -37 -54 -61 -67 -61 -35 0 30
137 202 274 342 72 74 133 131 134 127 2 -4 -3 -18 -11 -30z m-732 -197 c161
-209 184 -250 145 -258 -10 -2 -72 78 -178 227 -89 126 -162 234 -162 241 0
34 46 -15 195 -210z m-1345 -162 c0 -7 -7 -47 -16 -88 -13 -61 -15 -113 -10
-285 7 -250 22 -506 37 -630 18 -150 217 -1135 246 -1216 16 -45 24 -83 19
-94 -10 -27 -21 -9 -40 65 -32 122 -89 315 -96 329 -5 10 -8 9 -12 -6 -5 -20
-3 -31 57 -233 39 -133 56 -262 36 -274 -6 -4 -11 -1 -11 6 0 93 -45 286 -75
323 -15 19 -16 17 -11 -27 7 -56 0 -78 -23 -78 -12 0 -23 17 -35 56 -26 82
-32 57 -8 -33 27 -101 42 -223 42 -346 0 -88 -2 -98 -17 -95 -16 3 -18 18 -18
128 -1 118 -18 245 -35 255 -4 3 -6 -55 -4 -128 3 -87 1 -125 -5 -112 -5 11
-10 34 -11 50 0 17 -12 77 -25 135 l-24 105 6 -225 c5 -216 0 -302 -17 -283
-4 4 -10 103 -12 218 -4 191 -6 214 -26 255 l-22 45 5 -97 c4 -80 2 -96 -9
-92 -25 9 -35 56 -39 179 -3 66 -10 137 -17 158 -10 33 -14 37 -27 26 -11 -10
-13 -25 -9 -58 9 -70 19 -287 13 -281 -3 3 -24 113 -47 245 -31 177 -49 251
-66 280 -12 22 -39 103 -58 180 -20 77 -45 172 -56 210 -18 64 -20 87 -14 285
4 118 11 225 15 238 19 50 28 18 32 -100 l3 -123 2 135 c2 139 17 220 60 326
11 27 23 72 27 100 11 71 23 97 40 90 11 -4 15 3 15 28 0 57 27 125 93 234 35
59 80 135 98 169 33 60 49 77 49 51z m1639 -192 c28 -29 31 -37 22 -54 -13
-24 -72 -46 -100 -37 -10 3 -26 14 -36 25 -17 19 -17 21 16 59 19 22 41 40 50
40 8 1 30 -14 48 -33z m335 -78 c9 -12 16 -41 16 -64 0 -25 6 -47 15 -54 22
-18 20 -22 -30 -78 -25 -27 -45 -59 -45 -70 0 -32 -104 -138 -165 -167 -36
-18 -76 -28 -128 -32 -69 -5 -76 -4 -88 16 -8 11 -18 21 -24 21 -5 0 -79 -47
-165 -104 -177 -119 -344 -254 -376 -306 -13 -19 -35 -50 -49 -68 -22 -26 -25
-35 -15 -47 11 -13 16 -12 40 5 67 47 52 -59 -27 -191 -38 -65 -39 -71 -16
-62 16 6 16 4 -1 -22 -84 -130 -432 -541 -459 -544 -5 -1 -15 5 -23 13 -7 8
-19 16 -26 18 -20 7 -28 229 -11 293 24 93 16 89 -86 -40 -46 -58 -87 -105
-92 -105 -19 0 -7 42 28 97 106 166 262 351 449 533 145 141 200 183 419 315
127 77 210 134 323 222 14 11 14 15 -3 33 -16 18 -16 24 -4 67 23 83 115 153
201 153 13 0 48 7 78 16 44 13 66 29 130 95 82 84 108 95 134 57z m-1876 -580
c3 -54 1 -78 -7 -78 -7 0 -11 22 -11 58 0 31 -3 75 -6 97 -5 35 -4 37 7 20 7
-11 15 -55 17 -97z m1280 -250 c-3 -7 -24 -17 -48 -23 -46 -11 -67 -32 -57
-59 5 -12 19 -16 59 -16 30 0 48 -4 43 -9 -19 -17 -110 -41 -155 -41 -44 0
-50 -4 -94 -52 -25 -28 -49 -48 -52 -45 -5 4 116 186 147 221 7 8 107 33 142
35 11 1 17 -4 15 -11z m-1138 -152 c20 -98 25 -144 14 -134 -16 17 -56 253
-40 237 3 -3 15 -49 26 -103z m501 -564 c-22 -41 -10 -43 39 -7 56 41 63 32
25 -30 -13 -22 -25 -44 -25 -48 0 -12 31 8 83 53 56 50 61 37 10 -34 -185
-258 -251 -336 -288 -336 -11 0 -4 22 20 60 14 22 25 44 25 49 0 15 -30 22
-51 11 -16 -9 -19 -7 -19 12 0 21 0 21 -28 -5 -28 -27 -52 -35 -52 -18 0 15
83 122 174 224 83 92 112 115 87 69z m-1267 -207 c-8 -65 -42 -172 -56 -181
-17 -11 -5 98 22 195 20 74 24 82 32 60 5 -13 6 -46 2 -74z m1412 -89 c-15
-25 -41 -56 -57 -69 -32 -23 -128 -197 -109 -197 5 0 33 35 62 77 29 42 68 93
86 112 l33 36 -16 -33 c-32 -66 -124 -211 -211 -332 -49 -68 -92 -129 -96
-134 -4 -6 -9 -8 -13 -5 -3 3 11 41 31 83 26 55 39 98 43 146 6 61 12 76 65
156 71 107 143 204 165 222 12 10 18 9 29 -2 13 -13 11 -21 -12 -60z m-717
-306 c0 -61 -1 -64 -14 -40 -9 16 -14 53 -14 105 l1 80 13 -40 c8 -22 14 -69
14 -105z m149 33 c-33 -60 -119 -219 -190 -355 -141 -268 -196 -333 -72 -85
155 308 291 547 313 547 5 0 -18 -48 -51 -107z m112 15 c-46 -87 -100 -171
-106 -165 -3 3 7 29 22 59 33 67 106 179 112 173 3 -3 -10 -33 -28 -67z m339
-128 c-51 -78 -95 -136 -97 -130 -7 20 66 138 147 238 67 83 43 30 -50 -108z
m-312 4 c-19 -38 -44 -80 -56 -94 l-21 -25 10 27 c23 65 87 174 97 165 2 -3
-11 -36 -30 -73z m83 -101 c-16 -47 -63 -141 -85 -168 -16 -20 -16 -19 -9 5 3
14 26 67 51 119 44 93 66 116 43 44z m-514 -109 c5 -35 1 -61 -11 -89 -23 -53
-29 -32 -20 72 8 92 22 100 31 17z m-68 -209 c-4 -46 -28 -61 -28 -18 0 15 3
38 6 51 10 35 26 11 22 -33z"/>
<path d="M2792 8767 c-33 -10 -88 -54 -79 -63 6 -7 73 28 107 55 27 23 22 24
-28 8z"/>
<path d="M2730 7555 c0 -18 -5 -57 -11 -85 -10 -48 -9 -53 11 -75 19 -21 21
-30 15 -76 -9 -63 -40 -99 -84 -99 -81 0 -113 -50 -43 -69 20 -6 51 -11 67
-11 34 0 76 -19 82 -36 2 -6 -10 -17 -27 -24 -16 -7 -30 -17 -30 -22 0 -18 28
-18 71 1 44 20 103 26 147 15 26 -8 28 -22 5 -39 -17 -12 -17 -14 2 -35 17
-19 28 -21 70 -18 32 3 62 13 82 28 27 19 35 21 48 10 24 -20 19 -28 -37 -56
-73 -37 -156 -43 -228 -15 -30 12 -59 21 -64 21 -20 0 19 -30 60 -46 43 -16
103 -16 217 2 31 5 37 3 37 -11 0 -13 5 -16 23 -10 12 4 36 8 52 9 17 1 59 20
94 44 70 46 97 51 117 25 17 -24 34 -7 51 50 17 57 16 64 -8 78 -18 9 -25 7
-48 -15 -33 -31 -97 -46 -153 -35 -24 4 -99 37 -169 72 -76 39 -154 71 -200
81 -131 31 -131 31 -107 136 10 42 9 66 -6 145 -18 95 -36 125 -36 60z"/>
<path d="M2778 6817 c-3 -55 -10 -94 -20 -109 -16 -24 -15 -27 5 -59 l22 -34
6 65 c10 97 10 193 0 208 -5 9 -10 -19 -13 -71z"/>
<path d="M3469 6844 c-7 -16 -14 -54 -16 -84 -2 -30 -6 -75 -9 -100 -4 -36 -2
-51 14 -70 18 -22 22 -23 47 -12 23 11 26 17 21 40 -4 15 -11 73 -15 130 -9
113 -23 144 -42 96z"/>
<path d="M3255 6472 c-6 -4 -28 -29 -50 -57 -71 -88 -68 -83 -39 -77 18 3 34
-3 56 -24 24 -23 29 -25 23 -9 -5 11 -10 37 -13 58 -4 33 0 42 32 72 20 18 36
36 36 39 0 8 -33 7 -45 -2z"/>
<path d="M3208 5424 c17 -31 88 -93 116 -100 51 -12 45 3 -16 44 -35 24 -74
50 -87 60 -23 16 -24 16 -13 -4z"/>
<path d="M3690 5423 c-190 -2 -318 -7 -324 -13 -7 -7 8 -27 43 -59 42 -39 52
-54 48 -71 -7 -26 27 -83 58 -100 11 -5 43 -28 70 -50 64 -51 112 -66 157 -47
64 28 348 283 348 313 0 18 -33 35 -62 32 -13 -2 -165 -4 -338 -5z"/>
<path d="M2947 4573 c-19 -19 4 -130 24 -117 10 6 12 84 3 108 -7 17 -16 20
-27 9z"/>
<path d="M2441 4833 c0 -30 3 -53 9 -53 11 0 11 31 0 75 -7 26 -8 22 -9 -22z"/>
<path d="M2286 4650 c3 -41 10 -111 17 -155 16 -111 23 -41 7 81 -15 125 -31
173 -24 74z"/>
<path d="M2507 4686 c-8 -47 2 -104 14 -84 11 16 10 76 0 103 -6 15 -9 12 -14
-19z"/>
<path d="M2580 4372 c0 -64 52 -263 66 -250 11 12 -47 278 -61 278 -3 0 -5
-13 -5 -28z"/>
<path d="M2286 4241 c3 -30 6 -71 6 -93 -1 -27 3 -38 14 -38 25 0 27 28 9 93
-24 87 -37 104 -29 38z"/>
<path d="M2483 4223 c3 -10 13 -62 23 -116 13 -72 20 -93 27 -81 15 26 2 126
-22 172 -22 43 -36 56 -28 25z"/>
<path d="M2587 4113 c-14 -14 -6 -79 14 -112 11 -18 22 -31 24 -29 4 4 -22
138 -28 144 -2 2 -7 1 -10 -3z"/>
<path d="M2475 3985 c4 -33 19 -95 33 -138 21 -62 32 -80 55 -92 l28 -14 -3
52 c-3 45 -7 54 -29 64 -22 11 -30 26 -44 86 -10 39 -24 79 -32 87 -13 13 -14
8 -8 -45z"/>
<path d="M2410 3885 c-13 -15 -6 -46 18 -83 24 -37 36 -12 22 47 -13 54 -20
60 -40 36z"/>
<path d="M2662 3858 c-11 -43 -4 -68 19 -68 20 0 25 31 13 78 -9 31 -22 27
-32 -10z"/>
<path d="M1071 4886 c-232 -181 -300 -226 -423 -286 -53 -25 -112 -65 -162
-109 -94 -82 -104 -97 -83 -119 15 -14 20 -14 57 1 22 8 40 12 40 9 0 -4 -11
-24 -25 -45 -14 -20 -22 -37 -18 -37 12 0 379 315 591 508 328 298 334 320 23
78z"/>
</g>
</svg>
