<?xml version="1.0" standalone="no"?>
<!DOCTYPE svg PUBLIC "-//W3C//DTD SVG 20010904//EN"
 "http://www.w3.org/TR/2001/REC-SVG-20010904/DTD/svg10.dtd">
<svg version="1.0" xmlns="http://www.w3.org/2000/svg"
 width="736.000000pt" height="1062.000000pt" viewBox="0 0 736.000000 1062.000000"
 preserveAspectRatio="xMidYMid meet">

<g transform="translate(0.000000,1062.000000) scale(0.100000,-0.100000)"
fill="#000000" stroke="none">
<path d="M3460 10370 c0 -42 8 -105 27 -225 4 -27 7 -102 7 -165 -1 -92 0
-107 8 -75 18 78 -8 471 -33 500 -5 5 -9 -10 -9 -35z"/>
<path d="M3625 10201 c-37 -4 -59 -10 -58 -17 17 -89 23 -979 9 -1314 -3 -96
-12 -185 -18 -197 -18 -37 -3 -49 84 -72 46 -12 95 -29 111 -37 15 -8 31 -12
37 -9 5 3 21 -1 34 -10 14 -9 30 -14 36 -10 10 6 24 -22 21 -41 -1 -7 -619 -6
-632 1 -5 4 -9 1 -9 -5 0 -8 -25 -10 -82 -6 -46 2 -92 5 -102 6 -32 2 -39 -15
-22 -55 9 -21 16 -50 16 -66 0 -15 5 -31 11 -35 6 -3 8 -17 5 -30 -11 -44 -30
-43 634 -31 345 6 548 -4 795 -38 144 -20 224 -19 110 2 -122 22 -125 22 -125
38 0 8 7 18 16 23 19 10 43 76 44 118 0 41 16 54 67 54 24 0 43 4 43 9 0 12
-320 24 -496 19 -80 -3 -147 -2 -149 2 -3 4 0 45 5 91 5 46 14 136 20 199 16
173 42 343 54 357 9 10 29 10 96 -2 47 -8 90 -15 97 -15 7 0 15 24 19 56 8 67
8 67 -96 90 -41 9 -76 17 -77 18 -1 1 4 29 12 61 7 33 15 82 17 110 l3 50
-125 18 c-69 10 -128 22 -132 26 -10 9 6 139 18 151 6 6 43 2 99 -10 130 -29
131 -29 144 28 6 26 15 92 20 147 6 55 16 146 22 203 l13 102 45 1 46 1 -40 9
c-48 11 -554 19 -640 10z m343 -336 c-11 -24 -28 -34 -28 -16 0 21 13 41 26
41 11 0 11 -5 2 -25z m26 -555 c6 -6 5 -25 -2 -48 -7 -22 -12 -49 -12 -61 0
-21 -4 -22 -57 -17 -32 2 -59 5 -60 5 -2 1 -3 33 -3 72 l0 71 63 -6 c34 -4 66
-11 71 -16z m-314 -640 c0 -5 -4 -10 -10 -10 -5 0 -10 5 -10 10 0 6 5 10 10
10 6 0 10 -4 10 -10z"/>
<path d="M4265 9820 c-11 -18 -9 -100 3 -112 8 -8 57 -12 154 -12 140 -1 143
-1 146 -23 2 -13 7 -23 10 -23 14 0 42 40 42 59 0 10 7 33 16 50 27 53 14 58
-188 64 -99 3 -180 2 -183 -3z"/>
<path d="M4705 8480 c-3 -5 1 -10 10 -10 9 0 13 5 10 10 -3 6 -8 10 -10 10 -2
0 -7 -4 -10 -10z"/>
<path d="M3871 8134 c0 -11 3 -14 6 -6 3 7 2 16 -1 19 -3 4 -6 -2 -5 -13z"/>
<path d="M3933 8053 c65 -120 122 -215 130 -220 6 -4 1 10 -11 31 -12 20 -22
42 -22 48 0 6 -10 25 -23 42 -13 17 -31 48 -41 69 -9 20 -21 37 -27 37 -6 0
-8 -3 -6 -7z"/>
<path d="M3820 7943 c-19 -8 -43 -22 -52 -30 -19 -17 -78 -129 -78 -148 0 -11
-75 -124 -89 -135 -4 -3 -27 -39 -51 -80 -40 -67 -134 -214 -180 -280 -9 -14
-27 -45 -39 -69 -12 -23 -37 -64 -55 -89 -18 -26 -57 -87 -86 -137 -29 -49
-74 -123 -101 -163 -27 -40 -49 -75 -49 -79 0 -4 -8 -16 -18 -27 -10 -12 -52
-75 -92 -141 -41 -66 -85 -138 -99 -160 -14 -22 -26 -42 -26 -45 -1 -8 -98
-154 -106 -160 -4 -3 -27 -39 -52 -80 -24 -41 -71 -116 -103 -167 -326 -510
-384 -608 -384 -652 0 -9 16 -11 65 -7 36 3 94 9 130 12 l65 6 0 -71 c0 -81 6
-78 -120 -81 -191 -5 -217 -7 -257 -19 -34 -9 -43 -17 -43 -34 0 -12 -12 -35
-26 -51 l-26 -29 -96 6 -97 7 1 -68 c1 -37 2 -77 3 -89 1 -19 21 -33 56 -38 6
-1 14 -3 19 -3 5 -1 3 -10 -6 -19 -21 -26 -38 -72 -29 -77 4 -3 34 -1 65 4 31
5 93 9 137 9 l79 0 0 -75 c0 -86 18 -78 -165 -75 -153 2 -197 -10 -238 -64
-33 -45 -198 -299 -207 -319 -5 -12 -65 -111 -177 -296 -35 -58 -68 -112 -73
-120 -5 -8 -55 -89 -112 -179 -57 -90 -116 -187 -131 -215 -16 -28 -46 -73
-66 -101 -20 -27 -47 -69 -59 -92 -20 -39 -20 -44 -5 -73 8 -17 13 -33 11 -35
-7 -8 -207 -17 -218 -10 -6 4 1 23 17 48 16 23 33 50 38 58 6 9 27 42 48 73
20 31 37 59 37 62 0 4 16 24 35 45 19 22 35 45 35 53 0 8 11 27 24 43 13 15
33 47 45 70 14 29 30 45 48 49 22 6 24 8 10 13 -15 6 -13 11 15 42 18 20 62
80 98 133 88 130 129 186 208 285 37 46 86 109 110 140 23 31 46 61 50 66 4 6
21 28 37 50 16 22 47 60 67 84 39 45 46 61 28 61 -13 0 -131 -125 -172 -182
-18 -24 -70 -90 -118 -148 -85 -104 -194 -253 -225 -307 -60 -106 -133 -212
-180 -263 -18 -19 -60 -80 -95 -135 -34 -55 -66 -101 -71 -103 -5 -2 -9 -7 -9
-12 0 -14 -62 -110 -71 -110 -5 0 -9 -10 -9 -23 0 -28 -46 -97 -65 -97 -8 0
-15 -4 -15 -9 0 -15 -107 -33 -150 -26 -25 4 -40 3 -40 -4 0 -20 27 -26 107
-22 l82 3 -79 -160 c-80 -159 -103 -216 -53 -132 14 25 32 52 39 61 12 13 40
64 110 196 17 31 20 33 73 31 52 -1 325 -1 381 1 14 0 77 3 140 6 63 2 245 7
403 9 246 5 289 4 293 -9 3 -8 7 -54 7 -102 l2 -88 -65 -1 c-45 -1 -65 -5 -68
-15 -2 -8 -8 -24 -14 -36 -6 -12 -8 -45 -6 -73 3 -28 1 -53 -4 -56 -32 -20 40
-25 130 -9 30 5 42 4 42 -4 0 -9 8 -8 28 2 15 8 46 21 69 27 40 12 42 15 50
64 7 42 12 52 31 54 22 3 23 3 20 -105 l-3 -108 -140 -12 c-128 -11 -185 -24
-185 -44 0 -14 35 -19 70 -9 66 19 65 21 65 -102 0 -62 2 -207 4 -323 3 -181
-10 -718 -24 -1025 -7 -154 -27 -354 -37 -373 -10 -20 -12 -114 -3 -161 10
-48 22 -63 55 -64 24 0 33 6 46 29 15 31 34 31 34 0 0 -12 14 -21 46 -29 25
-7 50 -9 56 -6 23 14 36 69 30 128 l-5 61 40 -50 c59 -75 67 -79 100 -63 20
10 28 21 27 38 -3 74 -13 122 -26 133 -8 7 -21 39 -28 72 -7 33 -23 102 -36
153 -13 52 -24 102 -24 113 0 18 2 18 43 2 23 -9 51 -22 62 -30 27 -18 65 -16
81 5 19 24 17 72 -4 103 -73 110 -91 136 -105 148 -10 7 -17 19 -17 26 0 7 -7
18 -15 25 -7 6 -17 32 -21 57 -4 27 -16 55 -31 71 -24 26 -25 31 -19 107 6 76
12 193 20 388 l3 87 -29 0 -28 0 0 85 c0 82 1 85 25 91 14 4 50 4 80 2 l53 -5
9 86 c4 47 7 93 5 101 -5 32 -4 46 2 61 6 14 0 15 -55 7 -33 -4 -64 -6 -69 -3
-7 4 -3 537 5 561 2 7 52 12 147 12 78 1 188 6 243 12 55 5 144 11 199 12 l98
3 -6 -60 c-4 -33 -8 -78 -11 -100 -2 -22 -6 -93 -8 -158 -2 -64 -7 -120 -10
-123 -3 -3 -36 -10 -74 -15 -178 -23 -214 -29 -235 -40 -20 -11 -28 -47 -32
-149 -1 -41 -6 -85 -11 -97 -6 -18 -4 -23 9 -23 9 0 16 5 16 12 0 6 6 3 14 -7
11 -16 17 -17 29 -7 15 13 53 18 210 27 85 5 91 3 89 -25 0 -3 -3 -86 -6 -184
-3 -101 -9 -183 -15 -190 -8 -9 -8 -61 -1 -172 21 -309 31 -344 100 -344 33 0
46 7 82 43 42 40 79 72 143 118 17 12 46 37 65 55 l35 33 -2 -99 c-1 -91 1
-103 21 -128 12 -15 25 -34 28 -42 8 -23 70 -39 124 -33 31 3 49 0 54 -7 33
-54 72 152 71 375 -2 212 -18 358 -47 402 -8 12 -32 28 -54 34 -36 11 -42 10
-73 -13 -18 -14 -44 -38 -57 -54 -46 -50 -254 -264 -256 -261 -1 1 2 27 7 57
5 30 11 153 13 272 3 174 1 219 -9 228 -10 9 -35 7 -98 -4 -46 -9 -87 -16 -92
-16 -5 0 -2 188 5 216 1 4 92 17 139 20 63 4 85 18 77 51 -4 12 -2 53 4 90 5
38 11 122 13 188 l3 120 85 6 c46 3 141 5 212 4 70 -1 127 2 127 7 0 4 7 5 15
2 8 -4 15 -1 15 5 0 14 33 14 47 0 17 -17 692 -13 878 6 24 2 47 0 51 -6 4 -7
10 -7 18 0 14 12 59 14 194 11 69 -1 82 -4 83 -18 0 -9 -1 -53 -2 -97 -1 -44
-3 -237 -4 -430 -1 -248 -6 -392 -18 -495 -9 -80 -17 -151 -17 -157 0 -15 -31
-17 -46 -4 -5 5 -67 39 -139 76 -71 37 -143 76 -160 85 -24 14 -115 40 -140
40 -3 0 -5 -7 -5 -15 0 -8 -8 -15 -19 -15 -28 0 -32 -33 -37 -339 l-5 -274 53
-48 c28 -27 58 -49 65 -49 7 0 32 9 55 21 63 31 92 94 90 195 -1 66 11 171 22
181 11 11 184 -85 212 -117 29 -32 33 -34 56 -22 21 12 31 11 62 -2 32 -13 42
-14 64 -2 15 7 32 12 38 9 19 -7 53 42 69 102 10 38 18 114 20 205 5 155 10
276 20 405 3 44 7 230 10 414 2 183 6 335 9 338 8 8 580 3 588 -5 13 -13 7
-378 -8 -465 -4 -23 -7 -121 -8 -218 l-1 -176 87 1 c55 1 91 -3 99 -11 11 -11
20 -220 11 -250 -3 -8 -23 -13 -56 -13 -56 0 -151 -24 -161 -41 -4 -5 -1 -16
5 -24 8 -10 11 -101 8 -332 -3 -312 -3 -319 -27 -363 -13 -25 -44 -68 -70 -96
-128 -141 -151 -174 -151 -217 1 -33 6 -46 26 -61 25 -18 26 -18 48 3 12 12
25 21 29 21 4 0 24 18 44 40 21 22 41 40 46 40 12 0 8 -41 -18 -174 -14 -70
-25 -143 -25 -161 0 -19 -13 -60 -30 -92 -35 -66 -36 -84 -13 -124 15 -26 22
-29 48 -23 36 8 95 62 95 87 0 34 19 16 22 -20 3 -33 8 -41 41 -57 38 -18 39
-18 60 2 12 13 26 50 37 98 l16 78 17 -42 c20 -49 55 -69 88 -49 20 11 21 18
15 127 -4 63 -18 178 -31 255 -45 262 -47 297 -39 713 5 304 10 392 19 392 7
0 15 7 19 15 4 10 20 15 53 15 26 0 71 3 99 6 l51 6 -2 127 c-1 69 -6 134 -10
144 -5 11 -3 17 6 17 9 0 7 5 -5 11 -13 8 -29 8 -55 1 -52 -16 -135 -22 -151
-12 -12 7 -14 45 -11 207 3 213 6 286 17 400 6 66 9 73 28 73 19 1 19 2 5 13
-12 9 -16 28 -15 72 l1 60 302 1 c166 1 309 4 318 7 8 4 15 2 15 -4 0 -6 8 -8
18 -5 9 3 58 8 107 11 77 5 155 20 155 29 0 17 -33 87 -73 156 -102 174 -112
187 -142 180 -43 -9 -397 -18 -442 -11 -38 6 -38 6 -34 50 5 80 13 90 73 89
100 -1 263 11 317 23 46 10 52 13 35 22 -26 14 -37 31 -73 104 -37 75 -38 83
-8 83 38 0 67 12 67 26 0 8 -4 14 -10 14 -5 0 -23 19 -39 43 -47 65 -128 150
-138 144 -4 -3 -56 -8 -113 -12 -170 -10 -232 -15 -294 -26 -32 -6 -74 -11
-94 -13 -32 -2 -37 -6 -43 -32 -8 -44 -16 -52 -41 -47 -13 2 -42 0 -66 -5 -60
-14 -72 1 -72 88 l0 68 48 11 c71 15 173 29 312 41 183 16 190 18 190 40 0 11
-7 20 -15 20 -20 0 -19 10 4 39 15 19 30 25 74 29 43 3 56 8 56 21 0 9 1 23 2
31 1 8 1 39 1 69 l-2 54 -126 -6 c-127 -5 -127 -5 -149 21 l-22 25 -174 -2
c-96 -1 -207 -6 -248 -12 -41 -5 -75 -8 -77 -6 -1 1 -4 29 -5 62 l-4 60 108 9
c103 9 109 8 128 -12 26 -28 41 -28 77 3 24 20 41 25 83 25 46 0 56 -4 75 -27
17 -21 26 -25 34 -17 14 14 -2 51 -52 121 -21 29 -38 54 -38 57 0 3 -22 43
-50 90 -27 47 -50 89 -50 94 0 5 -11 19 -25 32 -14 13 -25 30 -25 37 0 8 -7
16 -15 19 -8 4 -15 14 -15 23 0 22 -57 111 -71 111 -6 0 -9 7 -5 15 3 9 -3 24
-14 35 -11 11 -20 23 -20 26 0 3 -7 12 -16 21 -8 9 -13 22 -10 30 4 9 -1 17
-14 20 -11 3 -21 10 -22 17 0 6 -2 16 -2 22 -1 6 -13 29 -26 50 -14 21 -30 46
-35 55 -6 10 -25 38 -42 63 -18 26 -33 51 -33 55 0 5 -7 14 -15 21 -11 9 -15
9 -15 1 0 -14 15 -40 58 -103 35 -53 37 -58 21 -58 -14 0 -59 51 -59 67 0 6
-17 38 -39 70 -21 32 -46 72 -55 88 -25 45 -40 69 -48 75 -4 3 -14 22 -23 43
-8 20 -21 37 -28 37 -7 0 -20 15 -28 33 -22 45 -120 211 -128 217 -4 3 -13 20
-20 38 -8 17 -17 32 -22 32 -5 0 -9 4 -9 10 0 5 -24 47 -53 92 -29 46 -69 109
-88 142 -19 32 -42 70 -51 85 -10 14 -22 35 -27 47 -5 11 -16 27 -23 35 -16
16 -112 178 -161 271 -98 185 -159 291 -178 308 -11 10 -108 177 -119 204 -6
16 -20 42 -32 59 -18 26 -82 144 -233 433 -85 163 -133 197 -225 157z m98
-1517 c15 -7 45 -16 67 -20 22 -4 56 -13 75 -21 19 -7 76 -26 125 -41 87 -27
223 -90 256 -120 8 -7 20 -14 25 -14 5 0 40 -33 77 -74 73 -79 145 -182 167
-238 7 -18 21 -51 31 -73 22 -48 59 -154 59 -169 0 -12 -105 -162 -133 -190
-9 -10 -17 -21 -17 -25 0 -23 -203 -209 -275 -251 -22 -13 -46 -32 -53 -42 -7
-10 -18 -18 -24 -18 -7 0 -21 -8 -32 -19 -33 -29 -94 -58 -201 -94 -114 -39
-182 -52 -187 -35 -3 8 -23 8 -71 -2 -54 -10 -81 -10 -130 0 -86 17 -207 57
-239 81 -15 10 -30 19 -33 19 -4 0 -21 11 -38 24 -18 14 -43 29 -57 35 -40 18
-152 98 -170 123 -11 15 -165 183 -209 228 -57 59 -114 145 -128 194 -10 32
-9 43 4 62 8 13 19 24 23 24 5 0 11 14 15 30 4 17 21 46 38 64 18 19 41 51 52
73 54 106 139 216 201 263 11 8 40 32 66 53 25 20 53 37 62 37 8 0 17 4 20 9
9 14 162 67 257 89 95 23 210 41 284 45 28 2 54 4 58 5 4 1 20 -4 35 -12z
m-1488 -1066 c0 -5 -2 -10 -4 -10 -3 0 -8 5 -11 10 -3 6 -1 10 4 10 6 0 11 -4
11 -10z m10 -234 c0 -3 -4 -8 -10 -11 -5 -3 -10 -1 -10 4 0 6 5 11 10 11 6 0
10 -2 10 -4z m3320 -286 c0 -5 -4 -10 -10 -10 -5 0 -10 5 -10 10 0 6 5 10 10
10 6 0 10 -4 10 -10z m60 -16 c0 -8 -4 -12 -10 -9 -5 3 -10 13 -10 21 0 8 5
12 10 9 6 -3 10 -13 10 -21z m-3940 12 c0 -3 -4 -8 -10 -11 -5 -3 -10 -1 -10
4 0 6 5 11 10 11 6 0 10 -2 10 -4z m3915 -46 c3 -5 2 -10 -4 -10 -5 0 -13 5
-16 10 -3 6 -2 10 4 10 5 0 13 -4 16 -10z m12 -166 c-3 -3 -12 -4 -19 -1 -8 3
-5 6 6 6 11 1 17 -2 13 -5z m443 -314 c0 -5 -8 -10 -17 -10 -15 0 -16 2 -3 10
19 12 20 12 20 0z m-140 -129 c0 -11 -49 -21 -55 -10 -3 4 3 10 12 12 30 8 43
7 43 -2z m305 -211 c3 -5 2 -10 -4 -10 -5 0 -13 5 -16 10 -3 6 -2 10 4 10 5 0
13 -4 16 -10z m30 -100 c3 -6 -1 -13 -10 -16 -19 -8 -30 0 -20 15 8 14 22 14
30 1z m-95 -10 c0 -5 -4 -10 -10 -10 -5 0 -10 5 -10 10 0 6 5 10 10 10 6 0 10
-4 10 -10z m110 -20 c0 -5 -4 -10 -10 -10 -5 0 -10 5 -10 10 0 6 5 10 10 10 6
0 10 -4 10 -10z m-110 -450 c0 -5 -5 -10 -11 -10 -5 0 -7 5 -4 10 3 6 8 10 11
10 2 0 4 -4 4 -10z m236 -5 c18 -15 18 -15 -5 -13 -14 2 -26 9 -29 16 -5 17
10 15 34 -3z m180 -202 c-7 -7 -26 7 -26 19 0 6 6 6 15 -2 9 -7 13 -15 11 -17z
m-272 -72 c3 -5 -6 -8 -19 -8 -14 0 -28 3 -31 8 -3 5 6 9 20 9 14 0 27 -4 30
-9z m-4204 -41 c0 -5 -5 -10 -11 -10 -5 0 -7 5 -4 10 3 6 8 10 11 10 2 0 4 -4
4 -10z m-1593 -16 c-3 -3 -12 -4 -19 -1 -8 3 -5 6 6 6 11 1 17 -2 13 -5z
m4063 -1414 c0 -5 -2 -10 -4 -10 -3 0 -8 5 -11 10 -3 6 -1 10 4 10 6 0 11 -4
11 -10z"/>
<path d="M3780 6283 c0 -4 -7 -39 -15 -78 -47 -216 -63 -612 -33 -790 7 -38
11 -82 10 -97 -2 -19 1 -28 12 -28 15 0 25 25 45 113 6 26 16 66 21 90 26 108
33 542 9 604 -5 13 -9 46 -9 73 0 27 -4 52 -10 55 -5 3 -10 17 -10 30 0 21
-20 49 -20 28z m-10 -753 c0 -5 -4 -10 -10 -10 -5 0 -10 5 -10 10 0 6 5 10 10
10 6 0 10 -4 10 -10z"/>
<path d="M3740 5270 c0 -5 5 -10 11 -10 5 0 7 5 4 10 -3 6 -8 10 -11 10 -2 0
-4 -4 -4 -10z"/>
<path d="M3905 5000 c-16 -7 -17 -9 -3 -9 9 -1 20 4 23 9 7 11 7 11 -20 0z"/>
<path d="M4095 7770 c16 -30 30 -50 32 -44 2 7 -8 29 -22 50 -38 57 -41 55
-10 -6z"/>
<path d="M4190 7611 c0 -5 5 -13 10 -16 6 -3 10 -2 10 4 0 5 -4 13 -10 16 -5
3 -10 2 -10 -4z"/>
<path d="M4276 7467 c3 -10 9 -15 12 -12 3 3 0 11 -7 18 -10 9 -11 8 -5 -6z"/>
<path d="M4340 7361 c0 -6 4 -13 10 -16 6 -3 7 1 4 9 -7 18 -14 21 -14 7z"/>
<path d="M4390 7284 c0 -5 7 -18 15 -28 8 -11 15 -16 15 -10 0 5 -7 18 -15 28
-8 11 -15 16 -15 10z"/>
<path d="M4551 7024 c0 -11 3 -14 6 -6 3 7 2 16 -1 19 -3 4 -6 -2 -5 -13z"/>
<path d="M4620 6901 c0 -6 4 -13 10 -16 6 -3 7 1 4 9 -7 18 -14 21 -14 7z"/>
<path d="M4675 6810 c3 -5 8 -10 11 -10 2 0 4 5 4 10 0 6 -5 10 -11 10 -5 0
-7 -4 -4 -10z"/>
<path d="M4771 6634 c0 -11 3 -14 6 -6 3 7 2 16 -1 19 -3 4 -6 -2 -5 -13z"/>
<path d="M4856 6477 c3 -10 9 -15 12 -12 3 3 0 11 -7 18 -10 9 -11 8 -5 -6z"/>
<path d="M4995 6238 c19 -35 52 -93 73 -130 20 -38 40 -68 45 -68 4 0 -6 24
-23 53 -17 28 -39 68 -48 87 -9 19 -20 37 -23 40 -3 3 -14 19 -23 37 -9 17
-21 35 -26 38 -6 4 5 -22 25 -57z"/>
<path d="M5130 6001 c0 -5 5 -13 10 -16 6 -3 10 -2 10 4 0 5 -4 13 -10 16 -5
3 -10 2 -10 -4z"/>
<path d="M5147 5964 c-9 -10 2 -24 18 -24 9 0 12 6 9 15 -6 16 -17 19 -27 9z"/>
<path d="M5175 5920 c-5 -9 -4 -15 3 -18 7 -2 12 -10 12 -18 0 -9 5 -12 10 -9
13 8 13 18 -3 40 -11 14 -16 15 -22 5z"/>
<path d="M5233 5822 c15 -15 27 -36 27 -46 0 -10 5 -14 11 -10 7 4 10 1 7 -7
-3 -8 7 -28 22 -46 15 -17 30 -37 32 -45 3 -7 8 -11 11 -8 9 9 -107 190 -122
190 -10 0 -6 -10 12 -28z"/>
<path d="M5350 5630 c0 -5 5 -10 11 -10 5 0 7 5 4 10 -3 6 -8 10 -11 10 -2 0
-4 -4 -4 -10z"/>
<path d="M1782 5299 c-99 -7 -220 -24 -228 -32 -6 -5 23 -133 35 -155 12 -22
14 -23 31 -7 10 9 23 14 29 11 5 -3 68 -7 140 -7 72 0 131 -5 131 -10 0 -5 7
-9 15 -9 8 0 15 6 15 14 0 8 7 17 16 20 10 4 13 13 9 26 -3 11 -8 39 -11 62
-2 24 -8 44 -14 46 -5 2 -10 15 -10 28 0 19 -5 24 -22 23 -13 -1 -74 -6 -136
-10z m115 -61 c-3 -8 -6 -5 -6 6 -1 11 2 17 5 13 3 -3 4 -12 1 -19z"/>
<path d="M5957 4764 c-25 -33 -15 -56 20 -52 31 3 43 38 23 64 -17 19 -22 18
-43 -12z m26 -20 c-4 -10 -9 -12 -15 -6 -12 12 -1 35 12 27 5 -3 6 -13 3 -21z"/>
<path d="M6057 4599 c-9 -6 -17 -16 -17 -22 0 -16 36 -47 54 -47 14 0 29 37
20 52 -11 18 -40 26 -57 17z"/>
<path d="M6818 4234 c-3 -2 -64 -5 -135 -6 -72 -2 -134 -5 -136 -8 -3 -3 -3
-17 0 -33 5 -25 6 -26 18 -10 8 10 16 15 20 11 9 -8 -17 -48 -31 -48 -7 0 -14
-11 -17 -25 -3 -16 0 -24 7 -22 6 2 31 -2 55 -10 47 -14 171 -17 292 -7 l74 6
-2 70 c-1 38 -3 72 -6 74 -5 6 -134 13 -139 8z m112 -70 c0 -8 -4 -12 -10 -9
-5 3 -10 10 -10 16 0 5 5 9 10 9 6 0 10 -7 10 -16z m-40 -44 c0 -5 -2 -10 -4
-10 -3 0 -8 5 -11 10 -3 6 -1 10 4 10 6 0 11 -4 11 -10z m-113 -16 c-3 -3 -12
-4 -19 -1 -8 3 -5 6 6 6 11 1 17 -2 13 -5z m160 -10 c-3 -3 -12 -4 -19 -1 -8
3 -5 6 6 6 11 1 17 -2 13 -5z"/>
<path d="M6770 3696 c0 -9 5 -16 10 -16 6 0 10 4 10 9 0 6 -4 13 -10 16 -5 3
-10 -1 -10 -9z"/>
<path d="M6730 3559 c0 -6 -7 -9 -15 -6 -8 4 -17 2 -20 -3 -6 -10 6 -14 37
-11 11 2 20 -7 24 -24 5 -20 9 -23 20 -14 19 15 18 25 -6 49 -22 22 -40 26
-40 9z"/>
<path d="M6690 3490 c6 -11 15 -20 21 -20 6 0 6 7 -1 20 -6 11 -15 20 -21 20
-6 0 -6 -7 1 -20z"/>
<path d="M728 3213 c7 -3 16 -2 19 1 4 3 -2 6 -13 5 -11 0 -14 -3 -6 -6z"/>
<path d="M143 3113 c-26 -30 -28 -44 -11 -61 18 -18 60 -14 86 7 28 24 28 32
-1 59 -30 28 -47 27 -74 -5z"/>
<path d="M390 3088 c0 -11 52 -10 70 2 10 6 2 9 -28 7 -23 0 -42 -5 -42 -9z"/>
<path d="M508 3093 c6 -2 18 -2 25 0 6 3 1 5 -13 5 -14 0 -19 -2 -12 -5z"/>
<path d="M5460 2958 c0 -11 18 -15 75 -16 47 -2 75 1 75 8 0 5 -17 10 -37 10
-21 0 -55 3 -75 6 -29 5 -38 3 -38 -8z"/>
<path d="M6038 2948 c17 -8 26 -8 34 0 9 9 4 12 -22 11 -33 0 -34 -1 -12 -11z"/>
<path d="M6123 2943 c9 -2 23 -2 30 0 6 3 -1 5 -18 5 -16 0 -22 -2 -12 -5z"/>
<path d="M6893 2943 c9 -2 23 -2 30 0 6 3 -1 5 -18 5 -16 0 -22 -2 -12 -5z"/>
<path d="M7105 2940 c-19 -8 -19 -9 3 -9 12 -1 22 4 22 9 0 6 -1 10 -2 9 -2 0
-12 -4 -23 -9z"/>
<path d="M6241 2885 c-19 -21 -21 -28 -11 -40 7 -8 23 -15 37 -15 22 0 24 4
21 37 -4 45 -16 50 -47 18z"/>
<path d="M6100 2870 c0 -5 -9 -10 -21 -10 -11 0 -34 -13 -50 -29 -33 -34 -31
-52 13 -93 31 -29 36 -48 13 -48 -12 0 -11 -5 3 -30 9 -16 25 -30 34 -30 18 0
48 47 48 75 0 8 7 15 15 15 8 0 15 -5 15 -11 0 -6 10 -9 23 -7 15 2 23 11 25
29 4 32 -15 41 -58 29 l-31 -9 2 53 c1 29 -1 58 -5 64 -9 15 -26 16 -26 2z"/>
<path d="M2532 2747 c-6 -6 -13 -24 -17 -38 -6 -23 -3 -27 22 -32 35 -7 42 0
50 46 5 34 4 37 -19 37 -14 0 -30 -6 -36 -13z"/>
<path d="M6252 2585 c-12 -13 -19 -31 -16 -40 5 -12 11 -12 44 5 51 26 57 38
25 50 -33 13 -28 14 -53 -15z"/>
<path d="M3663 1430 c-32 -13 -56 -55 -49 -85 6 -22 57 -65 77 -65 20 0 50 40
56 73 11 70 -23 101 -84 77z"/>
<path d="M3535 1254 c-39 -20 -40 -21 -25 -39 21 -25 59 -19 66 11 9 36 -6 46
-41 28z"/>
</g>
</svg>
