<?xml version="1.0" standalone="no"?>
<!DOCTYPE svg PUBLIC "-//W3C//DTD SVG 20010904//EN"
 "http://www.w3.org/TR/2001/REC-SVG-20010904/DTD/svg10.dtd">
<svg version="1.0" xmlns="http://www.w3.org/2000/svg"
 width="438.000000pt" height="493.000000pt" viewBox="0 0 438.000000 493.000000"
 preserveAspectRatio="xMidYMid meet">

<g transform="translate(0.000000,493.000000) scale(0.100000,-0.100000)"
fill="#000000" stroke="none">
<path d="M2803 4489 c-11 -30 -37 -90 -57 -135 -56 -125 -53 -219 8 -259 14
-10 26 -25 26 -35 0 -23 -28 -90 -38 -90 -19 0 -119 44 -137 60 -34 31 -89 60
-113 60 -33 0 -78 -49 -93 -101 -7 -24 -25 -61 -41 -81 -16 -20 -38 -58 -49
-85 -12 -26 -32 -57 -44 -68 -15 -13 -36 -63 -61 -144 -35 -113 -41 -126 -80
-157 -23 -19 -45 -45 -48 -58 -4 -17 -15 -26 -41 -30 -19 -4 -41 -16 -49 -28
-13 -19 -19 -20 -41 -10 -81 37 -98 -30 -25 -98 27 -26 29 -31 18 -54 -9 -20
-9 -29 0 -38 31 -31 -1 -70 -108 -131 -73 -43 -103 -88 -97 -146 6 -59 32 -91
100 -125 57 -28 57 -29 57 -74 l0 -45 -48 7 c-40 5 -54 3 -74 -14 -24 -18 -32
-19 -109 -9 -187 23 -274 56 -316 118 -27 40 -31 130 -11 237 10 58 13 63 33
58 27 -7 32 5 31 74 -1 28 1 52 3 52 3 0 14 -8 25 -19 22 -19 69 -35 78 -25 3
3 -13 23 -36 44 -37 35 -40 41 -28 59 6 12 12 25 12 29 0 5 18 27 40 50 42 45
70 118 70 182 0 24 7 43 20 55 33 30 25 64 -28 115 l-49 47 -7 117 c-4 64 -12
127 -18 141 -28 61 -181 82 -291 40 -14 -6 -17 -1 -17 29 0 30 4 36 20 36 44
0 90 29 105 64 26 62 19 128 -27 245 -23 58 -45 110 -49 115 -4 5 -15 -9 -24
-29 -8 -21 -33 -66 -54 -100 -43 -68 -61 -120 -61 -178 0 -45 24 -91 55 -105
17 -8 20 -17 17 -49 -4 -37 -7 -41 -60 -66 -78 -35 -136 -81 -155 -118 -19
-41 -14 -139 12 -234 19 -67 19 -72 3 -117 -16 -46 -16 -48 4 -75 12 -15 30
-29 42 -31 12 -2 24 -11 27 -21 14 -44 136 -141 178 -141 8 0 26 -11 41 -25
30 -28 29 -44 -5 -104 -23 -39 -20 -47 12 -31 20 11 21 10 15 -6 -4 -11 -13
-46 -21 -79 -47 -210 -18 -299 121 -365 73 -34 223 -70 297 -70 43 0 47 -2 47
-24 0 -14 9 -31 21 -40 12 -8 34 -40 50 -71 l28 -57 -30 -59 c-85 -169 -119
-310 -126 -525 -5 -158 -4 -177 16 -240 26 -79 60 -136 96 -160 17 -11 25 -26
25 -44 0 -15 9 -35 19 -44 25 -22 16 -46 -16 -46 -30 0 -83 -50 -83 -78 0 -13
-17 -32 -47 -51 -57 -38 -220 -196 -228 -222 -3 -10 -14 -21 -25 -24 -10 -3
-30 -15 -44 -26 -28 -22 -35 -64 -16 -100 24 -43 232 -125 395 -153 110 -20
296 -27 385 -16 52 7 109 14 125 15 51 4 167 32 245 60 153 55 188 74 217 114
28 41 18 79 -26 106 -19 11 -57 41 -85 66 -28 25 -74 62 -103 83 -58 41 -240
130 -290 140 -22 5 -33 14 -35 28 -4 31 -49 59 -102 65 -30 4 -47 11 -50 22
-9 32 0 106 17 131 32 49 47 112 47 194 0 95 -11 141 -73 299 -26 65 -54 146
-63 180 -19 71 -23 242 -6 259 6 6 30 10 54 10 24 -1 53 6 65 13 21 14 27 11
87 -34 166 -126 319 -191 451 -191 44 0 95 4 114 10 19 5 40 6 50 1 11 -6 29
-3 54 9 l37 18 -3 -32 c-2 -18 0 -42 4 -54 12 -32 39 -17 39 22 1 81 63 112
150 73 57 -26 198 -29 245 -5 17 8 47 18 68 22 43 8 72 44 64 78 -5 20 13 40
119 132 68 60 127 119 130 132 8 30 -15 70 -85 152 l-60 69 20 41 c15 29 29
43 48 47 51 11 75 48 79 123 4 60 -1 80 -44 197 -26 72 -51 134 -55 138 -4 5
-15 -17 -24 -50 -41 -138 -55 -202 -55 -261 0 -64 20 -132 39 -132 16 0 13
-26 -5 -61 l-15 -30 -52 44 c-68 58 -116 87 -146 87 -16 0 -48 -24 -100 -75
-73 -71 -79 -74 -113 -69 -30 5 -41 2 -62 -19 -14 -15 -26 -34 -26 -44 0 -10
-18 -42 -39 -71 -47 -62 -73 -135 -73 -203 1 -37 -4 -55 -19 -70 -10 -10 -19
-26 -19 -34 0 -15 -13 -18 -100 -19 -34 -1 -45 -5 -48 -19 -3 -12 5 -19 27
-23 17 -4 31 -9 31 -13 0 -9 -72 -28 -133 -36 -92 -12 -233 48 -407 174 -87
62 -95 71 -100 107 -7 47 -16 64 -35 64 -13 0 -42 39 -33 44 64 40 78 53 78
77 0 21 7 28 39 38 54 16 154 85 191 131 17 21 47 47 68 57 29 14 38 24 40 49
2 20 -3 38 -14 49 -16 16 -16 19 0 52 21 43 159 252 232 348 29 39 105 131
169 205 189 219 223 282 174 326 -17 15 -42 20 -133 24 -79 4 -117 10 -134 21
l-22 16 20 44 c11 24 20 51 20 59 0 9 19 24 43 35 34 16 45 28 57 63 14 41 13
49 -24 195 -52 207 -48 200 -73 136z"/>
</g>
</svg>
