<?xml version="1.0" standalone="no"?>
<!DOCTYPE svg PUBLIC "-//W3C//DTD SVG 20010904//EN"
 "http://www.w3.org/TR/2001/REC-SVG-20010904/DTD/svg10.dtd">
<svg version="1.0" xmlns="http://www.w3.org/2000/svg"
 width="420.000000pt" height="420.000000pt" viewBox="0 0 420.000000 420.000000"
 preserveAspectRatio="xMidYMid meet">

<g transform="translate(0.000000,420.000000) scale(0.100000,-0.100000)"
fill="#000000" stroke="none">
<path d="M1895 3243 c-100 -7 -330 -45 -446 -74 -309 -78 -674 -260 -692 -346
-12 -55 -84 -160 -169 -245 l-86 -88 33 0 c131 0 143 -123 35 -340 -37 -74
-96 -166 -155 -245 -27 -35 -20 -31 60 33 205 166 302 173 326 23 13 -84 -23
-285 -90 -501 -24 -78 -13 -67 61 65 73 130 191 305 279 415 84 104 159 181
159 163 0 -6 -45 -168 -100 -359 -55 -191 -98 -349 -96 -352 3 -2 10 7 16 20
18 34 62 78 77 78 28 0 52 -87 83 -300 17 -118 34 -222 37 -230 4 -8 10 15 14
52 10 94 35 142 75 146 26 3 43 -8 110 -69 208 -188 415 -291 648 -320 236
-29 563 37 783 157 172 94 279 200 348 347 21 42 43 77 50 77 8 0 43 -20 79
-44 36 -24 66 -42 66 -39 0 12 -62 92 -99 128 -38 36 -41 43 -41 91 0 77 -33
171 -88 250 -142 202 -439 329 -885 379 -31 4 -55 10 -52 15 8 12 153 48 226
55 214 21 501 -79 754 -262 63 -46 112 -56 135 -28 23 28 24 99 1 175 -20 66
-30 80 -124 180 -56 59 -133 143 -172 186 -78 86 -198 190 -203 175 -2 -5 9
-33 23 -61 15 -29 23 -51 18 -49 -5 2 -51 25 -103 51 -52 25 -151 65 -220 88
-69 22 -131 43 -138 45 -10 4 -10 11 2 34 43 82 129 106 381 105 233 -1 461
-48 654 -135 35 -16 66 -27 68 -25 7 6 -150 148 -231 208 -377 281 -860 408
-1411 371z m1271 -1087 c34 -34 47 -86 22 -86 -22 0 -76 38 -94 64 -38 59 18
76 72 22z m-806 -121 c378 -70 675 -259 730 -464 6 -23 9 -45 7 -48 -3 -2 -25
6 -48 18 -24 12 -102 46 -172 75 -191 79 -228 115 -174 172 l22 24 -197 -4
c-211 -3 -230 1 -209 41 21 38 -5 22 -90 -55 -110 -98 -129 -109 -177 -93 -51
16 -172 81 -172 92 0 17 90 137 153 204 l62 66 90 -6 c49 -4 128 -13 175 -22z
m-355 -365 c146 -55 355 -147 423 -187 24 -13 44 -23 45 -21 32 61 67 71 232
65 137 -6 218 -18 300 -44 76 -24 78 -27 50 -83 -59 -117 -200 -241 -330 -289
-67 -25 -208 -51 -279 -51 -82 0 -236 27 -296 52 -216 88 -330 225 -338 402
-4 68 10 173 25 199 8 14 35 7 168 -43z"/>
</g>
</svg>
