<?xml version="1.0" standalone="no"?>
<!DOCTYPE svg PUBLIC "-//W3C//DTD SVG 20010904//EN"
 "http://www.w3.org/TR/2001/REC-SVG-20010904/DTD/svg10.dtd">
<svg version="1.0" xmlns="http://www.w3.org/2000/svg"
 width="920.000000pt" height="506.000000pt" viewBox="0 0 920.000000 506.000000"
 preserveAspectRatio="xMidYMid meet">

<g transform="translate(0.000000,506.000000) scale(0.100000,-0.100000)"
fill="#000000" stroke="none">
<path d="M2348 4855 c-70 -71 -96 -123 -99 -200 -2 -70 12 -99 69 -139 29 -20
48 -25 84 -24 47 2 84 -18 363 -197 28 -18 105 -66 172 -108 66 -42 159 -100
205 -129 211 -136 451 -290 537 -344 69 -44 98 -69 112 -96 23 -46 24 -91 3
-124 -29 -43 -122 -102 -223 -140 -155 -60 -211 -92 -276 -158 -33 -34 -66
-73 -73 -87 -13 -24 -11 -30 22 -73 19 -26 43 -63 52 -82 19 -39 45 -56 52
-33 3 8 20 29 39 47 40 37 86 43 103 13 27 -51 -3 -118 -83 -188 -20 -18 -37
-36 -37 -40 0 -4 13 -15 29 -24 20 -12 30 -27 34 -53 4 -23 17 -48 36 -65 17
-16 31 -35 31 -43 0 -8 -26 -25 -57 -38 -32 -13 -78 -34 -103 -48 -78 -44
-252 -165 -257 -179 -3 -7 0 -27 7 -44 11 -26 10 -32 -8 -52 -27 -29 -53 -92
-46 -111 3 -8 17 -22 30 -31 13 -8 24 -25 24 -36 0 -38 -577 -684 -647 -726
-60 -35 -134 -33 -173 6 -33 33 -90 108 -90 120 0 6 -4 11 -8 11 -11 0 -124
174 -159 244 -15 31 -30 56 -33 56 -11 0 -27 -16 -53 -51 -87 -116 -31 -367
116 -528 39 -42 84 -106 109 -153 53 -103 77 -131 126 -147 59 -20 104 -1 178
73 42 42 73 86 99 141 36 74 56 97 250 290 269 269 503 490 518 490 6 0 15
-11 18 -25 37 -135 51 -170 67 -170 26 0 35 10 77 75 51 82 201 227 310 301
225 153 473 259 818 349 243 63 782 166 947 181 82 8 131 21 114 32 -16 10
-36 52 -25 52 5 0 28 16 51 35 40 33 40 35 20 47 -11 7 -20 16 -20 21 0 11
485 7 580 -5 225 -27 349 -71 444 -157 45 -40 63 -51 90 -51 74 0 114 35 120
106 2 22 23 76 50 126 37 69 56 92 89 112 71 42 108 87 158 192 26 56 61 117
78 137 l31 34 -20 26 c-14 18 -26 24 -38 20 -36 -14 -125 -86 -143 -117 -15
-26 -36 -39 -92 -61 -109 -42 -177 -78 -284 -151 l-98 -66 -130 11 c-71 6
-141 13 -155 16 -14 2 -54 9 -90 14 -204 30 -500 73 -530 77 -91 12 -100 15
-100 33 0 10 7 24 16 32 14 12 14 14 -5 21 -12 4 -33 3 -46 -2 -73 -28 -389
-89 -401 -78 -2 2 15 26 36 53 22 28 40 53 40 58 0 16 -52 4 -190 -43 -133
-46 -152 -50 -238 -50 -74 0 -94 3 -99 15 -9 25 22 50 84 69 98 31 110 40 133
105 12 33 35 72 51 87 16 15 29 31 29 35 0 4 -29 12 -65 19 -36 7 -65 14 -65
16 0 3 11 26 25 53 27 53 33 57 103 67 39 5 57 2 90 -15 23 -12 48 -30 54 -41
25 -40 44 -23 92 82 52 112 53 136 8 175 -15 13 -43 28 -62 33 -119 32 -335
39 -475 15 -86 -15 -125 -13 -125 6 0 5 28 38 63 72 40 41 116 96 219 160 223
138 304 201 460 356 l137 136 -8 38 c-16 67 -33 76 -186 99 -125 18 -497 16
-591 -4 -99 -20 -140 -7 -220 70 -7 6 -17 12 -22 12 -5 0 -15 7 -22 15 -32 39
-127 0 -170 -70 -18 -29 -27 -35 -44 -30 -120 35 -197 29 -300 -21 -106 -52
-167 -118 -189 -203 -12 -47 -20 -57 -82 -104 -55 -41 -76 -65 -101 -114 -52
-99 -33 -122 116 -142 59 -8 100 -9 135 -2 46 9 51 8 65 -11 37 -52 75 -79
131 -95 113 -31 54 -60 -100 -50 -94 6 -219 42 -288 83 -24 14 -43 21 -43 17
0 -4 -4 -3 -8 4 -4 6 -32 22 -62 36 -73 34 -229 120 -299 165 -31 20 -58 37
-61 37 -3 0 -19 10 -37 23 -17 12 -36 22 -41 22 -6 0 -12 3 -14 8 -1 4 -37 29
-78 57 -88 58 -154 107 -158 118 -2 4 -10 7 -17 7 -7 0 -26 12 -42 28 -15 15
-39 33 -53 40 -14 7 -41 27 -60 45 -19 18 -48 40 -63 50 -38 24 -44 45 -20 62
33 23 46 66 33 113 -6 23 -16 45 -23 49 -25 15 -166 61 -171 55 -3 -3 -6 0 -6
6 0 25 -30 10 -82 -43z m2861 -409 c10 -11 4 -20 -31 -49 -65 -53 -281 -197
-391 -262 -168 -98 -475 -234 -497 -220 -13 8 -13 35 -1 35 20 0 72 54 87 89
8 20 14 54 13 76 -2 56 -1 65 14 65 24 0 114 48 150 80 40 35 48 75 25 125 -6
14 -9 27 -7 30 3 2 67 12 144 23 181 24 477 29 494 8z m-1343 -1660 c-17 -27
-74 -62 -84 -52 -3 3 2 14 10 23 8 10 28 40 44 68 l28 49 10 -32 c7 -24 5 -37
-8 -56z"/>
</g>
</svg>
