<?xml version="1.0" standalone="no"?>
<!DOCTYPE svg PUBLIC "-//W3C//DTD SVG 20010904//EN"
 "http://www.w3.org/TR/2001/REC-SVG-20010904/DTD/svg10.dtd">
<svg version="1.0" xmlns="http://www.w3.org/2000/svg"
 width="564.000000pt" height="564.000000pt" viewBox="0 0 564.000000 564.000000"
 preserveAspectRatio="xMidYMid meet">

<g transform="translate(0.000000,564.000000) scale(0.100000,-0.100000)"
fill="#000000" stroke="none">
<path d="M3411 5054 c-19 -8 -51 -30 -72 -49 -22 -19 -44 -35 -51 -35 -6 0
-21 -9 -33 -20 -20 -19 -28 -20 -116 -10 -747 78 -1496 -240 -1956 -830 -246
-317 -407 -712 -453 -1118 -18 -150 -8 -456 19 -605 24 -129 77 -324 110 -401
12 -27 19 -51 17 -54 -15 -14 -60 14 -92 58 -48 66 -96 68 -113 5 -5 -21 -16
-31 -39 -37 -43 -11 -41 -31 9 -109 44 -68 354 -379 377 -379 8 0 27 14 43 31
l28 30 43 -57 c24 -31 70 -88 102 -126 64 -75 62 -67 31 -140 -5 -13 2 -26 24
-45 54 -48 33 -93 -51 -108 -56 -10 -103 9 -123 51 -9 20 -14 45 -11 57 11 47
0 49 -93 19 -100 -32 -151 -97 -166 -214 -3 -25 -13 -52 -21 -59 -8 -7 -58
-15 -114 -18 -96 -6 -100 -7 -134 -40 -40 -39 -50 -69 -17 -51 35 18 101 11
158 -16 52 -26 54 -26 97 -10 23 9 67 37 96 62 30 25 65 50 78 55 41 16 105
10 157 -15 57 -27 75 -43 125 -108 19 -26 53 -57 75 -70 80 -46 208 -19 279
58 l35 38 41 -19 c58 -26 134 -25 190 2 38 19 47 21 65 9 30 -19 208 -90 303
-120 331 -106 732 -126 1087 -55 802 160 1456 766 1678 1554 56 197 79 363 81
564 3 505 -144 954 -445 1356 -70 95 -94 122 -190 221 l-60 60 45 32 c54 39
86 88 86 133 0 30 33 119 43 119 3 0 21 -7 42 -16 43 -17 74 -10 138 32 21 14
60 28 88 31 27 3 49 9 49 13 0 9 -55 30 -76 30 -24 0 -15 -20 9 -21 17 -1 16
-3 -8 -8 -16 -5 -58 -23 -92 -41 l-63 -33 -42 17 -43 17 -26 -31 c-14 -16 -28
-30 -32 -30 -15 0 -107 73 -107 84 0 21 37 48 61 44 31 -4 47 -32 29 -53 -13
-16 -15 -16 -26 0 -7 9 -15 12 -18 7 -3 -5 3 -17 13 -26 18 -17 20 -17 40 3
26 26 27 45 1 71 -24 24 -51 25 -90 5 -38 -20 -46 -53 -31 -131 11 -55 11 -66
-5 -99 -20 -42 -86 -89 -147 -106 -53 -14 -57 -5 -10 20 22 11 56 38 76 60 44
48 47 79 17 166 -30 87 -27 134 13 179 65 76 161 58 271 -49 57 -57 70 -65
103 -65 l38 1 -36 18 c-19 9 -55 38 -78 64 -23 25 -66 58 -94 72 -105 52 -235
21 -295 -71 -26 -40 -34 -42 -51 -10 -18 33 -86 68 -135 70 -26 1 -53 10 -75
25 -26 19 -46 24 -91 24 -71 -1 -112 -22 -147 -74 -14 -22 -31 -38 -37 -37
-84 25 -163 52 -170 59 -6 5 -1 24 12 48 22 38 29 105 14 127 -23 35 -102 44
-161 18z m137 -32 c6 -9 12 -28 12 -42 0 -31 -48 -111 -82 -134 -56 -41 -160
-97 -171 -93 -7 2 6 13 28 24 22 12 49 30 59 42 11 12 25 21 32 21 25 0 84 66
84 94 0 40 -17 66 -43 65 l-22 0 23 -11 c12 -6 25 -23 29 -36 5 -21 -1 -32
-30 -59 -42 -38 -78 -42 -107 -13 -22 22 -26 76 -7 100 50 62 160 86 195 42z
m-232 -89 c6 -37 27 -71 52 -83 l27 -12 -29 -23 c-49 -39 -149 -95 -191 -107
-56 -15 -25 -22 38 -8 81 18 156 50 229 96 72 46 70 46 161 12 l28 -11 -31
-19 c-17 -10 -38 -34 -46 -53 -10 -24 -21 -35 -35 -35 -30 0 -70 -23 -130 -76
-62 -53 -135 -91 -196 -100 -24 -3 -43 -10 -43 -14 0 -13 93 -47 147 -54 39
-5 64 -2 104 14 29 11 53 19 54 17 1 -1 10 -22 21 -47 28 -65 90 -123 160
-150 82 -30 190 -25 258 13 36 20 52 24 66 17 32 -17 67 -11 100 17 l32 26 46
-16 c58 -21 101 -21 177 -2 l59 16 69 -68 c331 -327 547 -765 613 -1248 24
-180 16 -484 -19 -665 -64 -329 -182 -607 -375 -880 -85 -121 -310 -352 -430
-442 -381 -287 -788 -431 -1257 -445 -328 -10 -621 45 -922 173 -49 20 -90 39
-92 40 -2 2 2 17 9 34 7 16 12 49 12 72 -1 34 6 49 33 79 59 66 69 162 25 248
-24 47 -69 77 -132 86 -45 7 -48 9 -48 37 0 42 -34 103 -76 135 -30 22 -49 28
-106 31 -92 6 -152 -12 -199 -59 -42 -42 -56 -89 -40 -132 10 -25 9 -27 -16
-27 -14 0 -44 -5 -66 -12 -46 -14 -41 -19 -174 156 l-74 99 31 15 c57 28 74
65 80 177 l6 100 67 106 c103 165 164 298 187 410 20 99 37 149 52 149 4 0 8
-8 8 -19 0 -10 6 -23 13 -29 15 -13 126 -52 147 -52 29 0 119 -49 162 -87 24
-22 62 -45 85 -51 56 -17 137 -84 238 -201 98 -112 99 -114 121 -356 8 -88 15
-166 16 -172 1 -7 -7 -28 -17 -46 -22 -42 -16 -74 25 -117 20 -22 36 -31 49
-27 11 3 29 -2 41 -10 13 -9 33 -13 49 -10 23 5 39 -6 116 -79 126 -119 122
-118 256 -101 l110 15 147 150 c147 150 308 282 344 282 11 0 28 -4 38 -10 20
-11 60 -106 60 -143 0 -12 9 -35 20 -52 11 -16 20 -44 20 -62 0 -36 22 -49 68
-38 43 9 142 106 142 139 0 15 -21 68 -47 118 -45 88 -46 95 -50 190 -3 109
-18 152 -58 170 -33 15 -69 -10 -85 -56 -11 -35 -12 -35 -59 -29 -62 7 -84 -5
-127 -73 -79 -123 -107 -141 -321 -194 -67 -16 -125 -30 -130 -30 -4 0 -6 27
-5 61 3 52 0 66 -22 100 -22 33 -30 38 -51 33 -23 -6 -25 -3 -25 29 0 23 -10
46 -30 72 -16 21 -30 48 -30 60 0 63 46 245 62 245 5 0 30 -20 57 -45 53 -50
71 -93 72 -176 0 -83 17 -122 59 -136 61 -21 114 -2 200 71 65 56 102 64 189
43 72 -17 96 -11 106 25 3 13 20 51 37 86 24 48 29 65 19 75 -9 9 -16 9 -31
-1 -27 -16 -78 -15 -130 3 -55 20 -59 19 -71 -8 -45 -100 -230 -58 -217 49 3
27 7 30 103 55 55 14 114 32 130 39 28 11 34 9 112 -43 114 -77 179 -101 279
-101 76 -1 85 1 180 48 54 27 117 51 140 54 56 6 112 -21 130 -64 8 -18 23
-39 34 -47 11 -7 27 -30 35 -50 8 -20 18 -37 22 -37 3 0 3 29 -1 66 -6 61 -10
68 -58 120 -70 73 -105 83 -201 54 -83 -25 -167 -40 -167 -30 0 4 25 20 55 35
30 16 61 35 68 44 10 11 18 69 26 171 6 85 19 210 28 277 l17 123 34 6 c27 5
37 14 48 41 8 19 26 38 39 43 68 26 -9 191 -119 255 -22 13 -70 32 -106 41
-36 10 -69 21 -73 25 -5 4 17 15 50 24 32 9 72 28 90 41 39 29 54 30 79 3 25
-28 67 -49 97 -49 34 0 60 31 52 63 -9 34 39 124 77 143 51 27 62 20 55 -36
-7 -57 0 -62 30 -22 71 97 101 217 69 284 -23 48 -54 60 -135 52 -77 -7 -93 3
-97 64 -1 20 -2 38 -3 40 -1 1 -19 -7 -42 -18 -75 -39 -127 -5 -79 50 11 13
20 25 20 28 0 3 -29 2 -64 0 -80 -7 -169 -47 -248 -111 -46 -38 -62 -46 -85
-41 -28 5 -28 6 -28 87 0 45 -4 91 -8 102 -8 20 -9 20 -23 1 -8 -11 -14 -30
-14 -43 0 -29 -45 -53 -100 -53 -56 0 -95 37 -86 83 8 41 33 77 52 77 9 0 28
-7 44 -16 31 -19 65 -12 56 11 -6 18 10 30 20 14 10 -17 24 10 24 46 0 36 -18
68 -27 46 -10 -25 -43 -51 -64 -51 -11 0 -29 10 -39 23 -18 21 -20 21 -36 5
-9 -9 -29 -38 -43 -65 -44 -80 -141 -125 -196 -89 -54 36 -7 136 64 136 21 0
42 10 63 31 l33 31 -30 -8 c-16 -5 -52 -9 -80 -9 -59 -1 -77 -10 -130 -64 -42
-44 -56 -49 -75 -26 -18 22 -35 19 -73 -15 -44 -38 -71 -40 -65 -5 3 14 3 25
1 25 -16 0 -64 -38 -69 -55 -7 -20 -48 -66 -153 -170 -50 -51 -53 -57 -48 -91
9 -52 -6 -74 -48 -74 -19 0 -35 -3 -35 -6 0 -3 15 -32 33 -65 30 -56 35 -60
94 -80 55 -18 62 -23 53 -39 -5 -10 -25 -28 -44 -39 -26 -16 -43 -20 -78 -15
-49 7 -64 -3 -74 -53 -7 -36 8 -43 94 -43 45 0 52 -3 52 -19 0 -34 -86 -55
-225 -55 -195 0 -277 30 -292 107 -5 25 -9 28 -32 24 -22 -5 -32 1 -55 30 -37
45 -59 117 -51 165 6 36 6 37 -29 43 l-35 7 21 42 c34 68 116 181 147 204 40
29 88 28 145 -4 35 -20 53 -24 78 -19 49 11 60 24 54 60 -4 19 0 43 9 62 12
24 13 37 5 59 -25 67 -128 143 -193 144 -39 0 -80 -43 -151 -160 -38 -61 -92
-129 -151 -190 -51 -52 -110 -115 -131 -140 -37 -45 -44 -48 -76 -35 -26 11
-36 -27 -24 -91 8 -49 7 -56 -12 -77 -12 -13 -22 -33 -22 -44 0 -61 169 -203
295 -247 85 -31 180 -50 344 -70 68 -9 126 -18 130 -21 9 -10 -22 -25 -52 -25
-57 0 -125 -57 -167 -140 -27 -53 -26 -70 6 -70 24 0 26 -3 20 -27 -22 -93
-20 -111 14 -143 46 -43 29 -60 -56 -60 -50 0 -64 -3 -64 -15 0 -21 -7 -19
-60 15 -58 37 -210 192 -210 214 0 21 -47 66 -68 66 -9 0 -24 -7 -34 -17 -15
-13 -22 -14 -44 -4 -32 14 -68 -5 -86 -45 -11 -24 -15 -25 -67 -19 -129 14
-156 11 -200 -20 -57 -39 -99 -83 -121 -125 -9 -19 -32 -98 -50 -175 -45 -194
-157 -583 -175 -612 -9 -12 -19 -23 -23 -23 -4 0 -32 16 -62 35 -30 19 -60 35
-66 35 -13 0 -94 238 -119 347 -86 389 -66 808 57 1168 89 260 202 466 375
680 291 361 689 614 1149 731 73 18 172 39 220 46 95 14 538 18 586 5 15 -4
30 -16 33 -27 4 -12 16 -29 27 -40 11 -10 17 -23 13 -30 -11 -17 -85 -62 -145
-87 -48 -20 -51 -23 -25 -23 58 0 177 67 216 121 l21 30 -24 -6 c-17 -4 -30 1
-47 19 -28 30 -22 60 17 80 29 15 35 14 38 -11z m648 -53 c35 -13 58 -53 58
-100 -1 -72 -42 -119 -103 -120 -65 0 -103 67 -62 112 18 20 73 24 91 6 16
-16 15 -55 0 -61 -10 -4 -10 -6 0 -6 7 -1 18 10 24 24 10 23 8 29 -14 52 -22
21 -32 25 -62 19 -36 -7 -76 -46 -76 -75 0 -32 38 -79 74 -91 31 -10 42 -9 74
7 46 22 82 88 82 150 0 40 2 43 26 43 59 0 134 -63 134 -113 0 -24 19 -31 26
-10 16 51 39 94 60 114 33 31 38 20 12 -28 l-22 -41 28 -99 c28 -98 28 -100
11 -137 -12 -24 -38 -51 -71 -73 -45 -30 -60 -35 -98 -32 -68 6 -35 -20 35
-28 96 -10 201 53 228 138 9 27 8 45 -3 82 -8 26 -11 47 -8 47 4 0 28 -16 54
-35 71 -52 76 -103 15 -172 -70 -80 -258 -128 -351 -89 -38 16 -38 16 -73 -15
-24 -21 -43 -29 -61 -27 -40 5 -40 34 0 51 35 15 95 73 86 82 -3 3 -25 -14
-49 -37 l-43 -43 -8 53 c-11 76 -32 119 -69 141 -104 63 -229 12 -229 -95 0
-38 6 -51 38 -84 46 -49 85 -58 130 -31 52 33 42 93 -16 90 -12 0 -10 -3 6
-10 48 -19 2 -85 -49 -72 -11 3 -27 16 -35 29 -21 32 -1 71 49 97 96 50 181
-42 124 -134 -39 -63 -191 -85 -276 -40 -77 41 -123 102 -142 191 -6 27 -13
50 -16 50 -4 0 -38 -17 -77 -39 -77 -41 -141 -55 -196 -42 l-35 8 30 7 c67 17
114 41 189 97 85 65 119 78 148 60 22 -13 42 -5 34 14 -5 14 25 45 63 65 13 6
48 10 79 8 l57 -3 5 41 c6 42 39 94 68 106 25 10 77 9 106 -2z m-163 -36 c-12
-15 -21 -33 -21 -40 0 -7 -4 -24 -10 -38 -8 -22 -13 -24 -33 -17 -31 12 -92
-2 -129 -29 -22 -16 -28 -17 -28 -6 0 40 73 73 135 62 30 -6 34 -4 44 26 12
34 38 68 53 68 5 0 0 -12 -11 -26z m106 -290 c33 -25 44 -51 17 -39 -68 30
-152 6 -189 -52 -25 -41 -31 -41 -39 -2 -7 38 18 87 55 107 34 18 124 10 156
-14z m-408 -61 c7 -27 24 -68 38 -93 l26 -45 -28 25 c-15 14 -38 46 -51 73
-13 26 -26 47 -28 47 -2 0 -29 -11 -61 -25 -32 -14 -59 -24 -62 -22 -4 5 136
86 148 87 4 0 12 -21 18 -47z m402 -765 c1 -7 3 -20 4 -28 1 -8 3 -21 4 -28 1
-10 20 -12 74 -10 69 3 72 2 75 -20 5 -34 -16 -79 -51 -108 -24 -21 -37 -24
-66 -19 -29 5 -45 0 -83 -24 -27 -17 -48 -35 -48 -40 0 -17 -31 -41 -52 -41
-11 0 -22 8 -25 20 -7 26 -17 25 -83 -10 -143 -74 -190 -91 -190 -66 0 8 14
19 31 25 27 9 30 14 24 40 -7 33 9 44 54 35 22 -5 32 -1 45 17 9 13 16 30 16
39 0 9 9 32 19 53 27 52 7 57 -40 11 -32 -31 -43 -36 -56 -28 -34 22 -30 31
43 91 47 39 55 42 105 40 46 -2 61 3 103 31 51 33 95 42 97 20z m-1290 -711
c11 -42 -7 -87 -64 -157 -47 -56 -57 -65 -83 -62 -31 4 -64 28 -64 47 0 7 9
24 20 38 24 30 25 37 5 37 -24 0 -18 16 19 48 23 20 42 29 54 25 13 -3 32 6
53 26 39 35 50 35 60 -2z m1163 -18 c16 -40 16 -42 -9 -96 -14 -31 -25 -57
-25 -58 0 -7 65 -25 88 -25 l25 0 -7 -87 c-9 -115 -24 -200 -42 -236 -18 -34
-49 -47 -114 -47 -41 0 -52 -4 -64 -22 -24 -40 -27 -94 -5 -122 10 -13 19 -38
19 -54 0 -23 7 -33 33 -46 21 -10 26 -16 14 -16 -21 0 -165 58 -172 69 -2 4 0
24 6 44 9 33 6 45 -26 109 -34 70 -35 74 -35 195 l0 123 50 0 c57 0 66 11 77
85 4 33 13 51 30 63 58 40 94 76 99 101 9 35 23 61 33 61 5 0 16 -18 25 -41z
m-461 -330 c18 -32 21 -66 11 -118 -8 -38 -18 -39 -32 -3 -19 48 -24 81 -18
117 8 43 16 44 39 4z m-1567 -1174 c50 -21 68 -69 60 -162 l-6 -73 55 0 c80 0
118 -19 144 -72 25 -52 27 -107 6 -148 -20 -38 -43 -50 -101 -50 -41 0 -51 5
-85 39 -60 60 -50 121 20 121 33 0 64 -37 59 -71 -4 -23 -2 -26 9 -17 19 15 9
58 -19 81 -11 10 -37 17 -59 17 -76 0 -102 -64 -54 -134 14 -21 23 -42 19 -47
-3 -5 -24 -19 -46 -30 -47 -24 -101 -20 -164 11 -29 15 -40 17 -45 7 -35 -62
-57 -89 -84 -101 -46 -22 -96 -5 -151 50 -24 24 -57 51 -72 61 -15 10 2 -11
38 -46 63 -60 124 -101 153 -101 22 0 104 77 111 105 7 29 18 31 51 9 14 -9
53 -18 88 -21 55 -4 66 -2 100 21 42 29 67 31 111 13 l29 -12 -27 -32 c-51
-61 -145 -80 -236 -48 -49 17 -53 18 -46 6 11 -17 129 -43 170 -37 55 9 107
40 135 82 34 49 55 46 48 -8 -16 -118 -151 -170 -272 -105 -55 30 -52 31 -87
-33 -33 -59 -146 -88 -222 -56 -18 8 -46 31 -62 52 -63 84 -111 122 -180 143
-76 24 -105 25 -156 7 -21 -8 -38 -12 -38 -10 0 2 12 15 27 29 15 14 23 25 17
25 -6 0 -40 -32 -77 -70 -37 -39 -83 -78 -102 -87 -35 -17 -37 -16 -90 10 -31
15 -67 27 -82 27 -21 0 -24 3 -15 12 8 8 52 14 120 15 97 3 109 5 124 26 10
12 18 29 18 38 0 34 41 147 61 174 21 26 95 65 125 65 8 0 14 -9 14 -21 0 -36
32 -89 63 -106 46 -23 113 -19 182 11 32 15 67 34 77 43 22 20 23 52 3 79 -13
17 -14 16 -4 -14 12 -35 4 -53 -33 -73 -16 -9 -18 -7 -12 15 5 21 0 32 -25 55
-37 35 -39 60 -7 90 42 40 84 42 183 9 57 -19 103 -28 131 -26 48 4 54 -3 17
-20 -36 -16 -92 -15 -154 4 -29 8 -57 14 -63 12 -5 -2 29 -14 76 -26 71 -19
93 -21 126 -12 79 21 127 104 100 171 -24 57 -139 91 -182 52 -24 -21 -23 -42
4 -70 25 -26 56 -30 84 -8 17 13 16 13 -13 3 -27 -10 -35 -9 -52 7 -28 24 -26
43 5 55 43 17 72 11 109 -21 42 -38 45 -70 9 -106 -23 -23 -31 -25 -79 -20
-96 10 -155 61 -155 136 0 40 48 91 101 108 50 16 135 15 175 -2z m94 -141 l0
-42 53 -4 c90 -7 138 -55 151 -148 l6 -45 -20 51 c-11 28 -31 61 -44 73 -30
28 -88 42 -140 34 -35 -5 -39 -4 -33 11 4 10 7 45 7 79 0 44 3 58 10 47 5 -8
10 -34 10 -56z"/>
<path d="M3402 4968 c-7 -7 -11 -21 -11 -32 1 -21 1 -21 6 -1 3 11 10 26 15
33 13 15 6 16 -10 0z"/>
<path d="M3277 4923 c-4 -3 -7 -11 -7 -17 0 -6 5 -5 12 2 6 6 9 14 7 17 -3 3
-9 2 -12 -2z"/>
<path d="M2225 1062 c-71 -14 -135 -84 -135 -149 0 -66 83 -109 155 -79 36 15
40 15 59 -3 50 -45 105 -34 182 39 29 27 57 50 62 50 5 0 28 -7 50 -14 39 -14
67 -6 40 11 -7 4 -26 25 -41 46 -33 44 -50 46 -128 11 -32 -15 -65 -24 -74
-20 -8 3 -24 26 -35 51 -25 59 -57 72 -135 57z m112 -72 c41 -78 53 -80 150
-32 44 22 56 24 77 14 37 -17 32 -32 -7 -25 -35 5 -61 -5 -126 -52 -19 -14
-48 -25 -65 -25 -26 -1 -28 -2 -13 -11 23 -13 64 0 114 38 24 18 32 21 23 9
-30 -38 -93 -76 -126 -76 -25 0 -39 7 -55 29 l-21 29 -32 -19 c-65 -40 -136
-11 -136 56 0 65 66 117 144 113 48 -3 50 -5 73 -48z"/>
<path d="M2206 979 c-31 -24 -33 -49 -7 -73 28 -25 94 -13 121 21 31 39 24 49
-10 13 -24 -26 -35 -31 -67 -28 -32 3 -38 6 -38 27 0 13 10 30 21 38 19 12 24
12 38 -2 9 -9 16 -13 16 -8 0 13 -22 33 -36 33 -6 0 -23 -9 -38 -21z"/>
<path d="M1830 1076 c0 -16 26 -39 37 -34 4 1 -2 13 -14 25 -15 14 -23 18 -23
9z"/>
<path d="M1035 974 c-26 -9 -29 -11 -10 -7 17 3 59 9 95 13 l65 7 -55 1 c-30
0 -73 -6 -95 -14z"/>
<path d="M1530 870 c-14 -11 -30 -20 -37 -20 -6 0 -15 -4 -18 -10 -9 -15 43 7
73 30 13 11 21 20 16 20 -5 0 -20 -9 -34 -20z"/>
</g>
</svg>
