<?xml version="1.0" standalone="no"?>
<!DOCTYPE svg PUBLIC "-//W3C//DTD SVG 20010904//EN"
 "http://www.w3.org/TR/2001/REC-SVG-20010904/DTD/svg10.dtd">
<svg version="1.0" xmlns="http://www.w3.org/2000/svg"
 width="1200.000000pt" height="1600.000000pt" viewBox="0 0 1200.000000 1600.000000"
 preserveAspectRatio="xMidYMid meet">

<g transform="translate(0.000000,1600.000000) scale(0.100000,-0.100000)"
fill="#000000" stroke="none">
<path d="M8063 13515 c-76 -33 -160 -154 -217 -313 -60 -169 -94 -344 -121
-622 -38 -398 -109 -688 -246 -1008 -64 -150 -139 -292 -273 -517 -103 -174
-125 -219 -112 -232 19 -20 233 188 345 335 144 190 258 414 338 662 3 8 20
-67 39 -166 18 -100 90 -445 158 -765 69 -321 137 -651 151 -733 32 -187 40
-217 119 -451 80 -238 95 -275 112 -275 23 0 29 48 29 230 -1 195 -12 283 -60
480 -40 166 -56 256 -150 878 -71 468 -118 811 -147 1077 -21 190 -17 770 5
913 22 137 43 198 79 225 24 18 30 18 58 7 72 -30 183 -183 297 -410 121 -240
193 -526 257 -1010 59 -446 60 -646 5 -1006 -22 -149 -38 -208 -103 -387 -64
-176 -86 -274 -86 -382 0 -80 10 -128 23 -115 3 3 23 51 46 108 22 56 60 133
84 170 102 158 159 287 240 537 82 255 126 496 147 810 37 552 -72 1078 -300
1450 -138 226 -366 450 -518 508 -52 21 -155 21 -199 2z"/>
<path d="M1114 11962 c-119 -42 -201 -142 -376 -455 -193 -345 -249 -479 -252
-592 -3 -149 75 -223 344 -328 63 -24 155 -63 204 -86 50 -23 94 -40 99 -38
11 3 -80 75 -186 146 -101 68 -118 102 -125 249 -8 170 27 326 113 506 88 184
161 280 240 317 137 64 265 -47 449 -389 110 -205 179 -376 231 -576 57 -222
200 -993 210 -1136 15 -217 28 -314 80 -558 148 -709 232 -932 473 -1251 34
-46 59 -88 55 -92 -5 -5 -44 -18 -86 -29 -294 -75 -579 -38 -784 101 -69 47
-202 178 -303 299 -104 126 -419 537 -538 705 -283 398 -373 630 -328 845 19
91 77 214 139 296 57 75 174 187 256 245 33 23 59 44 58 46 -5 4 -213 -70
-279 -100 -157 -70 -302 -195 -365 -313 -70 -131 -87 -329 -44 -499 60 -232
192 -507 384 -795 230 -344 594 -771 777 -909 204 -154 476 -242 745 -242 148
0 175 5 411 79 104 33 221 68 261 78 l71 18 69 -26 c93 -36 117 -40 164 -28
l40 11 -101 96 c-167 159 -305 343 -428 573 -97 181 -285 637 -362 875 -41
127 -130 466 -130 494 0 33 240 -364 435 -718 170 -311 366 -612 480 -738 47
-53 81 -70 71 -35 -15 49 -38 265 -43 402 -27 721 246 1415 762 1938 61 61
108 112 105 112 -4 0 -55 -25 -114 -55 -532 -272 -869 -750 -979 -1385 l-12
-75 -68 85 c-218 273 -420 628 -556 975 -71 181 -214 613 -310 935 -119 400
-143 455 -273 627 -233 310 -496 463 -684 395z"/>
<path d="M4933 11290 c-153 -54 -292 -169 -351 -290 -42 -86 -71 -188 -79
-280 l-6 -75 22 19 c12 11 61 71 108 133 48 62 88 111 90 110 1 -2 -4 -35 -12
-73 -15 -72 -19 -124 -9 -124 3 0 47 29 97 64 154 107 272 156 376 156 l44 0
-69 -49 c-38 -26 -77 -57 -87 -68 -18 -20 -17 -21 15 -26 18 -4 80 -11 138
-18 133 -15 151 -24 65 -34 -120 -13 -121 -8 24 -134 72 -62 138 -119 148
-127 26 -19 8 -17 -35 5 -67 34 -180 64 -217 57 -19 -4 -35 -10 -35 -14 0 -4
35 -33 78 -64 163 -121 502 -269 502 -220 0 4 -21 28 -46 52 -25 25 -64 71
-86 103 -39 57 -92 166 -85 173 2 2 38 13 81 24 93 23 142 46 151 68 8 22 -26
51 -156 130 -158 96 -148 83 -101 139 48 58 92 138 92 168 0 13 -9 33 -19 46
-50 62 -406 19 -595 -72 -51 -24 -54 -24 -29 4 39 42 56 90 57 155 0 34 -4 66
-10 71 -5 6 -29 3 -61 -9z"/>
<path d="M6040 10832 c0 -16 43 -46 245 -172 341 -213 614 -422 843 -644 l114
-112 -43 -29 c-158 -104 -272 -274 -325 -483 -61 -240 -50 -687 22 -879 29
-78 38 -59 54 102 31 322 77 612 117 740 31 99 78 190 144 278 68 90 126 130
200 135 76 6 139 -28 225 -121 107 -116 114 -129 274 -559 92 -248 117 -308
129 -308 23 0 27 143 10 298 -53 492 -261 837 -549 912 -36 10 -55 24 -95 72
-62 74 -199 206 -296 285 -236 191 -526 350 -814 445 -122 40 -255 61 -255 40z"/>
<path d="M7605 8979 c27 -50 55 -178 55 -246 0 -75 -18 -125 -54 -148 -24 -16
-27 -16 -58 2 -37 21 -93 107 -110 168 -6 22 -14 43 -18 48 -14 16 -145 -598
-170 -796 -17 -133 -9 -378 14 -432 17 -40 31 -55 53 -55 24 0 84 63 130 138
26 43 77 125 115 184 37 59 76 125 87 146 31 61 95 255 127 382 62 253 18 540
-96 618 -18 12 -46 22 -62 22 l-29 0 16 -31z"/>
<path d="M3891 8949 c-123 -21 -256 -121 -316 -238 -83 -165 -116 -443 -79
-662 39 -229 153 -474 293 -631 43 -48 80 -65 66 -30 -40 105 -98 295 -110
367 -36 203 -13 465 56 630 96 231 308 294 597 178 290 -116 543 -379 787
-821 37 -67 72 -125 77 -128 19 -12 -16 138 -67 284 -149 430 -425 772 -754
937 -99 49 -259 101 -355 114 -88 12 -119 12 -195 0z"/>
<path d="M6215 8410 c-180 -29 -333 -92 -467 -192 -227 -172 -378 -441 -378
-676 0 -158 85 -362 147 -350 10 2 32 26 50 53 18 28 44 60 58 73 54 47 156
18 246 -69 58 -57 85 -108 104 -201 18 -83 33 -111 78 -139 28 -17 45 -20 127
-16 82 3 117 11 255 56 260 86 414 180 542 330 71 84 144 220 168 316 19 75
19 233 0 305 -52 195 -207 363 -415 446 -147 60 -367 87 -515 64z"/>
<path d="M10275 8194 c-38 -13 -77 -27 -85 -30 -8 -4 68 -23 170 -44 427 -86
672 -177 712 -265 60 -132 -286 -278 -1002 -421 l-185 -37 -196 -100 -195
-101 -27 20 c-14 10 -25 23 -23 29 3 11 210 151 341 230 84 51 93 54 125 45
52 -15 100 -12 145 9 50 23 78 53 104 112 20 45 22 46 113 77 57 19 121 32
167 35 61 4 77 8 98 30 20 20 24 31 19 55 -11 50 -50 77 -107 76 -55 -1 -91
-21 -124 -70 -15 -24 -49 -41 -170 -89 -258 -101 -550 -260 -765 -415 l-55
-40 -50 16 c-78 24 -198 14 -277 -23 -35 -17 -74 -40 -88 -51 l-25 -21 25 -1
c43 0 140 -29 206 -61 59 -28 170 -106 162 -114 -2 -3 -31 3 -63 12 -84 24
-297 23 -385 -1 -74 -20 -230 -92 -230 -106 0 -13 139 -55 262 -80 57 -12 120
-25 141 -31 41 -11 40 -4 21 -126 -6 -43 -61 -89 -129 -108 -44 -13 -70 -14
-140 -7 -136 15 -184 59 -230 206 l-23 71 -21 -50 c-12 -27 -25 -56 -29 -62
-6 -11 -1389 -978 -1635 -1143 -36 -25 -67 -49 -67 -53 0 -4 10 -23 23 -42
l23 -34 155 108 c936 655 1466 1024 1475 1028 7 2 14 -14 18 -41 10 -64 60
-158 106 -200 22 -20 40 -38 40 -41 0 -2 -22 -16 -49 -30 -73 -36 -164 -116
-214 -187 -85 -120 -185 -339 -231 -508 -38 -139 -40 -134 49 -153 75 -17 75
-17 222 14 187 38 388 90 476 123 365 138 591 368 663 673 12 49 15 95 11 168
-4 78 -1 126 17 219 l22 120 199 108 c365 198 352 192 329 166 -40 -43 -58
-91 -59 -153 0 -81 42 -157 110 -200 42 -26 57 -30 119 -30 112 1 224 59 277
143 53 83 33 172 -55 249 -27 24 -68 47 -101 58 -31 9 -55 19 -53 20 4 4 319
125 325 125 3 0 3 -14 -1 -31 -15 -75 28 -235 77 -287 54 -58 175 -87 264 -63
98 27 183 134 183 232 0 40 -5 55 -30 83 -35 40 -117 88 -204 121 l-60 22 100
22 c261 58 463 126 562 191 98 63 120 113 79 183 -77 131 -413 269 -1036 428
-107 27 -206 49 -220 48 -14 0 -57 -11 -96 -25z"/>
<path d="M4046 8150 c-148 -58 -179 -183 -90 -369 116 -246 322 -417 579 -482
73 -19 118 -23 245 -23 184 -1 251 15 300 71 77 87 10 205 -273 479 -136 132
-306 278 -314 271 -1 -2 3 -33 11 -69 13 -62 10 -115 -9 -161 -9 -22 -56 -47
-87 -47 -97 1 -244 158 -289 308 -7 23 -15 42 -18 42 -3 -1 -28 -10 -55 -20z"/>
<path d="M10038 8024 c-14 -10 -35 -33 -46 -52 -16 -29 -40 -44 -138 -90 -110
-50 -124 -54 -187 -53 -81 2 -127 -19 -169 -78 -27 -38 -118 -82 -550 -267
l-77 -33 -36 42 c-20 23 -62 95 -94 162 -68 141 -122 213 -188 252 -42 24 -58
28 -128 28 -117 0 -120 -2 -89 -71 54 -122 69 -276 38 -404 -19 -81 -72 -193
-117 -245 -31 -37 -104 -155 -95 -155 2 0 131 53 286 119 155 65 282 117 282
115 0 -1 -44 -29 -97 -60 -130 -76 -301 -183 -503 -314 -91 -59 -363 -221
-605 -360 -242 -139 -444 -257 -448 -261 -9 -7 20 -59 33 -59 4 0 65 34 134
75 69 41 126 72 126 70 0 -2 -48 -41 -107 -86 -129 -99 -394 -316 -553 -453
-63 -55 -117 -101 -119 -102 -2 -2 4 -15 13 -29 20 -31 1 -44 212 139 934 806
2019 1485 3127 1955 90 39 101 41 134 30 84 -27 185 43 167 116 -16 65 -144
108 -206 69z"/>
<path d="M7506 7481 c-268 -327 -547 -568 -773 -666 -175 -76 -436 -117 -622
-97 -58 6 -108 9 -111 7 -9 -6 -34 -94 -29 -100 2 -2 45 -9 94 -16 138 -18
366 -7 491 25 234 58 373 133 594 316 210 175 317 305 424 517 54 108 66 143
47 143 -6 0 -57 -58 -115 -129z"/>
<path d="M5305 7107 c-16 -8 -60 -35 -97 -61 -80 -56 -173 -99 -246 -115 -29
-6 -110 -11 -180 -11 -321 0 -578 -93 -816 -295 -127 -108 -267 -309 -345
-495 -60 -145 -102 -326 -77 -340 4 -3 36 49 70 115 167 328 351 522 624 659
88 44 228 96 299 111 l33 6 -26 -56 c-15 -31 -32 -80 -40 -108 -17 -63 -18
-221 -3 -283 23 -89 151 -197 251 -210 47 -6 47 -7 57 -55 31 -144 154 -264
299 -294 38 -8 39 -2 8 49 l-24 40 31 54 c45 80 49 191 11 287 -4 11 19 -5 54
-37 34 -31 92 -72 130 -89 57 -28 79 -33 144 -33 43 -1 78 -4 78 -7 0 -5 -374
-643 -384 -656 -1 -1 -71 -14 -156 -28 -85 -14 -223 -37 -306 -51 l-152 -27
20 -59 c11 -33 26 -62 32 -64 7 -3 115 18 241 46 125 27 230 48 233 45 2 -2
-53 -100 -122 -218 l-127 -214 -65 -6 c-83 -8 -142 -35 -197 -90 -51 -50 -93
-144 -74 -163 7 -6 198 -115 425 -243 436 -244 437 -244 515 -217 91 33 150
111 151 201 1 85 -6 96 -89 140 -41 22 -75 43 -75 46 0 4 101 92 225 195 124
104 224 192 222 197 -1 4 -16 17 -33 28 l-31 19 -189 -157 c-104 -86 -211
-174 -238 -197 l-48 -40 -64 33 c-35 18 -64 36 -64 40 0 6 412 352 444 373 11
7 -39 68 -56 68 -4 0 -118 -87 -254 -194 l-246 -193 -91 48 c-50 27 -95 53
-100 58 -4 4 59 117 145 256 l153 248 105 28 c120 31 248 83 321 129 76 49
131 118 199 250 121 234 291 371 528 426 66 15 232 21 293 9 33 -6 35 -5 52
41 21 58 21 59 -92 75 -212 30 -426 -26 -598 -155 -109 -82 -203 -209 -259
-350 -31 -77 -105 -166 -182 -214 -45 -29 -258 -100 -268 -89 -3 2 89 157 203
343 161 262 215 342 241 357 23 14 30 22 21 28 -8 5 -1 12 22 22 19 7 291 120
604 250 314 131 815 339 1115 465 l545 227 11 45 c6 25 10 46 9 48 -1 1 -132
-52 -291 -119 -539 -225 -1375 -563 -1918 -775 -103 -40 -195 -81 -203 -91
-10 -13 -16 -14 -19 -6 -3 7 -34 56 -70 109 -35 53 -64 98 -64 100 0 2 9 4 20
4 11 0 39 10 63 21 58 28 109 20 150 -24 l30 -32 -6 49 c-10 68 -52 141 -106
180 -25 18 -93 57 -151 86 -84 42 -148 76 -178 95 -1 1 12 29 28 62 29 59 44
114 56 215 6 58 27 85 79 103 l40 13 -30 13 c-45 18 -145 22 -180 6z"/>
<path d="M3446 6712 c-142 -106 -368 -451 -444 -677 -52 -155 -68 -359 -37
-480 57 -224 243 -420 489 -516 211 -82 463 -74 672 21 140 63 313 196 373
287 53 80 42 82 -96 14 -210 -103 -399 -143 -572 -121 -406 51 -610 273 -587
640 11 182 56 350 173 639 41 102 73 193 71 203 -3 18 -7 17 -42 -10z"/>
<path d="M6368 5599 c-108 -16 -272 -91 -376 -171 -85 -66 -198 -192 -231
-260 -59 -117 -31 -193 87 -239 46 -18 78 -22 167 -22 94 0 122 4 189 27 134
46 229 123 295 240 88 154 98 331 24 399 -26 23 -97 35 -155 26z"/>
<path d="M7724 5499 c-102 -165 -190 -265 -316 -360 -144 -108 -259 -154 -481
-195 -208 -37 -286 -73 -386 -174 -79 -80 -115 -159 -151 -327 -17 -76 -39
-169 -51 -208 -70 -231 -270 -474 -507 -615 -255 -151 -584 -172 -909 -59
-129 45 -380 172 -515 262 -149 98 -280 227 -371 364 -77 115 -117 199 -162
336 -18 55 -35 95 -38 90 -3 -4 -16 -55 -29 -113 -20 -91 -23 -132 -23 -305 0
-223 10 -292 70 -471 73 -219 175 -385 339 -550 221 -222 463 -364 747 -438
154 -41 244 -49 448 -43 280 9 479 55 696 162 248 122 409 305 494 560 16 50
46 178 66 285 44 237 57 286 102 373 42 79 124 159 198 193 28 13 95 33 150
45 165 35 276 83 431 187 101 68 223 178 297 266 l50 60 -6 181 c-4 130 -11
205 -26 270 -23 99 -69 245 -81 259 -5 4 -21 -11 -36 -35z"/>
<path d="M3022 4826 c-63 -21 -116 -61 -172 -130 -117 -147 -173 -180 -333
-200 -56 -7 -112 -18 -124 -24 -31 -17 -38 -55 -23 -129 24 -122 -9 -148 -207
-163 -154 -11 -193 -22 -238 -61 -49 -44 -58 -85 -40 -194 35 -214 13 -355
-85 -550 -66 -132 -73 -170 -41 -240 25 -56 76 -98 232 -195 194 -120 357
-230 489 -330 165 -125 166 -125 290 -125 121 0 159 11 385 107 198 84 711
340 768 383 63 47 61 69 -8 73 -95 6 -369 -51 -570 -119 -49 -17 -171 -70
-270 -117 -177 -86 -181 -87 -255 -86 -92 0 -132 17 -255 106 -115 84 -235
151 -405 229 -254 115 -269 150 -134 307 105 122 119 154 119 272 0 88 -3 101
-38 178 -77 172 -45 211 185 222 207 11 237 38 215 194 l-11 78 26 23 c25 21
34 23 105 18 72 -5 82 -3 131 23 37 20 80 60 140 129 71 81 100 106 154 134
113 58 231 55 430 -11 54 -17 100 -29 103 -26 29 29 -160 159 -302 209 -76 26
-204 34 -261 15z"/>
<path d="M8000 4760 c0 -5 32 -28 72 -51 39 -23 92 -60 116 -82 41 -39 99
-123 90 -132 -2 -2 -33 5 -68 16 -81 26 -217 35 -290 20 -166 -34 -301 -148
-386 -325 -51 -105 -78 -246 -47 -246 4 0 39 46 78 103 172 253 342 363 505
328 63 -14 138 -50 192 -93 38 -30 40 -30 97 -19 113 22 220 -25 267 -119 41
-79 27 -199 -30 -275 l-24 -31 43 -23 c102 -54 175 -162 175 -259 0 -73 -21
-117 -90 -183 -32 -32 -69 -77 -81 -101 -35 -69 -103 -168 -166 -240 -156
-181 -358 -278 -578 -278 -219 0 -429 71 -740 250 -66 39 -126 70 -133 70 -56
0 118 -222 281 -359 175 -145 324 -225 497 -266 83 -19 247 -19 327 0 231 54
434 234 554 490 38 80 89 248 89 292 0 15 15 29 53 51 197 111 232 368 72 527
-40 40 -101 76 -168 98 -15 6 -13 12 17 52 42 54 56 100 56 180 0 76 -25 130
-79 176 -50 44 -98 59 -184 59 l-65 0 -7 48 c-21 148 -126 264 -282 312 -68
21 -163 27 -163 10z"/>
<path d="M2604 4300 c-28 -11 -54 -48 -54 -78 0 -33 43 -72 80 -72 38 0 80 39
80 74 0 29 -36 72 -65 79 -11 3 -30 2 -41 -3z"/>
<path d="M7913 4285 c-41 -18 -67 -66 -59 -111 8 -41 57 -84 97 -84 106 0 147
128 60 187 -39 26 -54 28 -98 8z"/>
<path d="M8390 4165 c-33 -36 -31 -91 5 -122 82 -71 186 45 112 125 -29 31
-86 30 -117 -3z"/>
<path d="M2739 4017 c-186 -63 -299 -234 -299 -451 0 -157 50 -278 159 -387
189 -188 455 -196 632 -20 193 193 182 531 -26 736 -133 132 -306 177 -466
122z"/>
<path d="M2215 3971 c-25 -11 -51 -40 -59 -68 -11 -34 17 -88 53 -102 109 -46
183 113 76 163 -37 18 -41 18 -70 7z"/>
<path d="M7881 3900 c-113 -41 -202 -123 -257 -235 -175 -360 133 -721 480
-562 28 13 79 50 113 81 180 167 204 454 52 621 -72 78 -139 108 -248 112 -67
3 -98 -1 -140 -17z"/>
<path d="M8543 3701 c-39 -25 -53 -49 -53 -96 0 -49 53 -105 99 -105 72 0 130
65 116 130 -15 69 -103 108 -162 71z"/>
<path d="M2076 3315 c-36 -33 -37 -95 -1 -130 37 -38 95 -35 129 6 35 41 34
83 -3 120 -38 38 -87 39 -125 4z"/>
<path d="M2759 2942 c-27 -24 -33 -36 -32 -67 2 -69 67 -108 130 -78 80 37 60
155 -28 169 -31 5 -42 1 -70 -24z"/>
</g>
</svg>
