<?xml version="1.0" standalone="no"?>
<!DOCTYPE svg PUBLIC "-//W3C//DTD SVG 20010904//EN"
 "http://www.w3.org/TR/2001/REC-SVG-20010904/DTD/svg10.dtd">
<svg version="1.0" xmlns="http://www.w3.org/2000/svg"
 width="194.000000pt" height="259.000000pt" viewBox="0 0 194.000000 259.000000"
 preserveAspectRatio="xMidYMid meet">

<g transform="translate(0.000000,259.000000) scale(0.100000,-0.100000)"
fill="#000000" stroke="none">
<path d="M935 1958 c-42 -15 -119 -72 -158 -119 -24 -28 -53 -46 -103 -64 -38
-15 -84 -35 -102 -46 -18 -10 -39 -19 -45 -19 -7 0 -46 25 -87 56 -140 106
-235 145 -350 143 l-55 0 31 -16 c35 -17 74 -87 74 -133 0 -17 -11 -87 -25
-157 -33 -163 -25 -221 41 -310 l24 -31 -25 -44 c-17 -29 -25 -58 -25 -90 l0
-47 35 15 c23 9 49 12 75 8 l41 -7 -31 -18 c-39 -24 -38 -31 5 -23 45 8 65 -5
185 -123 62 -61 114 -103 150 -120 30 -15 68 -37 83 -50 46 -37 81 -31 136 26
26 27 76 63 111 81 36 18 83 47 105 64 21 17 36 25 32 19 -11 -18 -1 -16 30 4
15 10 33 18 41 18 21 0 46 74 31 92 -7 7 -9 16 -6 20 4 3 2 12 -4 20 -6 7 -8
13 -3 13 5 1 -10 10 -33 21 -24 11 -43 23 -43 28 0 4 11 41 25 81 29 84 31
145 10 216 -24 79 -68 158 -90 164 -40 10 -115 62 -115 79 0 27 7 29 57 20 66
-13 65 -3 -1 16 -56 16 -73 39 -40 52 12 4 12 8 3 13 -21 14 0 60 51 111 48
47 48 49 22 48 -15 0 -40 -5 -57 -11z"/>
<path d="M1672 1277 c-17 -13 -29 -27 -25 -30 3 -4 0 -8 -8 -8 -50 -5 -61 -8
-78 -23 -11 -10 -22 -28 -25 -42 -4 -15 -14 -24 -27 -24 -30 0 -35 -29 -11
-71 12 -21 22 -42 22 -47 0 -5 -17 -14 -38 -20 -20 -6 -53 -23 -71 -37 -31
-22 -36 -23 -51 -10 -21 19 -41 19 -34 0 7 -18 -7 -20 -24 -3 -9 9 -12 6 -12
-15 0 -20 5 -27 19 -27 11 0 23 -5 27 -11 4 -7 22 -9 43 -6 l37 5 -10 -43 c-7
-29 -18 -48 -36 -58 -26 -16 -47 -18 -42 -4 1 5 -5 7 -15 5 -25 -5 -42 -45
-34 -76 9 -34 44 -40 108 -18 53 18 142 13 216 -12 47 -16 49 -16 63 3 26 35
29 67 9 82 -24 17 -35 17 -35 -2 0 -8 -4 -15 -9 -15 -24 0 -16 20 25 63 53 56
44 62 -17 11 -40 -33 -44 -35 -56 -18 -7 10 -13 29 -12 43 l0 26 16 -22 c32
-46 63 -17 63 60 0 39 3 46 28 55 15 6 48 13 75 15 89 9 152 74 145 152 l-3
40 -72 -3 c-65 -3 -73 -1 -83 19 -7 12 -10 34 -8 50 3 18 -1 30 -10 34 -18 7
-14 8 -50 -18z"/>
</g>
</svg>
