<?xml version="1.0" standalone="no"?>
<!DOCTYPE svg PUBLIC "-//W3C//DTD SVG 20010904//EN"
 "http://www.w3.org/TR/2001/REC-SVG-20010904/DTD/svg10.dtd">
<svg version="1.0" xmlns="http://www.w3.org/2000/svg"
 width="835.000000pt" height="640.000000pt" viewBox="0 0 835.000000 640.000000"
 preserveAspectRatio="xMidYMid meet">

<g transform="translate(0.000000,640.000000) scale(0.100000,-0.100000)"
fill="#000000" stroke="none">
<path d="M4150 6360 c0 -6 43 -10 110 -10 67 0 110 4 110 10 0 6 -43 10 -110
10 -67 0 -110 -4 -110 -10z"/>
<path d="M4440 6335 c0 -11 11 -15 40 -15 22 0 40 -4 40 -10 0 -5 18 -13 40
-16 22 -4 40 -10 40 -15 0 -5 18 -9 40 -9 22 0 40 5 40 10 0 6 -18 10 -40 10
-29 0 -40 4 -40 15 0 11 -11 15 -39 15 -22 0 -41 4 -43 9 -1 4 -20 11 -40 15
-31 6 -38 4 -38 -9z"/>
<path d="M4690 6250 c0 -5 16 -10 35 -10 19 0 35 5 35 10 0 6 -16 10 -35 10
-19 0 -35 -4 -35 -10z"/>
<path d="M4790 6230 c0 -5 12 -10 28 -10 21 0 24 2 12 10 -20 13 -40 13 -40 0z"/>
<path d="M4850 6200 c0 -5 16 -10 35 -10 19 0 35 5 35 10 0 6 -16 10 -35 10
-19 0 -35 -4 -35 -10z"/>
<path d="M4927 6183 c-15 -14 -6 -23 23 -23 17 0 30 -4 30 -10 0 -5 11 -12 25
-16 14 -3 25 -10 25 -15 0 -5 11 -9 25 -9 14 0 28 -7 31 -15 4 -8 17 -15 30
-15 13 0 24 -6 24 -12 0 -7 18 -29 40 -48 22 -19 40 -43 40 -52 0 -10 7 -18
15 -18 8 0 15 -7 15 -15 0 -9 9 -15 25 -15 16 0 25 -6 25 -15 0 -8 9 -15 20
-15 12 0 31 -11 44 -25 13 -14 33 -25 45 -25 12 0 21 -6 21 -15 0 -8 7 -15 15
-15 8 0 15 -5 15 -11 0 -6 12 -24 28 -39 42 -45 52 -58 52 -70 0 -5 7 -10 15
-10 8 0 15 -5 15 -11 0 -6 13 -24 29 -40 30 -29 51 -37 51 -19 0 6 -7 10 -15
10 -8 0 -15 7 -15 15 0 8 -4 15 -10 15 -5 0 -12 11 -16 25 -3 14 -10 25 -15
25 -5 0 -9 7 -9 15 0 8 -7 15 -15 15 -8 0 -15 7 -15 15 0 8 -4 15 -10 15 -5 0
-12 11 -16 25 -3 14 -12 25 -20 25 -8 0 -14 5 -14 11 0 15 -22 35 -48 43 -12
4 -22 12 -22 17 0 5 -13 9 -30 9 -20 0 -30 5 -30 15 0 9 -9 15 -25 15 -14 0
-25 5 -25 10 0 6 -7 10 -15 10 -8 0 -15 7 -15 15 0 8 -7 15 -15 15 -8 0 -15 5
-15 11 0 6 -16 25 -35 43 -19 19 -35 38 -35 45 0 6 -7 11 -15 11 -8 0 -15 7
-15 15 0 8 -7 15 -15 15 -8 0 -15 5 -15 10 0 6 -11 10 -24 10 -13 0 -29 7 -36
15 -7 8 -25 15 -40 15 -16 0 -30 4 -32 9 -4 12 -43 23 -51 14z"/>
<path d="M3130 6040 c0 -5 -11 -12 -25 -16 -14 -3 -25 -10 -25 -14 0 -4 -11
-11 -25 -14 -14 -4 -25 -11 -25 -16 0 -6 -9 -10 -20 -10 -11 0 -20 -4 -20 -10
0 -5 -11 -12 -25 -16 -14 -3 -25 -10 -25 -15 0 -5 -11 -9 -25 -9 -16 0 -25 -6
-25 -15 0 -8 -7 -15 -15 -15 -8 0 -15 -4 -15 -9 0 -5 -10 -13 -22 -17 -13 -4
-33 -17 -45 -30 -12 -13 -25 -24 -28 -24 -6 0 -20 -11 -50 -37 -7 -7 -18 -13
-24 -13 -6 0 -11 -7 -11 -15 0 -8 -7 -15 -15 -15 -8 0 -15 -7 -15 -15 0 -8 -7
-15 -15 -15 -8 0 -15 -4 -15 -9 0 -5 -11 -12 -25 -15 -14 -4 -25 -11 -25 -16
0 -6 -7 -10 -15 -10 -8 0 -15 -7 -15 -15 0 -8 -5 -15 -11 -15 -7 0 -22 -11
-35 -25 -13 -14 -30 -25 -39 -25 -8 0 -15 -7 -15 -15 0 -8 -5 -15 -10 -15 -6
0 -32 -22 -59 -50 -27 -27 -54 -50 -60 -50 -6 0 -11 -7 -11 -15 0 -8 -7 -15
-15 -15 -8 0 -15 -5 -15 -11 0 -14 -25 -39 -39 -39 -6 0 -11 -7 -11 -15 0 -8
-7 -15 -15 -15 -8 0 -15 -7 -15 -15 0 -8 -5 -15 -11 -15 -14 0 -39 -25 -39
-39 0 -6 -5 -11 -10 -11 -12 0 -25 -10 -70 -52 -15 -16 -33 -28 -39 -28 -6 0
-11 -7 -11 -15 0 -8 -7 -15 -15 -15 -8 0 -15 -5 -15 -11 0 -14 -55 -69 -69
-69 -6 0 -11 -11 -11 -24 0 -17 -7 -26 -25 -30 -14 -4 -25 -11 -25 -16 0 -6
-7 -10 -15 -10 -9 0 -15 -9 -15 -24 0 -13 -7 -26 -15 -30 -8 -3 -15 -15 -15
-26 0 -11 -4 -20 -10 -20 -5 0 -10 -7 -10 -15 0 -9 -7 -18 -15 -21 -19 -8 -19
-41 -1 -60 8 -8 26 -14 40 -14 13 0 31 -7 40 -15 9 -9 33 -15 64 -15 35 0 52
-4 56 -15 4 -11 20 -15 55 -15 27 0 51 -4 53 -10 2 -5 38 -13 81 -16 42 -4 77
-11 77 -15 0 -5 65 -9 145 -9 145 0 190 12 95 25 -27 4 -50 10 -50 15 0 4 -23
10 -52 12 -29 3 -54 11 -56 17 -2 6 -25 11 -53 11 -27 0 -49 4 -49 10 0 5 -18
13 -40 16 -22 4 -40 10 -40 15 0 5 -13 9 -29 9 -16 0 -36 7 -45 15 -8 8 -19
15 -25 15 -20 0 -11 20 12 25 13 4 196 5 407 3 296 -2 384 -6 388 -15 2 -9 26
-13 73 -13 38 0 69 -4 69 -9 0 -5 23 -12 52 -16 51 -7 78 -23 78 -44 0 -6 7
-11 15 -11 8 0 15 -5 15 -11 0 -6 19 -30 43 -54 23 -25 48 -51 55 -60 18 -21
32 -19 32 5 0 11 -4 20 -10 20 -5 0 -10 16 -10 35 0 24 -5 35 -15 35 -8 0 -15
7 -15 15 0 25 21 17 61 -25 22 -22 48 -40 59 -40 17 0 20 7 20 40 0 22 5 40
10 40 6 0 10 11 10 25 0 20 5 25 24 25 25 0 36 -21 36 -73 0 -28 20 -57 38
-57 6 0 13 -6 16 -12 5 -10 7 -10 12 0 3 6 12 12 20 12 8 0 14 5 14 10 0 6 6
10 14 10 8 0 21 6 28 14 8 7 25 17 38 21 33 10 59 37 42 43 -6 2 -12 8 -12 12
0 13 -86 100 -99 100 -6 0 -11 7 -11 15 0 9 -9 15 -25 15 -16 0 -25 6 -25 15
0 8 -4 15 -10 15 -12 0 -50 32 -50 42 0 5 14 8 30 8 17 0 30 -4 30 -9 0 -5 14
-12 30 -16 17 -4 30 -11 30 -16 0 -5 12 -9 26 -9 22 0 24 3 18 23 -3 12 -11
24 -15 25 -5 2 -9 10 -9 18 0 8 -4 14 -10 14 -5 0 -12 11 -16 25 -3 14 -10 25
-15 25 -5 0 -9 7 -9 15 0 8 -7 15 -15 15 -8 0 -15 4 -15 10 0 5 -18 13 -40 16
-22 4 -40 10 -40 15 0 5 -11 9 -25 9 -14 0 -28 7 -31 15 -4 9 -19 15 -40 15
-19 0 -34 5 -34 10 0 6 -47 10 -120 10 -73 0 -120 -4 -120 -10 0 -5 22 -10 49
-10 28 0 51 -5 53 -11 2 -6 27 -14 56 -17 35 -3 52 -9 52 -18 0 -10 13 -14 40
-14 22 0 40 -4 40 -10 0 -14 -77 -13 -82 1 -5 15 -256 18 -266 3 -4 -7 -64
-14 -147 -18 -77 -4 -155 -9 -172 -12 -29 -6 -33 -3 -33 15 0 17 8 22 40 27
22 4 40 10 40 15 0 5 11 9 25 9 14 0 28 7 31 15 4 8 17 15 30 15 13 0 24 4 24
9 0 5 14 12 30 16 17 4 30 11 30 16 0 5 27 9 60 9 33 0 77 7 97 15 50 21 299
21 327 0 12 -9 42 -15 73 -15 29 0 53 -4 53 -10 0 -5 18 -13 40 -16 22 -4 40
-10 40 -15 0 -5 13 -9 29 -9 16 0 36 -7 45 -15 8 -8 24 -15 35 -15 12 0 21 -4
21 -9 0 -5 12 -12 26 -15 40 -11 54 -30 54 -79 0 -50 7 -77 21 -77 5 0 9 9 9
21 0 11 7 27 15 35 8 9 15 26 15 39 0 24 17 35 56 35 13 0 24 4 24 9 0 4 78
11 173 15 94 4 174 12 175 17 2 5 64 9 139 9 103 0 134 3 131 13 -3 6 -23 13
-46 15 -23 2 -42 7 -42 12 0 4 -51 10 -114 12 -110 3 -115 4 -140 31 -29 31
-36 33 -36 12 0 -8 5 -15 10 -15 6 0 10 -11 10 -25 l0 -25 -130 0 c-71 0 -130
4 -130 9 0 5 -25 12 -55 16 -30 3 -55 11 -55 16 0 5 -23 9 -51 9 -31 0 -56 6
-65 15 -9 8 -33 15 -55 15 -34 0 -39 3 -39 24 0 17 7 26 25 30 14 4 25 11 25
16 0 6 7 10 15 10 8 0 15 7 15 15 0 8 5 15 10 15 6 0 10 5 10 10 0 6 -11 10
-25 10 -14 0 -25 -4 -25 -9 0 -5 -18 -11 -40 -15 -22 -3 -40 -10 -40 -15 0 -5
-11 -12 -25 -15 -14 -4 -25 -11 -25 -16 0 -6 -13 -10 -30 -10 -20 0 -30 5 -30
15 0 8 7 15 15 15 8 0 15 7 15 15 0 8 7 15 15 15 8 0 15 5 15 10 0 6 -20 10
-45 10 -25 0 -45 -4 -45 -10 0 -5 -11 -12 -25 -16 -14 -3 -25 -10 -25 -15 0
-5 -18 -9 -40 -9 -22 0 -40 4 -40 9 0 5 -11 12 -25 15 -14 4 -25 11 -25 16 0
6 -11 10 -25 10 -16 0 -25 6 -25 15 0 8 -7 15 -15 15 -8 0 -15 4 -15 9 0 5
-12 12 -27 16 -15 3 -31 12 -35 18 -4 6 -11 8 -15 3 -4 -5 -2 -11 5 -13 7 -3
12 -21 12 -43 l0 -39 -55 -6 c-30 -4 -55 -11 -55 -16 0 -5 -27 -9 -60 -9 -32
0 -71 -6 -86 -12 -22 -10 -28 -10 -32 0 -2 7 -21 12 -43 12 -21 0 -39 5 -39
10 0 6 -7 10 -15 10 -8 0 -15 -4 -15 -10 0 -5 -9 -10 -21 -10 -11 0 -27 -7
-35 -15 -9 -8 -29 -15 -45 -15 -16 0 -29 -4 -29 -9 0 -5 -11 -12 -25 -15 -14
-4 -25 -11 -25 -16 0 -6 -7 -10 -15 -10 -8 0 -15 2 -15 5 0 9 120 125 128 125
14 0 52 36 52 49 0 14 -43 4 -48 -10 -2 -5 -15 -9 -28 -9 -13 0 -24 -4 -24
-10 0 -5 -12 -13 -27 -16 -30 -8 -53 -26 -53 -43 0 -6 -7 -11 -15 -11 -8 0
-15 -4 -15 -10 0 -5 -11 -12 -25 -16 -14 -3 -25 -12 -25 -20 0 -8 -5 -14 -11
-14 -7 0 -22 -11 -35 -25 -13 -14 -26 -25 -29 -25 -3 0 -5 11 -5 25 0 14 4 25
9 25 5 0 12 14 16 30 4 17 11 30 16 30 5 0 9 11 9 25 0 16 6 25 15 25 8 0 15
5 15 10 0 14 216 230 229 230 6 0 11 7 11 15 0 8 7 15 15 15 8 0 15 4 15 10 0
5 11 12 25 16 14 3 25 11 25 16 0 10 25 38 35 38 3 0 16 11 29 25 13 14 28 25
35 25 6 0 11 7 11 15 0 8 5 15 10 15 12 0 25 10 70 53 15 15 33 27 38 27 5 0
12 7 16 15 3 8 12 15 21 15 9 0 26 11 39 25 13 14 33 25 45 25 12 0 21 6 21
15 0 8 7 15 15 15 8 0 15 7 15 15 0 8 7 15 15 15 8 0 15 5 15 10 0 6 -7 10
-15 10 -8 0 -15 -4 -15 -10z"/>
<path d="M3460 5960 c0 -5 5 -10 10 -10 6 0 10 -7 10 -15 0 -9 9 -15 25 -15
16 0 25 -6 25 -15 0 -8 5 -15 11 -15 7 0 22 -11 35 -25 13 -14 32 -25 44 -25
11 0 20 -7 20 -15 0 -11 11 -15 40 -15 22 0 40 -4 40 -9 0 -5 23 -12 52 -16
51 -7 108 -46 108 -74 0 -6 7 -11 15 -11 8 0 15 -4 15 -10 0 -5 11 -10 24 -10
13 0 26 -7 30 -15 3 -9 18 -15 40 -15 19 0 36 -5 38 -12 3 -8 33 -14 81 -16
66 -4 77 -2 77 12 0 12 10 16 39 16 25 0 41 5 45 15 3 8 17 15 31 15 14 0 25
5 25 10 0 6 12 10 28 10 45 0 102 12 102 21 0 5 -47 9 -105 9 -58 0 -105 -4
-105 -9 0 -5 -12 -12 -27 -16 -15 -3 -37 -17 -50 -31 -25 -27 -63 -32 -63 -9
0 8 -4 15 -10 15 -5 0 -10 11 -10 24 0 44 -24 56 -111 56 -43 0 -79 4 -79 9 0
5 -3 16 -6 25 -4 10 -1 16 9 16 8 0 17 7 21 15 3 8 15 15 26 15 11 0 20 5 20
10 0 6 -18 10 -40 10 -22 0 -40 -4 -40 -10 0 -6 -28 -10 -65 -10 -36 0 -65 4
-65 10 0 5 -11 12 -25 16 -27 7 -34 24 -10 24 8 0 15 7 15 15 0 8 5 15 10 15
6 0 10 5 10 10 0 6 -11 10 -25 10 -14 0 -25 -4 -25 -10 0 -6 -33 -10 -80 -10
-44 0 -80 4 -80 9 0 5 -11 12 -25 15 -14 4 -25 11 -25 16 0 6 -11 10 -25 10
-14 0 -25 -4 -25 -10z"/>
<path d="M5650 5580 c0 -5 5 -10 10 -10 6 0 10 5 10 10 0 6 -4 10 -10 10 -5 0
-10 -4 -10 -10z"/>
<path d="M5190 5410 c0 -16 -4 -30 -10 -30 -5 0 -10 -11 -10 -25 0 -15 -6 -25
-14 -25 -8 0 -16 -6 -18 -12 -4 -10 -10 -10 -32 0 -15 6 -36 12 -46 12 -13 0
-22 9 -26 25 -6 23 -24 36 -24 16 0 -5 -11 -12 -25 -15 -14 -4 -25 -11 -25
-16 0 -6 -9 -10 -19 -10 -11 0 -26 -7 -35 -15 -10 -11 -36 -15 -85 -15 -69 0
-72 1 -111 40 -22 22 -44 40 -49 40 -12 0 -1 -74 11 -78 4 -2 8 -10 8 -18 0
-8 6 -14 14 -14 8 0 16 -6 19 -12 5 -15 280 -12 285 3 5 13 272 12 272 -1 0
-5 18 -10 40 -10 27 0 43 -5 46 -15 5 -13 43 -15 255 -15 215 0 249 2 249 15
0 9 -9 15 -25 15 -14 0 -25 4 -25 10 0 5 -18 13 -40 16 -22 4 -40 10 -40 15 0
5 -7 9 -15 9 -10 0 -15 10 -15 30 0 20 -5 30 -15 30 -8 0 -15 -7 -15 -15 0 -9
-9 -15 -25 -15 -16 0 -25 -6 -25 -15 0 -10 -10 -15 -29 -15 -16 0 -32 -6 -35
-12 -5 -10 -7 -10 -12 0 -3 6 -23 12 -45 12 -28 0 -39 4 -39 15 0 11 -11 15
-40 15 -22 0 -40 4 -40 9 0 5 -11 12 -25 15 -14 4 -25 11 -25 16 0 6 -7 10
-15 10 -8 0 -15 7 -15 15 0 8 -5 15 -11 15 -6 0 -17 7 -25 15 -9 8 -29 15 -45
15 -26 0 -29 -3 -29 -30z"/>
<path d="M270 5420 c0 -6 -38 -10 -94 -10 -103 0 -126 -10 -126 -56 0 -13 -4
-24 -10 -24 -6 0 -10 -35 -10 -85 0 -47 4 -85 9 -85 5 0 11 -28 13 -62 3 -35
10 -64 16 -66 8 -2 12 -27 12 -67 0 -38 4 -65 11 -67 6 -2 14 -27 17 -56 2
-29 8 -52 13 -52 5 0 9 -11 9 -25 0 -16 6 -25 15 -25 9 0 15 -10 15 -26 0 -14
7 -32 15 -40 8 -9 15 -26 15 -40 0 -13 4 -24 9 -24 5 0 12 -13 16 -30 4 -16
11 -30 16 -30 5 0 9 -9 9 -21 0 -11 7 -27 15 -35 8 -9 15 -24 15 -35 0 -10 5
-19 10 -19 6 0 10 -9 10 -20 0 -11 7 -23 15 -26 8 -4 15 -16 15 -28 0 -11 7
-30 15 -40 8 -11 15 -30 15 -43 0 -13 5 -23 10 -23 6 0 10 -7 10 -15 0 -8 7
-15 15 -15 8 0 15 -7 15 -15 0 -8 4 -15 10 -15 5 0 12 -11 16 -25 3 -14 12
-25 20 -25 8 0 14 -5 14 -11 0 -14 25 -39 39 -39 6 0 11 -5 11 -11 0 -7 11
-22 25 -35 14 -13 25 -28 25 -33 0 -6 18 -28 40 -50 22 -22 40 -44 40 -50 0
-6 7 -11 15 -11 8 0 15 -7 15 -15 0 -8 5 -15 11 -15 14 0 39 -25 39 -39 0 -6
7 -11 15 -11 8 0 15 -7 15 -15 0 -8 5 -15 11 -15 13 0 39 -25 39 -38 0 -5 11
-13 25 -16 14 -4 25 -11 25 -16 0 -6 7 -10 15 -10 8 0 15 -4 15 -10 0 -5 7
-10 15 -10 8 0 15 -7 15 -15 0 -9 9 -15 25 -15 16 0 25 -6 25 -15 0 -8 5 -15
11 -15 7 0 22 -11 35 -25 13 -14 32 -25 44 -25 11 0 20 -7 20 -15 0 -8 5 -15
11 -15 6 0 24 -12 39 -27 41 -39 58 -53 65 -53 3 0 16 -11 28 -24 12 -13 32
-26 44 -30 13 -4 23 -12 23 -17 0 -5 7 -9 15 -9 8 0 15 -7 15 -15 0 -8 7 -15
15 -15 8 0 15 -4 15 -9 0 -5 11 -12 25 -15 14 -4 25 -11 25 -16 0 -6 7 -10 15
-10 8 0 15 -7 15 -15 0 -9 9 -15 25 -15 14 0 25 -4 25 -9 0 -5 12 -11 28 -13
l27 -3 3 -172 c1 -104 6 -173 12 -173 6 0 10 -11 10 -25 0 -14 7 -28 15 -31 9
-4 15 -19 15 -41 0 -19 7 -41 15 -49 8 -9 15 -26 15 -40 0 -13 4 -24 9 -24 4
0 11 -19 14 -42 3 -24 11 -44 16 -46 7 -2 11 -36 11 -82 0 -47 4 -80 11 -82
15 -5 17 -100 2 -105 -7 -3 -13 -20 -13 -38 0 -20 -6 -35 -15 -39 -8 -3 -15
-17 -15 -31 0 -14 -4 -25 -10 -25 -5 0 -10 -11 -10 -24 0 -14 -7 -31 -15 -40
-8 -8 -15 -26 -15 -40 0 -16 -6 -26 -15 -26 -9 0 -15 -9 -15 -25 0 -14 -4 -25
-10 -25 -5 0 -10 -7 -10 -15 0 -9 -7 -18 -15 -21 -8 -4 -15 -15 -15 -25 0 -11
-7 -22 -15 -25 -8 -4 -15 -17 -15 -30 0 -13 -4 -24 -10 -24 -29 0 1 -43 38
-54 12 -4 22 -12 22 -17 0 -5 7 -9 15 -9 8 0 15 -4 15 -9 0 -5 11 -12 25 -15
14 -4 25 -11 25 -16 0 -6 7 -10 15 -10 8 0 15 -7 15 -15 0 -8 7 -15 15 -15 8
0 15 -7 15 -15 0 -8 4 -15 10 -15 5 0 12 -11 16 -25 3 -14 11 -25 16 -25 10 0
38 -25 38 -35 0 -3 11 -16 25 -29 14 -13 25 -28 25 -35 0 -6 7 -11 15 -11 8 0
15 -5 15 -11 0 -14 25 -39 39 -39 6 0 11 -7 11 -15 0 -8 7 -15 15 -15 9 0 15
-9 15 -25 0 -16 6 -25 15 -25 8 0 15 -7 15 -15 0 -8 7 -15 15 -15 8 0 15 -4
15 -10 0 -5 5 -10 10 -10 6 0 10 7 10 15 0 8 -4 15 -10 15 -5 0 -12 11 -16 25
-3 14 -10 25 -15 25 -5 0 -9 11 -9 25 0 16 -6 25 -15 25 -8 0 -15 9 -15 20 0
12 -11 31 -24 43 -13 12 -26 32 -30 45 -4 12 -12 22 -17 22 -5 0 -9 7 -9 15 0
8 -7 15 -15 15 -8 0 -15 5 -15 11 0 7 -11 22 -25 35 -14 13 -25 29 -25 37 0 8
-11 23 -25 33 -14 10 -25 24 -25 31 0 7 -7 13 -15 13 -9 0 -15 9 -15 24 0 14
-4 28 -10 31 -5 3 -10 28 -10 56 l0 49 36 0 c35 0 64 -18 64 -39 0 -6 4 -11 9
-11 5 0 12 -11 15 -25 4 -14 11 -25 16 -25 6 0 10 -7 10 -15 0 -8 7 -15 15
-15 8 0 15 -9 15 -20 0 -12 11 -31 24 -43 13 -12 26 -32 30 -44 4 -13 12 -23
17 -23 5 0 9 -5 9 -10 0 -6 11 -21 24 -33 13 -12 26 -32 30 -44 4 -13 12 -23
17 -23 5 0 9 -7 9 -15 0 -8 7 -15 15 -15 8 0 15 -7 15 -15 0 -8 4 -15 9 -15 5
0 12 -11 15 -25 4 -14 11 -25 16 -25 6 0 10 -7 10 -15 0 -8 7 -15 15 -15 8 0
15 -7 15 -15 0 -8 4 -15 9 -15 5 0 13 -10 17 -22 4 -13 21 -37 39 -54 18 -16
36 -40 39 -52 4 -12 12 -22 17 -22 5 0 9 -7 9 -15 0 -8 7 -15 15 -15 8 0 15
-5 15 -11 0 -14 25 -39 39 -39 6 0 11 -7 11 -15 0 -8 7 -15 15 -15 8 0 15 -7
15 -15 0 -8 5 -15 11 -15 14 0 39 -25 39 -39 0 -6 7 -11 15 -11 8 0 15 -7 15
-15 0 -8 5 -15 11 -15 6 0 24 -12 39 -27 45 -43 58 -53 70 -53 5 0 10 -7 10
-15 0 -8 5 -15 11 -15 7 0 22 -11 35 -25 29 -31 34 -31 34 0 0 14 -4 25 -9 25
-5 0 -12 13 -16 30 -4 16 -11 30 -16 30 -5 0 -9 14 -9 31 0 18 -7 37 -16 44
-12 8 -14 18 -9 35 6 20 9 21 17 7 5 -10 16 -17 23 -17 8 0 15 -4 15 -10 0 -5
11 -10 25 -10 20 0 25 5 25 25 0 16 -6 25 -15 25 -9 0 -15 9 -15 25 0 14 -4
25 -10 25 -5 0 -10 7 -10 15 0 8 -7 15 -15 15 -8 0 -15 7 -15 15 0 8 -5 15
-11 15 -14 0 -69 55 -69 69 0 6 7 11 15 11 8 0 15 -7 15 -15 0 -9 9 -15 21
-15 12 0 32 -11 45 -25 13 -14 32 -25 44 -25 11 0 20 -7 20 -15 0 -9 9 -15 24
-15 13 0 26 -7 30 -15 3 -8 15 -15 26 -15 11 0 20 -4 20 -10 0 -5 14 -10 30
-10 20 0 30 -5 30 -15 0 -8 5 -15 10 -15 6 0 10 7 10 15 0 8 -4 15 -10 15 -5
0 -10 7 -10 15 0 8 -5 15 -11 15 -7 0 -26 15 -43 34 -18 18 -42 37 -54 40 -12
4 -22 12 -22 17 0 5 -7 9 -15 9 -8 0 -15 7 -15 15 0 8 -7 15 -15 15 -8 0 -15
5 -15 11 0 14 -25 39 -39 39 -6 0 -11 7 -11 15 0 8 -7 15 -15 15 -8 0 -15 4
-15 10 0 5 -11 12 -25 16 -18 4 -25 13 -25 30 0 15 -6 24 -15 24 -8 0 -15 5
-15 11 0 7 -11 22 -25 35 -14 13 -25 28 -25 34 0 6 -11 21 -24 33 -13 12 -26
32 -30 45 -4 12 -12 22 -17 22 -5 0 -9 18 -9 40 0 27 -5 43 -15 46 -20 8 -20
92 0 118 10 13 15 43 15 83 0 35 4 63 10 63 6 0 10 7 10 15 0 8 -4 15 -10 15
-5 0 -10 14 -10 30 0 20 -5 30 -15 30 -9 0 -15 9 -15 25 0 16 6 25 15 25 8 0
15 -4 15 -10 0 -5 11 -12 25 -16 14 -3 25 -10 25 -15 0 -5 7 -9 15 -9 8 0 15
-6 15 -14 0 -8 11 -17 25 -20 14 -4 25 -11 25 -16 0 -6 5 -10 11 -10 7 0 22
-11 35 -25 23 -25 64 -34 64 -15 0 6 -7 10 -15 10 -8 0 -15 7 -15 15 0 8 -4
15 -10 15 -5 0 -10 7 -10 15 0 8 -7 15 -15 15 -8 0 -15 7 -15 15 0 8 -7 15
-15 15 -8 0 -15 5 -15 11 0 6 -6 17 -12 24 -30 33 -38 45 -38 55 0 5 -7 10
-15 10 -8 0 -15 7 -15 15 0 8 -4 15 -10 15 -5 0 -10 7 -10 15 0 8 -7 15 -15
15 -9 0 -15 9 -15 25 0 16 -6 25 -15 25 -8 0 -15 7 -15 15 0 8 -7 15 -15 15
-8 0 -15 5 -15 10 0 6 14 10 30 10 17 0 30 -4 30 -10 0 -5 11 -10 25 -10 16 0
25 -6 25 -15 0 -11 11 -15 40 -15 29 0 40 -4 40 -15 0 -8 9 -15 20 -15 26 0
60 -34 60 -60 0 -11 7 -20 15 -20 9 0 15 -9 15 -25 0 -14 4 -25 9 -25 5 0 12
-14 16 -30 4 -17 11 -30 16 -30 5 0 9 -11 9 -25 0 -16 6 -25 15 -25 9 0 15 -9
15 -25 0 -14 4 -25 10 -25 5 0 12 -11 16 -25 3 -14 10 -25 15 -25 5 0 9 -9 9
-19 0 -11 7 -26 15 -35 8 -8 15 -24 15 -35 0 -12 6 -21 15 -21 8 0 15 -5 15
-11 0 -14 25 -39 39 -39 6 0 11 -6 11 -14 0 -8 11 -17 25 -20 14 -4 25 -11 25
-16 0 -6 7 -10 15 -10 8 0 15 -7 15 -15 0 -8 7 -15 15 -15 8 0 15 -4 15 -10 0
-5 11 -10 25 -10 16 0 25 -6 25 -15 0 -13 39 -15 295 -15 256 0 295 2 295 15
0 11 11 15 40 15 22 0 40 5 40 10 0 6 11 10 25 10 14 0 28 7 31 15 4 8 12 15
20 15 15 0 294 275 294 289 0 5 25 33 55 64 30 30 55 60 55 66 0 6 7 11 15 11
8 0 15 5 15 11 0 6 6 17 14 25 8 8 19 14 25 14 6 0 11 7 11 15 0 8 7 15 15 15
8 0 15 5 15 11 0 6 14 24 30 41 17 16 30 33 30 38 0 18 -24 22 -35 7 -7 -10
-22 -17 -34 -17 -12 0 -21 -6 -21 -15 0 -9 -9 -15 -25 -15 -14 0 -25 -4 -25
-9 0 -5 -11 -12 -25 -15 -14 -4 -25 -11 -25 -16 0 -6 -11 -10 -24 -10 -13 0
-26 -7 -30 -15 -3 -8 -12 -15 -21 -15 -8 0 -15 -4 -15 -10 0 -5 -9 -10 -20
-10 -11 0 -23 -7 -26 -15 -4 -8 -16 -15 -29 -15 -13 0 -25 -7 -29 -15 -3 -8
-17 -15 -31 -15 -14 0 -25 -4 -25 -10 0 -5 -11 -12 -25 -16 -14 -3 -25 -10
-25 -14 0 -4 -15 -10 -32 -13 -18 -3 -51 -10 -73 -16 -22 -6 -97 -11 -167 -11
-79 0 -128 -4 -128 -10 0 -16 -47 -11 -54 6 -3 9 -6 38 -6 65 0 27 -4 49 -10
49 -17 0 -11 39 10 60 11 11 29 20 40 20 11 0 20 7 20 15 0 9 9 15 25 15 14 0
25 4 25 9 0 5 11 12 25 15 14 4 25 11 25 16 0 6 14 10 30 10 20 0 30 5 30 15
0 13 20 15 120 15 73 0 120 4 120 10 0 6 38 10 94 10 71 0 98 4 110 15 8 8 24
15 36 15 12 0 28 7 36 15 9 8 29 15 45 15 16 0 29 5 29 10 0 6 11 10 25 10 14
0 28 7 31 15 4 8 15 15 26 15 20 0 48 22 48 38 0 6 7 12 15 16 8 3 15 10 15
16 0 6 6 18 13 25 29 33 37 45 37 55 0 5 7 10 15 10 8 0 15 7 15 15 0 8 4 15
10 15 5 0 12 11 16 25 3 14 10 25 15 25 5 0 9 5 9 10 0 6 -11 10 -25 10 -14 0
-25 -4 -25 -10 0 -6 -33 -10 -79 -10 -44 0 -81 -4 -83 -10 -1 -5 -38 -13 -80
-16 -43 -4 -78 -11 -78 -15 0 -5 -20 -9 -45 -9 -25 0 -45 4 -45 9 0 5 -29 12
-65 16 -36 3 -65 11 -65 16 0 5 -27 9 -61 9 -40 0 -65 5 -75 15 -10 10 -35 15
-74 15 -36 0 -60 5 -62 12 -3 8 -56 13 -171 16 l-167 5 0 23 c0 13 5 24 11 24
6 0 24 12 39 28 16 15 36 33 44 40 11 8 60 12 169 12 109 0 157 -4 165 -12 9
-9 69 -14 207 -16 107 -2 195 -7 195 -11 0 -5 96 -11 213 -15 116 -4 214 -12
215 -17 5 -13 342 -12 342 1 0 6 7 10 15 10 8 0 15 6 15 14 0 8 11 17 25 20
14 4 25 11 25 16 0 6 5 10 11 10 11 0 99 84 99 95 0 7 14 24 53 65 15 15 27
33 27 39 0 6 7 11 15 11 8 0 15 7 15 15 0 8 5 15 10 15 6 0 10 7 10 15 0 8 7
15 15 15 9 0 15 9 15 25 0 16 6 25 15 25 8 0 15 7 15 15 0 8 4 15 9 15 5 0 12
11 15 25 5 18 13 25 31 25 14 0 25 -5 25 -11 0 -6 12 -24 28 -39 42 -45 52
-58 52 -70 0 -5 7 -10 15 -10 8 0 15 -7 15 -15 0 -9 9 -15 25 -15 16 0 25 -6
25 -15 0 -8 7 -15 15 -15 8 0 15 -4 15 -10 0 -5 11 -12 25 -16 14 -3 25 -10
25 -15 0 -5 7 -9 15 -9 8 0 15 -7 15 -15 0 -9 9 -15 25 -15 14 0 25 -4 25 -9
0 -5 14 -12 30 -16 17 -4 30 -11 30 -16 0 -5 15 -9 34 -9 21 0 36 -6 40 -15 7
-19 45 -19 52 0 4 8 10 15 16 15 23 0 38 31 38 79 0 48 2 51 25 51 14 0 25 -4
25 -10 0 -5 7 -10 15 -10 8 0 15 5 15 10 0 6 7 10 15 10 8 0 15 7 15 15 0 8 4
15 9 15 5 0 12 11 15 25 4 14 11 25 16 25 6 0 10 7 10 15 0 8 7 15 15 15 10 0
15 10 15 30 0 17 5 30 10 30 6 0 10 16 10 35 0 19 -4 35 -10 35 -5 0 -10 14
-10 30 0 19 -5 30 -14 30 -8 0 -16 5 -18 10 -2 6 -53 13 -118 15 -63 3 -116
10 -118 15 -2 6 -15 10 -28 10 -15 0 -24 6 -24 15 0 8 -7 15 -15 15 -8 0 -15
5 -15 10 0 6 -11 10 -25 10 -14 0 -25 -4 -25 -10 0 -5 -7 -10 -15 -10 -9 0
-15 -9 -15 -25 0 -20 -6 -25 -35 -31 -50 -9 -195 -1 -203 12 -4 6 -17 14 -29
18 -13 4 -23 12 -23 17 0 5 -20 9 -45 9 -41 0 -45 -2 -45 -25 0 -14 -4 -25
-10 -25 -5 0 -10 -13 -10 -30 0 -20 -5 -30 -15 -30 -8 0 -15 -5 -15 -11 0 -6
-12 -24 -27 -39 -38 -39 -53 -58 -53 -64 0 -16 -91 -96 -109 -96 -12 0 -21 -6
-21 -15 0 -8 -9 -15 -20 -15 -12 0 -31 -11 -43 -24 -13 -14 -35 -28 -50 -31
-15 -4 -27 -11 -27 -16 0 -5 -40 -9 -90 -9 -53 0 -90 -4 -90 -10 0 -5 -11 -10
-25 -10 -14 0 -25 5 -25 10 0 6 5 10 10 10 6 0 10 7 10 15 0 8 7 15 15 15 8 0
15 5 15 10 0 6 6 10 13 10 8 0 25 9 38 21 36 31 11 39 -123 39 -72 0 -118 4
-118 10 0 6 -11 10 -25 10 -14 0 -28 7 -31 15 -4 8 -17 15 -29 15 -13 0 -25 6
-27 13 -3 9 -44 13 -146 15 -78 2 -142 8 -142 13 0 5 5 9 10 9 6 0 10 7 10 15
0 8 9 15 20 15 11 0 20 4 20 9 0 5 10 13 23 17 12 4 32 17 44 30 12 13 29 24
38 24 9 0 23 7 31 15 9 8 26 15 40 15 23 0 64 27 64 42 0 5 -13 8 -30 8 -16 0
-30 -4 -30 -9 0 -5 -23 -11 -51 -13 -28 -3 -54 -10 -58 -15 -3 -6 -16 -13 -28
-17 -13 -4 -23 -12 -23 -17 0 -5 -11 -9 -24 -9 -13 0 -26 -7 -30 -15 -3 -8
-15 -15 -26 -15 -11 0 -20 -4 -20 -10 0 -5 -9 -10 -19 -10 -11 0 -26 -7 -35
-15 -8 -8 -23 -15 -34 -15 -11 0 -22 -7 -26 -15 -8 -21 -86 -21 -86 0 0 8 7
15 15 15 8 0 15 7 15 15 0 8 7 15 15 15 8 0 15 5 15 11 0 14 25 39 39 39 6 0
11 7 11 15 0 8 7 15 15 15 8 0 15 4 15 10 0 5 11 12 25 16 14 3 25 10 25 15 0
5 7 9 15 9 8 0 15 7 15 15 0 9 9 15 25 15 14 0 25 4 25 10 0 5 18 13 40 16 67
11 45 24 -40 24 -46 0 -80 -4 -80 -10 0 -5 -11 -12 -25 -16 -14 -3 -25 -10
-25 -15 0 -5 -11 -9 -25 -9 -14 0 -28 -7 -31 -15 -4 -8 -17 -15 -30 -15 -13 0
-24 -4 -24 -10 0 -5 -11 -12 -25 -16 -14 -3 -25 -10 -25 -14 0 -12 -44 -20
-54 -10 -10 10 24 50 44 50 5 0 10 5 10 11 0 14 25 39 39 39 6 0 11 7 11 15 0
9 9 15 24 15 13 0 26 7 30 15 3 8 17 15 31 15 14 0 25 4 25 10 0 5 11 12 25
16 31 8 31 15 3 33 -16 10 -23 10 -26 2 -2 -6 -15 -11 -28 -11 -13 0 -24 -4
-24 -10 0 -5 -7 -10 -15 -10 -9 0 -18 -7 -21 -15 -4 -8 -17 -15 -30 -15 -15 0
-24 -6 -24 -15 0 -9 -9 -15 -25 -15 -16 0 -25 -6 -25 -15 0 -8 -5 -15 -11 -15
-7 0 -26 -15 -43 -34 -18 -18 -42 -37 -54 -40 -12 -4 -25 -18 -28 -32 -4 -15
-13 -24 -25 -24 -10 0 -19 3 -19 8 1 13 27 42 39 42 6 0 11 5 11 11 0 18 90
99 110 99 11 0 20 7 20 15 0 8 7 15 15 15 8 0 15 7 15 15 0 9 9 15 25 15 14 0
25 5 25 10 0 6 -11 10 -25 10 -14 0 -25 -4 -25 -9 0 -5 -13 -12 -30 -16 -16
-4 -30 -11 -30 -16 0 -5 -11 -9 -25 -9 -16 0 -25 -6 -25 -15 0 -8 -5 -15 -10
-15 -14 0 -150 -136 -150 -150 0 -5 -7 -10 -15 -10 -8 0 -15 -7 -15 -15 0 -8
-4 -15 -10 -15 -5 0 -12 -11 -16 -25 -4 -18 -13 -25 -29 -25 -13 0 -25 -4 -27
-9 -1 -4 -13 -12 -25 -15 -17 -6 -23 -3 -23 8 0 9 -7 16 -15 16 -11 0 -15 11
-15 40 0 29 4 40 15 40 8 0 15 7 15 15 0 9 9 15 25 15 14 0 25 5 25 10 0 6 7
10 15 10 8 0 15 7 15 15 0 8 7 15 15 15 8 0 15 4 15 9 0 5 10 13 23 17 12 4
31 17 43 29 11 13 31 26 42 30 12 3 22 11 22 16 0 5 7 9 16 9 9 0 14 6 11 13
-5 14 -50 11 -55 -3 -2 -6 -14 -10 -27 -10 -13 0 -30 -7 -39 -15 -8 -8 -20
-15 -26 -15 -6 0 -18 -6 -25 -12 -30 -27 -44 -38 -50 -38 -3 0 -17 -11 -30
-25 -25 -28 -95 -46 -95 -26 0 17 51 67 78 75 12 4 22 12 22 17 0 5 6 9 14 9
8 0 16 7 20 15 3 8 15 15 26 15 11 0 20 4 20 9 0 5 14 12 30 16 17 4 30 11 30
16 0 5 11 9 24 9 13 0 26 7 30 15 3 9 19 15 41 15 19 0 35 4 35 10 0 5 18 13
40 16 22 4 40 10 40 15 0 5 11 9 24 9 31 0 56 10 56 21 0 15 -93 10 -114 -6
-11 -8 -30 -15 -43 -15 -13 0 -23 -4 -23 -9 0 -5 -18 -11 -40 -15 -22 -3 -40
-11 -40 -16 0 -6 -13 -10 -30 -10 -16 0 -30 -4 -30 -10 0 -5 -11 -12 -25 -16
-14 -3 -25 -10 -25 -14 0 -4 -11 -11 -25 -14 -14 -4 -25 -11 -25 -16 0 -6 -7
-10 -15 -10 -8 0 -15 -7 -15 -15 0 -8 -9 -15 -20 -15 -12 0 -31 -11 -44 -25
-22 -23 -76 -36 -76 -17 0 10 38 42 50 42 6 0 10 7 10 15 0 8 7 15 15 15 8 0
15 4 15 9 0 5 16 12 35 15 19 4 35 11 35 16 0 6 14 10 30 10 20 0 30 5 30 15
0 12 -13 15 -55 15 -30 0 -55 -4 -55 -10 0 -5 -11 -12 -25 -16 -14 -3 -25 -10
-25 -15 0 -5 -6 -9 -14 -9 -8 0 -21 -6 -28 -12 -16 -15 -46 -35 -67 -45 -26
-12 -51 -43 -51 -63 0 -11 -7 -20 -15 -20 -8 0 -15 -7 -15 -15 0 -8 -7 -15
-15 -15 -8 0 -15 -4 -15 -10 0 -5 -4 -10 -10 -10 -5 0 -10 11 -10 25 0 14 4
25 9 25 5 0 12 11 15 25 4 14 11 25 16 25 6 0 10 7 10 15 0 8 7 15 15 15 8 0
15 7 15 15 0 8 5 15 10 15 6 0 10 7 10 15 0 8 7 15 15 15 8 0 15 5 15 10 0 19
-43 10 -66 -15 -25 -28 -64 -34 -64 -10 0 8 4 15 9 15 5 0 11 18 15 40 3 22
11 40 16 40 6 0 10 11 10 25 0 14 -3 25 -8 25 -11 0 -39 -35 -47 -59 -3 -12
-11 -21 -16 -21 -5 0 -9 -7 -9 -15 0 -8 -4 -15 -9 -15 -5 0 -13 -9 -16 -21 -4
-11 -20 -34 -37 -51 -41 -42 -51 -25 -43 74 l6 76 -30 7 c-17 4 -31 11 -31 16
0 5 -25 9 -55 9 -30 0 -55 -4 -55 -10 0 -5 -11 -12 -25 -16 -14 -3 -25 -12
-25 -20 0 -8 -5 -14 -11 -14 -19 0 -69 -58 -69 -79 0 -12 -6 -21 -15 -21 -9 0
-15 -9 -15 -25 0 -14 -4 -25 -10 -25 -5 0 -10 -6 -10 -14 0 -8 -13 -27 -30
-43 -75 -71 -89 -83 -99 -83 -6 0 -11 -7 -11 -15 0 -11 -11 -15 -40 -15 -22 0
-40 -4 -40 -10 0 -5 -17 -10 -38 -10 -21 0 -47 -7 -58 -15 -29 -22 -429 -22
-438 0 -3 8 -12 15 -21 15 -24 0 -55 38 -55 68 0 26 -29 62 -50 62 -6 0 -10 4
-10 9 0 5 -10 13 -22 17 -13 4 -32 17 -44 29 -11 13 -31 26 -42 30 -12 3 -22
11 -22 16 0 5 -7 9 -15 9 -8 0 -15 7 -15 15 0 8 -6 15 -13 15 -7 0 -21 11 -31
25 -10 14 -25 25 -33 25 -8 0 -24 11 -37 25 -13 14 -28 25 -35 25 -6 0 -11 7
-11 15 0 8 -7 15 -15 15 -8 0 -15 4 -15 9 0 5 -9 13 -21 16 -11 4 -74 61 -140
126 -74 74 -126 119 -139 119 -11 0 -20 5 -20 10 0 6 -11 10 -24 10 -14 0 -31
7 -40 15 -8 8 -22 15 -30 15 -9 0 -16 4 -16 9 0 5 -10 13 -22 17 -13 4 -33 17
-45 30 -12 13 -31 24 -43 24 -11 0 -20 7 -20 15 0 9 -9 15 -25 15 -14 0 -25 5
-25 11 0 14 -25 39 -39 39 -6 0 -11 7 -11 15 0 8 -4 15 -10 15 -19 0 -130 118
-130 139 0 11 -4 21 -9 21 -5 0 -12 11 -15 25 -4 14 -11 25 -16 25 -6 0 -10
11 -10 25 0 14 -7 28 -15 31 -8 4 -15 17 -15 30 0 13 -4 24 -9 24 -5 0 -12 11
-15 25 -4 14 -11 25 -16 25 -6 0 -10 14 -10 30 0 20 -5 30 -15 30 -10 0 -15
11 -15 35 0 19 -4 35 -9 35 -5 0 -12 14 -16 30 -4 17 -11 30 -16 30 -5 0 -9
11 -9 24 0 13 -7 26 -15 30 -9 3 -15 19 -15 41 0 19 -4 35 -10 35 -5 0 -10 14
-10 30 0 17 5 30 10 30 6 0 10 -7 10 -15 0 -8 7 -15 15 -15 9 0 15 -9 15 -25
0 -14 5 -25 10 -25 6 0 10 -7 10 -15 0 -8 7 -15 15 -15 9 0 15 -9 15 -22 0
-13 7 -32 15 -42 8 -11 15 -30 15 -43 0 -13 4 -23 9 -23 5 0 12 -11 15 -25 4
-14 11 -25 16 -25 6 0 10 -13 10 -30 0 -20 5 -30 15 -30 10 0 15 -10 15 -30 0
-16 4 -30 10 -30 5 0 12 -11 16 -25 3 -14 10 -25 15 -25 5 0 9 -11 9 -25 0
-16 6 -25 15 -25 8 0 15 -7 15 -15 0 -8 5 -15 10 -15 6 0 10 -6 10 -14 0 -8 6
-21 14 -28 7 -8 17 -24 20 -36 4 -12 12 -22 17 -22 5 0 9 -7 9 -15 0 -8 5 -15
10 -15 6 0 10 -7 10 -15 0 -8 5 -15 10 -15 6 0 21 -11 34 -25 13 -14 28 -25
35 -25 6 0 11 -7 11 -15 0 -9 9 -15 25 -15 14 0 25 -5 25 -11 0 -14 25 -39 40
-39 6 0 13 -7 16 -15 4 -8 17 -15 30 -15 13 0 24 -4 24 -10 0 -5 11 -12 25
-16 14 -3 25 -10 25 -14 0 -4 23 -10 52 -12 29 -3 54 -11 56 -17 2 -6 24 -11
48 -11 35 0 50 -6 68 -25 13 -14 28 -25 35 -25 6 0 11 -7 11 -15 0 -8 5 -15
10 -15 12 0 25 -10 70 -52 15 -16 33 -28 39 -28 6 0 11 -5 11 -11 0 -14 55
-69 69 -69 6 0 11 -7 11 -15 0 -8 7 -15 15 -15 8 0 15 -5 15 -11 0 -14 25 -39
39 -39 6 0 11 -7 11 -15 0 -8 5 -15 11 -15 7 0 22 -11 35 -25 13 -14 32 -25
44 -25 11 0 20 -7 20 -15 0 -8 7 -15 15 -15 8 0 15 -4 15 -10 0 -5 11 -12 25
-16 14 -3 25 -10 25 -15 0 -5 11 -9 25 -9 16 0 25 -6 25 -15 0 -9 9 -15 24
-15 13 0 26 -7 30 -15 3 -8 12 -15 21 -15 8 0 15 -4 15 -10 0 -5 11 -10 25
-10 16 0 25 -6 25 -15 0 -11 12 -15 49 -15 27 0 51 -4 53 -10 2 -5 38 -13 81
-16 42 -4 77 -11 77 -15 0 -5 7 -9 15 -9 8 0 15 4 15 9 0 5 14 12 30 16 17 4
30 11 30 16 0 5 15 9 34 9 21 0 36 6 40 15 4 12 23 15 81 15 75 0 105 11 105
39 0 6 7 11 15 11 9 0 15 9 15 25 0 14 4 25 9 25 5 0 12 11 15 25 4 14 11 25
16 25 6 0 10 7 10 15 0 9 7 18 15 21 8 4 15 17 15 30 0 15 6 24 15 24 8 0 15
5 15 11 0 14 55 69 69 69 6 0 11 4 11 10 0 5 11 12 25 16 14 3 25 10 25 14 0
4 11 11 25 14 14 4 25 11 25 16 0 6 6 10 14 10 8 0 17 11 20 25 4 14 11 25 16
25 6 0 10 7 10 15 0 8 5 15 10 15 6 0 10 7 10 16 0 14 -8 15 -47 9 -27 -4 -49
-11 -51 -16 -4 -9 -82 -13 -82 -4 0 3 11 16 25 29 14 13 25 28 25 35 0 6 7 11
15 11 23 0 18 43 -6 64 -20 17 -23 17 -31 2 -5 -9 -14 -16 -19 -16 -11 0 -39
-25 -39 -35 0 -4 -7 -13 -15 -21 -8 -9 -15 -26 -15 -40 0 -23 -27 -64 -42 -64
-12 0 -9 78 2 82 6 2 13 44 16 93 l6 90 -39 18 c-22 9 -58 17 -81 17 -30 0
-42 4 -42 14 0 22 -29 46 -56 46 -13 0 -24 5 -24 10 0 6 -7 10 -15 10 -8 0
-15 9 -15 20 0 25 -34 60 -59 60 -12 0 -21 -9 -25 -25 -6 -24 -46 -37 -46 -15
0 6 5 10 10 10 6 0 10 22 10 49 0 52 -8 61 -56 61 -13 0 -24 4 -24 9 0 5 -18
11 -40 15 -22 3 -40 11 -40 16 0 6 -13 10 -29 10 -16 0 -36 7 -45 15 -8 8 -29
15 -46 15 -17 0 -38 7 -46 15 -9 8 -24 15 -35 15 -10 0 -19 5 -19 10 0 6 -11
10 -24 10 -14 0 -31 7 -40 15 -8 8 -26 15 -40 15 -14 0 -26 4 -26 10 0 5 -11
12 -25 16 -14 3 -25 10 -25 15 0 5 -31 9 -70 9 -40 0 -70 -4 -70 -10 0 -5 -16
-10 -35 -10 -19 0 -35 5 -35 10 0 6 -7 10 -15 10 -9 0 -18 7 -21 15 -4 8 -13
15 -21 15 -7 0 -24 11 -37 25 -13 14 -28 25 -35 25 -6 0 -11 7 -11 15 0 9 -9
15 -25 15 -16 0 -25 6 -25 15 0 8 -5 15 -11 15 -7 0 -22 11 -35 25 -15 17 -34
25 -56 25 -18 1 -44 7 -58 15 -14 8 -37 14 -52 15 -16 0 -28 5 -28 10 0 6 -7
10 -15 10 -8 0 -15 7 -15 15 0 8 -7 15 -15 15 -8 0 -15 7 -15 15 0 9 -9 15
-25 15 -14 0 -25 4 -25 9 0 5 -25 13 -55 16 -30 4 -55 11 -55 16 0 5 -18 9
-40 9 -29 0 -40 4 -40 15 0 10 -11 15 -35 15 -19 0 -35 5 -35 10 0 6 -9 10
-19 10 -11 0 -26 7 -35 15 -8 8 -24 15 -35 15 -12 0 -21 6 -21 15 0 8 -5 15
-10 15 -6 0 -33 23 -60 50 -27 28 -54 50 -60 50 -5 0 -10 4 -10 10 0 16 -117
130 -134 130 -9 0 -16 5 -16 10 0 6 -13 10 -30 10 -16 0 -30 -4 -30 -10z"/>
<path d="M5970 5220 c0 -11 5 -20 10 -20 6 0 10 -7 10 -15 0 -8 7 -15 15 -15
8 0 15 -7 15 -15 0 -9 9 -15 25 -15 14 0 25 -4 25 -9 0 -5 11 -12 25 -15 14
-4 25 -11 25 -16 0 -6 7 -10 15 -10 8 0 15 -7 15 -15 0 -8 7 -15 15 -15 9 0
15 -9 15 -25 0 -16 6 -25 15 -25 8 0 15 -7 15 -15 0 -8 7 -15 15 -15 8 0 15
-7 15 -15 0 -8 5 -15 10 -15 6 0 10 -11 10 -25 0 -14 5 -25 11 -25 6 0 17 -7
25 -15 9 -8 29 -15 45 -15 16 0 29 -4 29 -10 0 -5 11 -10 25 -10 14 0 28 -7
31 -15 4 -8 17 -15 30 -15 15 0 24 -6 24 -15 0 -9 9 -15 21 -15 12 0 32 -11
45 -25 13 -14 28 -25 34 -25 5 0 10 -4 10 -9 0 -5 10 -13 22 -17 26 -8 48 -28
48 -43 0 -6 6 -11 14 -11 8 0 17 -7 20 -16 3 -8 10 -12 16 -9 15 9 12 25 -5
25 -8 0 -15 7 -15 15 0 8 -4 15 -10 15 -5 0 -12 11 -16 25 -3 14 -10 25 -16
25 -8 0 -20 8 -53 38 -7 6 -18 12 -24 12 -6 0 -11 7 -11 15 0 8 -9 15 -20 15
-12 0 -31 11 -44 25 -13 14 -33 25 -45 25 -12 0 -24 7 -27 15 -4 9 -19 15 -36
15 -18 0 -38 9 -52 25 -13 14 -28 25 -35 25 -6 0 -11 11 -11 24 0 13 -7 26
-15 30 -8 3 -15 10 -15 16 0 15 -25 40 -39 40 -6 0 -11 7 -11 15 0 8 -7 15
-15 15 -8 0 -15 5 -15 11 0 13 -25 39 -38 39 -6 0 -12 7 -16 15 -3 8 -15 15
-26 15 -11 0 -20 4 -20 9 0 5 -13 12 -30 16 -16 4 -30 11 -30 16 0 5 -7 9 -15
9 -8 0 -15 5 -15 10 0 6 -4 10 -10 10 -5 0 -10 -9 -10 -20z"/>
<path d="M5000 5134 c0 -8 69 -74 76 -74 10 0 34 -28 34 -39 0 -6 7 -11 15
-11 8 0 15 -7 15 -15 0 -9 9 -15 25 -15 16 0 25 -6 25 -15 0 -8 7 -15 15 -15
8 0 15 -4 15 -10 0 -5 7 -10 15 -10 10 0 15 -10 15 -26 0 -17 12 -38 35 -60
19 -18 35 -37 35 -43 0 -6 7 -11 15 -11 9 0 15 -9 15 -25 0 -16 6 -25 15 -25
8 0 15 -6 15 -14 0 -8 5 -16 11 -18 7 -2 12 -34 13 -78 1 -73 0 -75 -24 -79
-14 -1 -29 -8 -33 -15 -6 -8 -10 -8 -14 2 -2 6 -18 12 -34 12 -19 0 -29 5 -29
15 0 8 -5 15 -11 15 -14 0 -39 25 -39 39 0 6 -7 11 -15 11 -8 0 -15 7 -15 15
0 8 -5 15 -11 15 -14 0 -39 25 -39 39 0 6 -7 11 -15 11 -8 0 -15 7 -15 15 0 9
-9 15 -25 15 -16 0 -25 6 -25 15 0 8 -7 15 -15 15 -8 0 -15 5 -15 10 0 6 -6
10 -14 10 -8 0 -22 7 -31 16 -9 9 -19 13 -23 9 -4 -4 -1 -10 6 -12 6 -3 12
-11 12 -20 0 -8 7 -21 16 -30 17 -18 15 -64 -3 -71 -7 -2 -13 3 -13 12 0 9 -7
16 -15 16 -8 0 -15 7 -15 15 0 8 -5 15 -11 15 -14 0 -39 25 -39 39 0 6 -7 11
-15 11 -8 0 -15 7 -15 15 0 11 -11 15 -40 15 -29 0 -40 4 -40 15 0 9 -9 15
-25 15 -14 0 -25 5 -25 10 0 6 -7 10 -15 10 -20 0 -19 -37 1 -57 10 -10 14
-29 12 -57 l-3 -41 -64 0 c-42 0 -66 5 -69 13 -2 7 -21 12 -43 12 -28 0 -39 4
-39 15 0 8 -7 15 -15 15 -8 0 -15 5 -15 10 0 6 -9 10 -20 10 -11 0 -23 7 -26
15 -4 8 -17 15 -30 15 -15 0 -24 6 -24 15 0 8 -7 15 -15 15 -8 0 -15 5 -15 10
0 6 -11 10 -25 10 -14 0 -25 -4 -25 -10 0 -5 7 -10 15 -10 8 0 15 -7 15 -15 0
-8 5 -15 10 -15 6 0 10 -7 10 -15 0 -8 7 -15 15 -15 9 0 15 -9 15 -25 0 -22
-4 -25 -40 -25 -22 0 -40 4 -40 10 0 5 -11 12 -25 16 -14 3 -25 10 -25 15 0 5
-7 9 -15 9 -8 0 -15 7 -15 15 0 9 -9 15 -24 15 -13 0 -26 7 -30 15 -3 8 -12
15 -21 15 -8 0 -15 5 -15 10 0 6 -11 10 -25 10 -16 0 -25 6 -25 15 0 8 -7 15
-15 15 -8 0 -15 -3 -15 -8 0 -10 38 -42 50 -42 6 0 10 -7 10 -15 0 -8 7 -15
15 -15 8 0 15 -7 15 -15 0 -8 5 -15 11 -15 6 0 17 -6 24 -12 33 -30 45 -38 55
-38 5 0 10 -7 10 -15 0 -8 7 -15 15 -15 9 0 15 -9 15 -25 0 -14 -2 -25 -5 -25
-3 0 -16 11 -29 25 -13 14 -28 25 -35 25 -6 0 -11 7 -11 15 0 9 -9 15 -25 15
-16 0 -25 6 -25 15 0 8 -7 15 -15 15 -8 0 -15 5 -15 10 0 6 -7 10 -15 10 -8 0
-15 -4 -15 -10 0 -5 7 -10 15 -10 8 0 15 -7 15 -15 0 -8 7 -15 15 -15 8 0 15
-5 15 -11 0 -7 16 -26 35 -45 41 -39 44 -54 10 -54 -16 0 -25 6 -25 15 0 9 -9
15 -25 15 -16 0 -25 6 -25 15 0 8 -7 15 -15 15 -8 0 -15 5 -15 10 0 6 -11 10
-25 10 -14 0 -25 -4 -25 -10 0 -5 7 -10 15 -10 8 0 15 -7 15 -15 0 -8 7 -15
15 -15 8 0 15 -7 15 -15 0 -8 5 -15 10 -15 6 0 10 -7 10 -16 0 -14 -8 -16 -47
-11 -26 3 -49 10 -51 16 -5 16 -81 13 -98 -3 -8 -8 -14 -26 -14 -40 0 -29 -20
-34 -44 -11 -8 8 -22 15 -30 15 -9 0 -16 5 -16 10 0 6 -4 10 -10 10 -5 0 -10
-11 -10 -25 0 -16 6 -25 15 -25 8 0 15 -4 15 -9 0 -5 11 -12 25 -15 14 -4 25
-11 25 -16 0 -6 11 -10 24 -10 25 0 43 -37 26 -54 -10 -10 -80 1 -80 13 0 5
-11 12 -25 15 -14 4 -25 11 -25 16 0 6 -6 10 -14 10 -8 0 -16 6 -19 13 -2 7
-8 8 -13 3 -5 -5 -4 -11 4 -13 6 -3 12 -11 12 -19 0 -8 7 -14 15 -14 8 0 15
-5 15 -11 0 -13 20 -33 43 -42 9 -3 17 -11 17 -17 0 -5 11 -10 25 -10 26 0 29
-7 19 -34 -7 -17 -84 -23 -84 -7 0 5 -10 13 -22 17 -28 9 -123 104 -132 132
-4 12 -12 22 -17 22 -5 0 -9 4 -9 10 0 13 -57 70 -70 70 -5 0 -10 -4 -10 -10
0 -5 4 -10 10 -10 5 0 13 -18 16 -40 4 -22 10 -40 14 -40 4 0 10 -18 14 -40 3
-22 11 -40 16 -40 6 0 10 -18 10 -40 0 -22 4 -40 9 -40 12 0 22 -45 15 -64 -9
-24 -44 -19 -70 9 -13 14 -27 25 -31 25 -13 1 -53 37 -53 49 0 6 -7 11 -15 11
-9 0 -15 9 -15 25 0 16 -6 25 -15 25 -8 0 -15 5 -15 10 0 6 -4 10 -10 10 -5 0
-10 -9 -10 -20 0 -11 5 -20 10 -20 6 0 10 -12 10 -28 0 -29 20 -63 57 -98 13
-12 23 -26 23 -33 0 -6 5 -11 11 -11 7 0 22 -11 34 -24 12 -13 32 -27 43 -31
12 -3 22 -11 22 -16 0 -5 56 -9 130 -9 107 0 132 3 136 15 4 8 15 15 26 15 12
0 31 11 44 25 13 14 32 25 44 25 11 0 20 7 20 15 0 9 9 15 25 15 14 0 25 5 25
10 0 6 7 10 15 10 9 0 18 7 21 15 4 8 17 15 30 15 13 0 24 4 24 10 0 5 11 12
25 16 14 3 25 10 25 14 0 4 11 11 25 14 14 4 25 11 25 16 0 6 11 10 24 10 13
0 26 7 30 15 3 8 17 15 31 15 14 0 25 4 25 10 0 5 11 12 25 16 14 3 25 10 25
15 0 5 10 9 23 9 12 0 31 7 41 15 12 9 42 15 73 15 29 0 53 5 53 10 0 6 37 10
90 10 53 0 90 -4 90 -10 0 -5 22 -10 49 -10 47 0 97 -19 129 -47 7 -7 20 -13
28 -13 8 0 14 -4 14 -10 0 -5 7 -10 15 -10 8 0 15 -7 15 -15 0 -9 -10 -15 -26
-15 -14 0 -32 7 -40 15 -9 8 -29 15 -45 15 -16 0 -29 4 -29 10 0 5 -18 13 -40
16 -22 4 -40 10 -40 15 0 5 -54 9 -120 9 -73 0 -120 -4 -120 -10 0 -5 -18 -10
-39 -10 -22 0 -46 -7 -55 -15 -8 -8 -26 -15 -40 -15 -16 0 -26 -6 -26 -15 0
-9 -9 -15 -25 -15 -14 0 -25 -4 -25 -10 0 -5 -6 -10 -14 -10 -8 0 -21 -6 -28
-12 -7 -7 -31 -22 -53 -33 -22 -11 -46 -26 -53 -32 -7 -7 -20 -13 -28 -13 -8
0 -14 -4 -14 -9 0 -5 -11 -12 -25 -15 -14 -4 -25 -11 -25 -16 0 -6 -11 -10
-24 -10 -13 0 -26 -7 -30 -15 -3 -8 -12 -15 -21 -15 -8 0 -15 -4 -15 -10 0 -5
-9 -10 -20 -10 -11 0 -23 -7 -26 -15 -4 -8 -17 -15 -30 -15 -13 0 -24 -4 -24
-10 0 -5 -11 -12 -25 -16 -14 -3 -25 -10 -25 -14 0 -5 -13 -11 -30 -15 -16 -4
-30 -11 -30 -16 0 -5 -63 -9 -145 -9 -80 0 -145 4 -145 9 0 5 -12 12 -26 15
-15 4 -32 12 -40 19 -33 29 -44 37 -54 37 -5 0 -10 7 -10 15 0 8 -7 15 -15 15
-8 0 -15 7 -15 15 0 8 -6 15 -14 15 -8 0 -16 6 -19 13 -2 6 -8 8 -13 4 -5 -4
-4 -11 2 -15 6 -4 14 -19 18 -34 3 -16 11 -28 16 -28 6 0 10 -5 10 -11 0 -13
20 -33 43 -42 9 -3 17 -11 17 -17 0 -5 9 -10 19 -10 10 0 21 -7 25 -15 3 -8
17 -15 31 -15 14 0 25 -4 25 -10 0 -6 52 -10 135 -10 74 0 135 4 135 9 0 5 18
11 40 15 22 3 40 11 40 16 0 6 11 10 25 10 14 0 25 4 25 9 0 5 14 12 30 16 17
4 30 11 30 16 0 5 11 11 25 15 14 3 25 10 25 15 0 5 11 9 25 9 16 0 25 6 25
15 0 8 7 15 15 15 8 0 15 4 15 9 0 5 11 12 25 15 14 4 25 11 25 16 0 6 11 10
24 10 13 0 26 7 30 15 3 8 15 15 26 15 11 0 20 5 20 10 0 6 7 10 15 10 9 0 18
7 21 15 4 8 17 15 30 15 15 0 24 6 24 15 0 9 9 15 25 15 14 0 25 4 25 9 0 5
14 12 30 16 17 4 30 11 30 16 0 5 10 9 23 9 13 0 32 7 43 15 27 21 231 21 258
0 11 -8 37 -15 58 -15 21 0 38 -4 38 -10 0 -5 18 -13 40 -16 22 -4 40 -10 40
-15 0 -5 11 -9 25 -9 14 0 28 -7 31 -15 4 -8 10 -15 15 -15 9 0 21 -9 54 -38
19 -17 19 -42 0 -42 -8 0 -15 7 -15 15 0 9 -9 15 -25 15 -14 0 -25 4 -25 9 0
4 -19 11 -42 14 -24 3 -44 11 -46 16 -4 13 -342 15 -342 2 0 -5 -18 -11 -40
-15 -22 -3 -40 -10 -40 -15 0 -5 -11 -12 -25 -15 -14 -4 -25 -11 -25 -16 0 -6
-11 -10 -25 -10 -14 0 -25 -4 -25 -9 0 -5 -13 -12 -30 -16 -16 -4 -30 -10 -30
-15 0 -4 -11 -11 -25 -14 -14 -4 -25 -11 -25 -16 0 -6 -13 -10 -30 -10 -16 0
-30 -4 -30 -10 0 -5 -11 -12 -25 -16 -14 -3 -25 -10 -25 -15 0 -5 -13 -9 -29
-9 -16 0 -36 -7 -45 -15 -8 -8 -31 -15 -50 -15 -20 0 -36 -4 -36 -10 0 -5 -18
-13 -40 -16 -22 -4 -40 -10 -40 -15 0 -5 -20 -9 -44 -9 -26 0 -51 -6 -60 -15
-10 -10 -35 -15 -75 -15 -34 0 -61 -4 -61 -10 0 -6 -33 -10 -80 -10 -47 0 -80
4 -80 10 0 6 -25 10 -55 10 -42 0 -55 3 -55 15 0 9 -9 15 -25 15 -14 0 -25 5
-25 10 0 6 -7 10 -15 10 -8 0 -15 7 -15 15 0 8 -7 15 -15 15 -9 0 -15 9 -15
25 0 14 -4 25 -9 25 -5 0 -12 14 -16 30 -4 17 -11 30 -16 30 -5 0 -9 22 -9 49
0 34 -4 51 -15 55 -9 3 -15 19 -15 41 0 20 -7 43 -15 51 -8 9 -15 26 -15 40 0
13 -4 24 -10 24 -5 0 -10 -18 -10 -40 0 -22 4 -40 9 -40 5 0 11 -28 13 -62 3
-35 10 -64 16 -66 7 -2 12 -21 12 -42 0 -21 7 -45 15 -54 8 -8 15 -29 15 -46
0 -31 39 -80 64 -80 6 0 20 -11 30 -25 13 -18 28 -25 52 -25 18 0 34 -6 37
-12 5 -17 364 -18 375 -2 4 6 29 14 57 17 27 3 51 10 53 16 2 6 19 11 39 11
19 0 41 7 49 15 9 8 29 15 45 15 16 0 29 5 29 10 0 6 11 10 25 10 14 0 28 7
31 15 4 9 19 15 39 15 20 0 35 6 39 15 3 8 17 15 31 15 14 0 25 5 25 10 0 6
11 10 24 10 14 0 31 7 40 15 8 8 24 15 36 15 12 0 28 7 36 15 9 8 24 15 35 15
10 0 19 5 19 10 0 6 11 10 24 10 14 0 31 7 40 15 9 9 33 15 64 15 31 0 52 5
54 13 4 9 38 12 126 12 83 0 125 -4 133 -12 7 -7 30 -13 51 -13 21 0 38 -4 38
-10 0 -5 11 -12 25 -16 14 -3 25 -10 25 -15 0 -5 7 -9 15 -9 8 0 15 -7 15 -15
0 -8 5 -15 10 -15 6 0 10 -11 10 -25 0 -14 -3 -25 -6 -25 -4 0 -17 11 -30 25
-13 14 -27 25 -33 25 -5 0 -11 6 -13 13 -4 9 -57 12 -223 12 -166 0 -219 -3
-222 -12 -3 -7 -18 -13 -34 -13 -16 0 -29 -4 -29 -10 0 -5 -22 -12 -50 -16
-27 -4 -50 -10 -50 -14 0 -4 -18 -10 -40 -14 -22 -3 -40 -11 -40 -16 0 -6 -12
-10 -26 -10 -14 0 -32 -7 -40 -15 -9 -8 -29 -15 -45 -15 -16 0 -29 -4 -29 -10
0 -5 -11 -10 -24 -10 -14 0 -31 -7 -40 -15 -8 -8 -26 -15 -40 -15 -14 0 -26
-4 -26 -10 0 -5 -18 -13 -40 -16 -22 -4 -40 -10 -40 -14 0 -4 -18 -10 -40 -14
-22 -3 -40 -11 -40 -16 0 -6 -24 -10 -54 -10 -35 0 -56 -5 -59 -12 -3 -10 -46
-13 -172 -13 -126 0 -169 3 -173 13 -2 6 -19 12 -39 12 -19 0 -41 7 -49 15 -9
8 -26 15 -40 15 -13 0 -24 5 -24 10 0 6 -7 10 -15 10 -8 0 -15 7 -15 15 0 8
-7 15 -15 15 -8 0 -15 7 -15 15 0 8 -4 15 -10 15 -5 0 -12 11 -16 25 -3 14
-10 25 -15 25 -5 0 -9 11 -9 24 0 13 -7 26 -15 30 -10 3 -15 19 -15 46 0 22
-4 40 -9 40 -5 0 -13 25 -16 55 -4 30 -11 55 -16 55 -5 0 -9 16 -9 35 0 24 -5
35 -15 35 -10 0 -15 10 -15 30 0 20 -5 30 -15 30 -8 0 -15 9 -15 20 0 11 -4
20 -10 20 -5 0 -10 -9 -10 -20 0 -11 4 -20 9 -20 4 0 11 -19 14 -42 3 -24 11
-44 16 -46 6 -2 11 -24 11 -49 0 -26 6 -51 15 -59 10 -10 15 -35 15 -75 0 -32
4 -59 9 -59 5 0 13 -25 16 -55 4 -30 11 -55 16 -55 5 0 9 -7 9 -15 0 -9 11
-26 25 -39 14 -13 25 -28 25 -35 0 -6 5 -11 10 -11 6 0 22 -11 35 -25 13 -15
39 -29 59 -32 20 -3 36 -9 36 -14 0 -4 71 -10 158 -13 86 -2 177 -7 202 -10
25 -4 147 -9 273 -12 125 -3 227 -9 227 -14 0 -4 21 -10 47 -13 26 -3 49 -10
51 -16 2 -6 21 -11 43 -11 28 0 39 -4 39 -15 0 -8 9 -15 20 -15 12 0 31 -11
44 -25 13 -14 32 -25 44 -25 11 0 22 -7 26 -15 3 -8 17 -15 31 -15 14 0 25 -4
25 -9 0 -5 41 -13 90 -17 50 -3 90 -10 90 -15 0 -5 26 -9 58 -9 67 0 101 -15
59 -25 -34 -9 -35 -25 -2 -25 14 0 25 5 25 10 0 6 11 10 25 10 14 0 28 7 31
15 4 8 17 15 30 15 13 0 24 4 24 9 0 5 11 12 25 15 14 4 25 11 25 16 0 6 7 10
16 10 12 0 14 9 12 43 l-3 42 -154 0 c-115 0 -155 3 -158 13 -3 8 -26 12 -69
12 -35 0 -64 4 -64 10 0 5 -18 13 -40 16 -22 4 -40 10 -40 15 0 5 -13 9 -29 9
-16 0 -36 7 -45 15 -8 8 -26 15 -40 15 -14 0 -26 4 -26 9 0 5 -13 12 -30 16
-16 4 -30 11 -30 16 0 5 -11 9 -25 9 -20 0 -25 5 -25 25 0 16 6 25 15 25 8 0
15 6 15 14 0 8 11 17 25 20 14 4 25 11 25 16 0 6 7 10 15 10 8 0 15 7 15 15 0
9 9 15 25 15 14 0 25 4 25 9 0 5 14 12 30 16 17 4 30 11 30 16 0 5 29 9 65 9
l65 0 0 -76 c0 -68 3 -79 24 -99 13 -12 27 -32 31 -43 3 -12 15 -22 25 -22 10
0 20 -7 24 -15 3 -9 19 -15 41 -15 19 0 35 -4 35 -10 0 -5 7 -10 15 -10 8 0
15 5 15 10 0 6 18 10 39 10 33 0 40 4 45 25 4 14 11 25 16 25 6 0 10 31 10 70
0 67 1 70 24 70 28 0 36 -21 36 -102 0 -55 1 -58 25 -58 16 0 25 6 25 15 0 8
4 15 9 15 5 0 13 25 16 55 4 30 11 55 16 55 5 0 9 -7 9 -15 0 -8 7 -15 15 -15
8 0 15 -7 15 -15 0 -8 5 -15 11 -15 6 0 17 -7 25 -15 12 -11 39 -15 110 -15
77 0 94 3 94 15 0 9 10 15 26 15 14 0 32 7 40 15 9 8 33 15 54 15 21 0 40 4
42 10 2 5 32 11 67 13 38 2 66 8 69 15 3 9 -32 12 -132 12 -90 0 -136 4 -136
11 0 16 25 37 54 45 14 3 26 10 26 15 0 5 11 9 24 9 13 0 26 5 28 11 2 6 25
13 51 16 75 9 54 23 -33 23 -47 0 -80 -4 -80 -10 0 -5 -16 -10 -35 -10 -19 0
-35 5 -35 10 0 6 5 10 10 10 6 0 10 7 10 15 0 8 7 15 15 15 8 0 15 4 15 9 0 5
14 12 30 16 17 4 30 10 30 15 0 4 23 11 50 15 28 4 50 11 50 16 0 5 18 9 40 9
22 0 40 4 40 9 0 11 -60 21 -132 21 -32 0 -58 3 -58 8 0 14 40 42 61 42 11 0
27 7 35 15 17 17 124 21 124 5 0 -5 11 -12 25 -16 14 -3 25 -10 25 -15 0 -5 6
-9 14 -9 8 0 22 -7 30 -16 21 -20 21 -64 1 -64 -8 0 -15 5 -15 10 0 6 -7 10
-15 10 -9 0 -15 -9 -15 -25 0 -16 6 -25 15 -25 8 0 15 -6 15 -14 0 -8 4 -16 9
-18 4 -1 12 -13 15 -25 7 -20 4 -23 -23 -23 -17 0 -31 5 -31 10 0 6 -11 10
-25 10 -14 0 -25 -4 -25 -10 0 -5 11 -10 25 -10 16 0 25 -6 25 -15 0 -8 7 -15
15 -15 8 0 15 -7 15 -15 0 -8 5 -15 10 -15 6 0 10 -4 10 -10 0 -5 -11 -10 -25
-10 -14 0 -25 5 -25 10 0 6 -11 10 -25 10 -14 0 -25 -2 -25 -5 0 -11 41 -45
55 -45 8 0 18 -12 21 -27 4 -16 11 -31 16 -34 5 -3 12 -26 15 -50 3 -24 11
-47 17 -51 13 -8 8 -13 -21 -22 -17 -6 -23 -3 -23 8 0 23 -315 24 -324 1 -3
-8 -15 -15 -26 -15 -11 0 -20 -4 -20 -10 0 -5 -7 -10 -15 -10 -9 0 -18 -7 -21
-15 -4 -8 -17 -15 -30 -15 -15 0 -24 -6 -24 -15 0 -8 -7 -15 -15 -15 -8 0 -15
-4 -15 -10 0 -5 14 -10 30 -10 17 0 30 4 30 9 0 5 11 12 25 15 14 4 25 11 25
16 0 6 11 10 25 10 14 0 25 4 25 9 0 5 14 12 30 16 17 4 30 11 30 16 0 5 54 9
120 9 66 0 120 -4 120 -9 0 -5 11 -12 25 -15 14 -4 25 -11 25 -16 0 -6 7 -10
15 -10 8 0 15 -7 15 -15 0 -8 7 -15 15 -15 8 0 15 -5 15 -11 0 -7 11 -22 25
-35 14 -13 25 -30 25 -39 0 -8 7 -15 15 -15 10 0 15 -10 15 -30 0 -16 5 -30
10 -30 6 0 10 -16 10 -35 0 -22 6 -38 15 -41 8 -4 15 -17 15 -30 0 -15 6 -24
15 -24 8 0 15 -5 15 -11 0 -7 11 -22 25 -35 14 -13 25 -32 25 -44 0 -11 7 -20
15 -20 8 0 15 -7 15 -15 0 -8 4 -15 10 -15 5 0 12 -11 16 -25 3 -14 10 -25 15
-25 5 0 9 -7 9 -15 0 -8 7 -15 15 -15 8 0 15 -5 15 -11 0 -13 25 -39 38 -39 5
0 13 -11 16 -25 4 -14 11 -25 16 -25 6 0 10 -7 10 -15 0 -8 7 -15 15 -15 8 0
15 -4 15 -10 0 -5 11 -12 25 -16 14 -3 25 -10 25 -14 0 -5 14 -11 30 -15 17
-4 30 -11 30 -16 0 -5 23 -9 50 -9 28 0 50 4 50 9 0 5 11 12 25 15 15 4 27 16
31 31 3 14 10 25 15 25 5 0 9 11 9 25 0 16 6 25 15 25 11 0 15 11 15 40 0 22
5 40 10 40 6 0 10 18 10 40 0 27 5 43 15 46 8 4 15 15 15 26 0 11 7 26 15 34
30 31 18 44 -38 44 -31 0 -61 6 -73 15 -12 9 -42 14 -81 15 -35 0 -63 4 -63 9
0 5 -18 11 -40 15 -22 3 -40 11 -40 16 0 6 -18 10 -40 10 -29 0 -40 4 -40 15
0 9 -9 15 -25 15 -14 0 -25 4 -25 9 0 5 -13 12 -30 16 -16 4 -30 11 -30 16 0
5 -11 9 -24 9 -13 0 -29 7 -36 15 -7 8 -25 15 -41 15 -24 0 -29 4 -29 25 0 16
6 25 15 25 8 0 15 7 15 15 0 8 9 15 19 15 10 0 21 7 25 15 3 8 12 15 21 15 8
0 15 4 15 9 0 5 11 12 25 15 14 4 25 11 25 16 0 6 22 10 49 10 l48 0 8 -82 c3
-44 12 -87 18 -94 48 -54 63 -64 92 -64 14 0 25 -4 25 -10 0 -5 21 -10 48 -10
64 0 112 41 112 94 0 25 4 36 15 36 8 0 15 -7 15 -15 0 -8 5 -15 10 -15 6 0
10 -22 10 -49 0 -62 7 -81 30 -81 21 0 30 19 30 66 0 19 5 34 10 34 6 0 10 18
10 40 0 22 -4 40 -10 40 -5 0 -10 25 -10 55 0 42 -3 55 -15 55 -8 0 -15 7 -15
15 0 8 -4 15 -9 15 -5 0 -12 9 -16 19 -3 11 -16 23 -28 27 -11 4 -27 13 -35
20 -7 8 -20 14 -28 14 -8 0 -14 5 -14 10 0 6 -47 10 -120 10 -66 0 -120 -4
-120 -9 0 -5 -23 -11 -52 -13 -29 -3 -54 -11 -56 -17 -2 -6 -21 -11 -42 -11
-24 0 -40 -5 -44 -15 -3 -8 -17 -15 -31 -15 -14 0 -25 -4 -25 -10 0 -5 -9 -10
-20 -10 -11 0 -20 5 -20 10 0 6 9 10 20 10 11 0 20 7 20 15 0 9 9 15 24 15 13
0 26 7 30 15 3 8 17 15 31 15 14 0 25 5 25 10 0 6 7 10 15 10 8 0 15 7 15 15
0 11 11 15 40 15 22 0 40 4 40 10 0 5 18 13 40 16 22 4 40 10 40 15 0 5 36 9
80 9 44 0 80 -4 80 -9 0 -5 12 -12 26 -15 14 -4 35 -16 47 -26 16 -15 23 -17
29 -8 11 19 10 38 -3 38 -7 0 -22 11 -35 25 -13 14 -26 25 -29 25 -4 0 -13 7
-21 15 -22 22 -222 22 -230 0 -4 -11 -21 -15 -55 -15 -37 0 -49 -4 -49 -15 0
-9 -9 -15 -25 -15 -14 0 -25 -4 -25 -9 0 -5 -13 -12 -30 -16 -16 -4 -30 -11
-30 -16 0 -5 -14 -9 -31 -9 -18 0 -37 -7 -44 -16 -8 -11 -19 -14 -33 -10 -25
8 -30 26 -7 26 8 0 15 4 15 9 0 5 10 13 23 17 12 4 32 17 44 30 12 13 31 24
43 24 11 0 20 4 20 10 0 5 11 12 25 16 14 3 25 10 25 15 0 5 11 9 25 9 14 0
28 7 31 15 4 10 20 15 45 15 21 0 39 5 39 10 0 6 32 10 75 10 43 0 75 -4 75
-10 0 -5 14 -10 30 -10 20 0 30 5 30 15 0 8 -6 15 -14 15 -8 0 -16 6 -19 13
-5 16 -229 15 -235 -2 -2 -6 -15 -11 -28 -11 -15 0 -24 -6 -24 -15 0 -11 -11
-15 -39 -15 -22 0 -41 -5 -43 -11 -2 -6 -27 -14 -56 -17 -43 -4 -52 -2 -52 12
0 9 7 16 15 16 8 0 15 7 15 15 0 9 9 15 25 15 14 0 25 5 25 10 0 6 7 10 15 10
8 0 15 7 15 15 0 9 9 15 24 15 13 0 26 7 30 15 3 8 17 15 31 15 14 0 25 4 25
9 0 5 18 11 39 15 22 3 42 12 44 18 4 9 8 10 14 2 4 -6 30 -14 58 -17 27 -3
51 -10 53 -16 2 -6 14 -11 26 -11 13 0 32 -11 42 -25 10 -14 24 -25 31 -25 7
0 13 -5 13 -10 0 -6 11 -21 25 -34 14 -13 25 -32 25 -44 0 -11 7 -22 15 -26 8
-3 15 -15 15 -26 0 -12 9 -30 20 -42 l20 -22 20 22 c11 12 20 33 20 47 0 14 4
25 9 25 5 0 13 25 16 55 4 30 11 55 16 55 5 0 9 34 9 75 0 41 -4 75 -9 75 -5
0 -11 18 -15 40 -3 22 -11 40 -16 40 -6 0 -10 9 -10 19 0 11 -7 26 -15 35 -8
8 -15 22 -15 31 0 9 -11 26 -25 39 -14 13 -25 28 -25 35 0 6 -4 11 -10 11 -5
0 -12 11 -16 25 -6 24 -34 36 -34 14 0 -14 -25 -39 -39 -39 -6 0 -11 11 -11
25 0 16 -6 25 -15 25 -8 0 -15 4 -15 10 0 5 -11 12 -25 16 -14 3 -25 10 -25
15 0 5 -25 9 -55 9 -30 0 -55 -4 -55 -10 0 -5 -10 -10 -22 -10 -30 0 -58 -19
-40 -27 6 -2 12 -11 12 -19 0 -8 7 -14 15 -14 8 0 15 -7 15 -15 0 -8 5 -15 10
-15 6 0 10 -4 10 -10 0 -5 -7 -10 -15 -10 -8 0 -15 4 -15 9 0 5 -10 13 -22 17
-13 4 -33 17 -45 30 -25 27 -63 32 -63 9 0 -8 -4 -15 -10 -15 -5 0 -12 -11
-16 -25 -3 -14 -10 -25 -15 -25 -5 0 -9 -7 -9 -15 0 -8 -7 -15 -15 -15 -8 0
-15 -4 -15 -10 0 -5 -7 -10 -16 -10 -11 0 -14 6 -8 23 3 12 11 24 15 25 12 5
12 242 0 242 -4 0 -12 32 -15 71 -6 57 -10 70 -23 65 -8 -3 -16 -6 -19 -6 -2
0 -7 -18 -10 -40 -7 -41 -20 -52 -30 -25 -4 8 -10 15 -15 15 -5 0 -9 -7 -9
-15 0 -8 -5 -15 -11 -15 -14 0 -39 -25 -39 -39 0 -6 -7 -11 -15 -11 -8 0 -15
-7 -15 -15 0 -8 -7 -15 -15 -15 -8 0 -15 -5 -15 -11 0 -19 -28 -39 -54 -39
-14 0 -26 4 -26 9 0 5 -10 13 -22 17 -13 4 -25 10 -28 14 -3 4 -22 10 -42 13
-29 4 -38 2 -38 -9 0 -8 5 -14 10 -14 6 0 10 -7 10 -15 0 -8 7 -15 15 -15 22
0 18 -17 -5 -23 -24 -6 -60 2 -60 14 0 5 -9 9 -20 9 -20 0 -110 81 -110 99 0
6 -5 11 -11 11 -6 0 -33 23 -59 50 -26 28 -53 50 -59 50 -6 0 -11 7 -11 15 0
9 -9 15 -25 15 -16 0 -25 6 -25 15 0 8 -7 15 -15 15 -8 0 -15 4 -15 9 0 5 -11
12 -25 15 -14 4 -25 11 -25 16 0 6 -7 10 -15 10 -8 0 -15 4 -15 10 0 5 -11 12
-25 16 -14 3 -25 10 -25 15 0 5 -7 9 -15 9 -8 0 -15 7 -15 15 0 9 -9 15 -24
15 -13 0 -26 7 -30 15 -3 8 -17 15 -31 15 -14 0 -25 4 -25 10 0 5 -11 12 -25
16 -14 3 -25 10 -25 15 0 5 -7 9 -15 9 -8 0 -15 -3 -15 -6z"/>
<path d="M7730 4160 c0 -5 -18 -10 -40 -10 -22 0 -40 -4 -40 -9 0 -5 -10 -13
-22 -17 -13 -4 -33 -17 -45 -30 -12 -13 -25 -24 -28 -24 -6 0 -20 -11 -50 -37
-7 -7 -18 -13 -24 -13 -6 0 -11 -7 -11 -15 0 -8 -9 -15 -20 -15 -12 0 -31 -11
-43 -24 -12 -13 -32 -26 -44 -30 -13 -4 -23 -12 -23 -17 0 -5 -9 -9 -20 -9
-11 0 -20 -4 -20 -10 0 -5 -11 -12 -25 -16 -14 -3 -25 -10 -25 -15 0 -5 -11
-9 -24 -9 -14 0 -31 -7 -40 -15 -8 -8 -28 -15 -44 -15 -16 0 -35 -7 -42 -15
-10 -12 -39 -15 -141 -15 -79 0 -129 -4 -129 -10 0 -5 5 -10 10 -10 6 0 10 -7
10 -15 0 -8 7 -15 15 -15 8 0 15 -7 15 -15 0 -8 7 -15 15 -15 8 0 15 -7 15
-15 0 -8 5 -15 10 -15 6 0 10 -4 10 -10 0 -5 -14 -10 -30 -10 -30 0 -31 -1
-24 -37 4 -21 10 -40 15 -43 4 -3 11 -18 14 -33 4 -15 11 -27 16 -27 5 0 9
-11 9 -25 0 -16 6 -25 15 -25 12 0 15 -13 15 -55 0 -30 4 -55 10 -55 5 0 12
-11 16 -25 4 -18 13 -25 30 -25 15 0 24 -6 24 -15 0 -8 7 -15 15 -15 8 0 15
-4 15 -10 0 -5 5 -10 10 -10 6 0 10 16 10 35 0 19 -4 35 -10 35 -5 0 -10 9
-10 20 0 19 4 20 38 14 20 -4 40 -11 43 -17 13 -19 49 32 49 68 0 24 5 35 15
35 8 0 15 5 15 10 0 6 11 10 25 10 16 0 25 6 25 15 0 8 5 15 11 15 14 0 39 25
39 39 0 6 7 11 15 11 8 0 15 7 15 15 0 8 5 15 11 15 14 0 39 25 39 39 0 6 7
11 15 11 8 0 15 7 15 15 0 8 -7 15 -15 15 -8 0 -15 4 -15 9 0 5 -9 13 -21 16
-24 8 -59 36 -59 47 0 5 14 8 30 8 17 0 30 -4 30 -9 0 -5 10 -13 23 -17 12 -4
25 -11 28 -16 12 -18 75 -21 92 -4 8 9 21 16 27 16 6 0 13 7 16 15 4 8 14 15
24 15 10 0 20 7 24 15 3 8 12 15 21 15 8 0 15 5 15 10 0 6 9 10 20 10 11 0 23
7 26 15 4 8 17 15 30 15 13 0 24 4 24 10 0 5 11 12 25 16 14 3 25 10 25 15 0
5 38 9 85 9 47 0 85 -3 85 -8 0 -21 -43 -42 -85 -42 -31 0 -47 -5 -51 -15 -4
-8 -12 -15 -20 -15 -8 0 -14 -4 -14 -10 0 -5 -11 -12 -25 -16 -14 -3 -25 -10
-25 -15 0 -5 -7 -9 -15 -9 -8 0 -15 -7 -15 -15 0 -8 -9 -15 -20 -15 -11 0 -20
-5 -20 -10 0 -6 -7 -13 -16 -17 -22 -8 -204 -189 -204 -203 0 -5 -7 -10 -15
-10 -9 0 -15 -9 -15 -25 0 -16 -6 -25 -15 -25 -9 0 -15 -9 -15 -25 0 -14 -4
-25 -10 -25 -5 0 -10 -7 -10 -15 0 -9 -7 -18 -15 -21 -8 -4 -15 -17 -15 -30 0
-13 -4 -24 -10 -24 -5 0 -12 -11 -16 -25 -3 -14 -10 -25 -15 -25 -5 0 -9 -6
-9 -14 0 -8 -6 -21 -12 -28 -21 -23 -48 -78 -48 -99 0 -10 -4 -19 -9 -19 -5 0
-12 -11 -15 -25 -4 -14 -11 -25 -16 -25 -6 0 -10 -12 -10 -26 0 -14 -7 -32
-15 -40 -8 -9 -15 -24 -15 -35 0 -11 -11 -30 -25 -43 -14 -13 -25 -28 -25 -35
0 -6 -7 -11 -15 -11 -8 0 -15 -5 -15 -11 0 -6 -22 -33 -50 -59 -27 -26 -50
-50 -50 -54 0 -16 45 -3 66 19 13 14 26 25 29 25 16 0 85 68 85 85 0 8 5 15
10 15 6 0 14 8 17 18 4 9 12 22 17 29 25 29 32 39 39 56 3 9 11 17 17 17 5 0
10 16 10 35 0 19 4 35 9 35 5 0 12 14 16 30 4 17 11 30 16 30 5 0 9 11 9 24 0
14 7 31 15 40 8 8 15 26 15 40 0 14 4 26 9 26 5 0 12 14 16 30 4 17 11 30 16
30 5 0 11 11 15 25 3 14 10 25 15 25 5 0 9 7 9 15 0 8 4 15 9 15 5 0 13 10 17
22 7 24 108 128 124 128 6 0 10 7 10 15 0 8 7 15 15 15 8 0 15 4 15 10 0 5 11
12 25 16 14 3 25 12 25 20 0 8 5 14 11 14 7 0 22 11 35 25 13 14 28 25 34 25
6 0 21 10 33 23 12 12 40 31 62 42 22 11 42 23 45 27 3 4 105 10 228 14 l222
7 0 23 c0 13 -4 24 -9 24 -5 0 -12 11 -15 25 -4 14 -11 25 -16 25 -6 0 -10 7
-10 15 0 8 -7 15 -15 15 -8 0 -15 7 -15 15 0 8 -5 15 -11 15 -6 0 -28 18 -50
40 -22 22 -46 40 -54 40 -8 0 -15 5 -15 10 0 6 -7 10 -15 10 -8 0 -15 7 -15
15 0 8 -5 15 -11 15 -6 0 -17 7 -25 15 -9 8 -29 15 -45 15 -16 0 -29 4 -29 9
0 5 -18 11 -40 15 -22 3 -40 11 -40 16 0 6 -29 10 -65 10 -37 0 -65 4 -65 10
0 6 -13 10 -30 10 -16 0 -30 -4 -30 -10z"/>
<path d="M3860 3760 c0 -5 9 -10 20 -10 11 0 20 5 20 10 0 6 -9 10 -20 10 -11
0 -20 -4 -20 -10z"/>
<path d="M5380 3680 c0 -5 5 -10 10 -10 6 0 10 5 10 10 0 6 -4 10 -10 10 -5 0
-10 -4 -10 -10z"/>
<path d="M3670 3630 c0 -5 5 -10 10 -10 6 0 10 5 10 10 0 6 -4 10 -10 10 -5 0
-10 -4 -10 -10z"/>
<path d="M6080 3255 c0 -8 5 -15 10 -15 6 0 10 -7 10 -15 0 -8 7 -15 15 -15 9
0 15 -9 15 -25 0 -14 4 -25 9 -25 5 0 12 -11 15 -25 4 -14 11 -25 16 -25 6 0
10 -9 10 -19 0 -11 7 -26 15 -35 8 -8 15 -24 15 -35 0 -12 6 -21 15 -21 8 0
15 -7 15 -15 0 -8 4 -15 9 -15 5 0 11 -18 15 -40 3 -22 11 -40 16 -40 6 0 10
-22 10 -50 0 -27 4 -50 9 -50 5 0 12 -12 15 -26 7 -25 56 -84 71 -84 4 0 13
-7 21 -15 10 -10 35 -15 70 -15 30 0 54 -4 54 -10 0 -5 6 -10 14 -10 8 0 21
-6 28 -12 7 -7 30 -22 51 -32 27 -14 37 -26 37 -43 0 -18 -5 -23 -25 -23 -14
0 -25 4 -25 9 0 5 -11 12 -25 15 -14 4 -25 11 -25 16 0 6 -13 10 -30 10 -16 0
-30 4 -30 10 0 5 -11 12 -25 16 -14 3 -25 10 -25 15 0 5 -11 9 -25 9 -14 0
-28 7 -31 15 -4 8 -17 15 -30 15 -27 0 -29 -18 -15 -119 7 -49 -4 -128 -20
-141 -3 -3 -9 -23 -12 -45 -4 -22 -11 -41 -17 -43 -5 -2 -10 -25 -10 -52 0
-33 -5 -50 -15 -54 -9 -3 -15 -19 -15 -41 0 -19 -4 -35 -9 -35 -5 0 -12 -13
-16 -30 -4 -16 -11 -30 -16 -30 -5 0 -9 -11 -9 -25 0 -16 -6 -25 -15 -25 -8 0
-15 -7 -15 -15 0 -8 -4 -15 -9 -15 -5 0 -12 -11 -15 -25 -4 -14 -11 -25 -16
-25 -6 0 -10 -7 -10 -15 0 -8 -7 -15 -15 -15 -8 0 -15 -5 -15 -11 0 -14 -25
-39 -39 -39 -6 0 -11 -7 -11 -15 0 -8 -7 -15 -15 -15 -8 0 -15 -4 -15 -10 0
-5 -11 -12 -25 -16 -14 -3 -25 -10 -25 -14 0 -4 -11 -11 -25 -14 -14 -4 -25
-11 -25 -16 0 -6 -13 -10 -29 -10 -16 0 -31 -5 -33 -11 -2 -5 -38 -13 -81 -16
-42 -3 -77 -10 -77 -14 0 -5 -29 -9 -65 -9 -36 0 -65 4 -65 9 0 5 -49 12 -110
16 -60 3 -110 11 -110 16 0 5 -18 9 -40 9 -22 0 -40 4 -40 10 0 5 -11 12 -25
16 -14 3 -25 10 -25 14 0 4 -11 11 -25 14 -14 4 -25 11 -25 16 0 6 -11 10 -25
10 -14 0 -28 7 -31 15 -5 12 -25 15 -95 15 -70 0 -91 -3 -95 -15 -4 -8 -17
-15 -30 -15 -19 0 -24 -5 -24 -25 0 -16 -6 -25 -15 -25 -8 0 -15 -7 -15 -15 0
-8 -4 -15 -10 -15 -5 0 -10 -7 -10 -15 0 -8 -7 -15 -15 -15 -12 0 -15 -18 -15
-105 0 -62 4 -105 10 -105 5 0 13 -18 16 -40 4 -22 10 -40 14 -40 12 0 20 -44
10 -54 -6 -6 -30 12 -65 47 -30 31 -57 57 -60 57 -3 0 -5 -11 -5 -25 0 -16 6
-25 15 -25 8 0 15 -7 15 -15 0 -8 5 -15 10 -15 6 0 10 -4 10 -10 0 -14 -39
-12 -54 3 -8 7 -17 23 -20 35 -4 12 -11 22 -16 22 -5 0 -11 14 -15 30 -4 16
-11 30 -16 30 -5 0 -9 11 -9 25 0 16 -6 25 -15 25 -12 0 -15 -14 -15 -65 0
-51 3 -65 15 -65 8 0 15 -5 15 -11 0 -6 14 -24 30 -41 17 -16 30 -33 30 -38 0
-31 -53 -10 -97 40 -40 44 -43 49 -43 65 0 8 -7 15 -15 15 -9 0 -15 9 -15 25
0 14 -4 25 -9 25 -5 0 -11 18 -15 40 -3 22 -11 40 -16 40 -6 0 -10 11 -10 25
0 16 -6 25 -16 25 -14 0 -15 -7 -11 -37 4 -21 11 -39 17 -41 5 -2 10 -26 10
-53 0 -27 4 -49 9 -49 5 0 12 -12 16 -27 3 -15 17 -37 31 -50 13 -12 24 -31
24 -43 0 -11 7 -20 15 -20 8 0 15 -5 15 -11 0 -15 22 -35 48 -43 12 -4 22 -12
22 -17 0 -5 9 -9 20 -9 11 0 20 -4 20 -10 0 -6 42 -10 105 -10 63 0 105 4 105
10 0 6 85 10 236 10 196 0 238 3 250 15 9 8 29 15 45 15 16 0 29 4 29 10 0 5
18 13 40 16 22 4 40 10 40 15 0 5 7 9 15 9 8 0 15 7 15 15 0 8 5 15 11 15 14
0 39 25 39 39 0 6 7 11 15 11 8 0 15 7 15 15 0 8 5 15 11 15 13 0 39 25 39 38
0 6 7 12 15 16 8 3 15 12 15 21 0 19 36 55 55 55 9 0 18 7 21 15 4 9 19 15 39
15 20 0 35 6 39 15 3 8 17 15 31 15 14 0 25 5 25 10 0 6 7 10 15 10 8 0 15 7
15 15 0 9 9 15 25 15 16 0 25 6 25 15 0 8 7 15 15 15 8 0 15 4 15 9 0 5 11 12
25 15 14 4 25 11 25 16 0 6 7 10 15 10 8 0 15 7 15 15 0 9 9 15 21 15 12 0 32
11 45 25 13 14 28 25 34 25 5 0 10 5 10 11 0 14 25 39 39 39 6 0 11 7 11 15 0
8 7 15 15 15 8 0 15 7 15 15 0 8 5 15 11 15 14 0 39 25 39 39 0 6 5 11 11 11
13 0 69 55 69 68 0 5 7 12 15 16 8 3 15 15 15 26 0 11 5 20 10 20 6 0 10 7 10
15 0 8 7 15 15 15 9 0 15 9 15 25 0 14 5 25 10 25 6 0 14 8 17 18 4 9 12 22
17 29 31 35 36 43 36 58 0 8 4 15 9 15 5 0 13 10 17 22 3 12 13 28 20 36 8 7
14 20 14 28 0 8 5 14 10 14 6 0 10 7 10 15 0 8 7 15 15 15 9 0 15 9 15 21 0
12 11 32 25 45 14 13 25 32 25 44 0 11 7 20 15 20 8 0 15 7 15 15 0 8 4 15 9
15 5 0 12 11 15 25 4 14 11 25 16 25 6 0 10 41 10 100 0 126 -10 140 -100 140
-33 0 -60 -4 -60 -9 0 -5 -11 -12 -25 -15 -14 -4 -25 -11 -25 -16 0 -6 -10
-10 -23 -10 -13 0 -27 -4 -32 -9 -11 -10 -105 9 -105 21 0 5 -7 8 -15 8 -8 0
-15 6 -15 14 0 8 -11 17 -25 20 -14 4 -25 11 -25 16 0 6 -7 10 -15 10 -9 0
-15 9 -15 25 0 16 -6 25 -15 25 -8 0 -15 7 -15 15 0 8 -5 15 -11 15 -11 0 -39
25 -39 35 0 3 -11 16 -24 28 -13 12 -26 32 -30 45 -4 12 -12 22 -17 22 -5 0
-9 7 -9 15 0 8 -7 15 -15 15 -8 0 -15 7 -15 15 0 8 -4 15 -10 15 -5 0 -12 11
-16 25 -3 14 -10 25 -15 25 -5 0 -9 7 -9 15 0 9 -9 15 -25 15 -16 0 -25 -6
-25 -15z m-1290 -1905 c0 -5 -4 -10 -10 -10 -5 0 -10 5 -10 10 0 6 5 10 10 10
6 0 10 -4 10 -10z"/>
<path d="M5006 2770 c-3 -22 -11 -40 -16 -40 -6 0 -10 -7 -10 -15 0 -8 -5 -15
-11 -15 -14 0 -39 -25 -39 -39 0 -6 -7 -11 -15 -11 -8 0 -15 -4 -15 -10 0 -5
-18 -13 -40 -16 -22 -4 -40 -10 -40 -15 0 -5 -13 -9 -29 -9 -16 0 -36 -7 -45
-15 -8 -8 -19 -15 -25 -15 -6 0 -11 -7 -11 -15 0 -8 -4 -15 -10 -15 -5 0 -10
-4 -10 -9 0 -4 82 -10 182 -13 125 -3 183 -8 186 -16 2 -8 32 -12 82 -12 44 0
80 -4 82 -10 2 -6 33 -13 71 -17 37 -3 67 -10 67 -14 0 -5 11 -9 24 -9 14 0
31 -7 40 -15 8 -8 24 -15 36 -15 12 0 28 -7 36 -15 9 -8 29 -15 45 -15 16 0
29 -4 29 -10 0 -5 123 -10 317 -12 242 -2 317 -6 321 -15 5 -18 32 -16 32 1 0
8 -7 21 -15 30 -20 19 -19 52 1 60 11 4 14 16 12 43 -4 46 -28 58 -28 14 0
-20 -5 -31 -14 -31 -8 0 -16 -4 -18 -9 -1 -4 -13 -12 -25 -15 -22 -7 -23 -5
-23 54 0 45 -3 61 -12 58 -7 -3 -14 -19 -16 -37 -4 -37 -33 -71 -62 -71 -24 0
-25 4 -4 35 16 25 16 66 -1 66 -5 0 -11 -10 -13 -21 -4 -23 -31 -60 -44 -60
-5 0 -8 7 -8 15 0 8 -4 15 -10 15 -5 0 -13 12 -16 27 -13 52 -54 73 -54 28 0
-14 5 -25 10 -25 6 0 10 -18 10 -40 0 -33 -3 -40 -20 -40 -13 0 -22 9 -26 25
-3 14 -10 25 -15 25 -5 0 -9 6 -9 14 0 19 -46 66 -65 66 -8 0 -15 -7 -15 -15
0 -8 5 -15 10 -15 6 0 10 -18 10 -40 l0 -40 -40 0 c-22 0 -40 5 -40 11 0 6 -7
17 -15 25 -8 9 -15 24 -15 35 0 14 -7 19 -25 19 -16 0 -25 -6 -25 -15 0 -8 -7
-15 -15 -15 -8 0 -15 -7 -15 -15 0 -12 -15 -15 -74 -15 -63 0 -74 3 -78 18 -7
25 2 82 13 82 5 0 9 9 9 20 0 11 5 20 10 20 6 0 10 5 10 10 0 15 -39 12 -55
-4 -8 -7 -17 -25 -21 -40 -3 -14 -10 -26 -15 -26 -5 0 -9 -13 -9 -30 0 -32
-11 -36 -57 -24 -16 4 -23 14 -23 30 0 13 4 24 9 24 5 0 12 14 16 30 4 17 11
30 16 30 5 0 9 18 9 40 0 45 -14 54 -24 15 -4 -14 -11 -25 -16 -25 -6 0 -10
-7 -10 -16 0 -25 -25 -43 -69 -50 -23 -4 -41 -10 -41 -15 0 -5 -11 -9 -25 -9
-22 0 -25 4 -25 40 0 22 5 40 10 40 6 0 10 28 10 65 0 36 -4 65 -8 65 -12 0
-42 -56 -42 -79 0 -12 -6 -21 -15 -21 -8 0 -15 -7 -15 -15 0 -9 -10 -15 -26
-15 -25 0 -26 2 -23 53 3 74 0 107 -10 107 -5 0 -11 -18 -15 -40z"/>
<path d="M3320 1330 c0 -5 5 -10 10 -10 6 0 10 5 10 10 0 6 -4 10 -10 10 -5 0
-10 -4 -10 -10z"/>
<path d="M3800 1325 c0 -8 7 -15 15 -15 8 0 15 -5 15 -11 0 -14 25 -39 39 -39
6 0 11 -7 11 -15 0 -8 5 -15 11 -15 7 0 22 -11 35 -25 13 -14 30 -25 39 -25 9
0 18 -7 21 -15 4 -8 10 -15 16 -15 5 0 16 -6 23 -12 33 -30 45 -38 54 -38 5 0
11 -7 15 -15 3 -8 17 -15 31 -15 14 0 25 -4 25 -10 0 -5 11 -12 25 -16 14 -3
25 -10 25 -14 0 -4 11 -11 25 -14 14 -4 25 -11 25 -16 0 -6 14 -10 30 -10 20
0 30 -5 30 -15 0 -9 9 -15 25 -15 14 0 25 -4 25 -9 0 -5 14 -12 30 -16 17 -4
30 -11 30 -16 0 -5 9 -9 20 -9 20 0 60 -28 60 -42 0 -5 -7 -8 -15 -8 -8 0 -15
5 -15 10 0 6 -13 10 -29 10 -16 0 -36 7 -45 15 -9 9 -33 15 -61 15 -31 0 -47
5 -51 15 -4 10 -20 15 -45 15 -21 0 -39 5 -39 10 0 6 -11 10 -25 10 -14 0 -28
7 -31 15 -4 8 -17 15 -30 15 -15 0 -24 6 -24 15 0 9 -9 15 -24 15 -13 0 -26 6
-29 13 -2 7 -8 8 -13 3 -5 -5 -4 -11 4 -13 6 -3 12 -11 12 -19 0 -8 7 -14 15
-14 8 0 15 -4 15 -10 0 -5 11 -12 25 -16 14 -3 25 -10 25 -14 0 -4 11 -11 25
-14 14 -4 25 -11 25 -16 0 -6 14 -10 30 -10 17 0 30 -4 30 -10 0 -5 16 -12 35
-16 19 -3 35 -10 35 -15 0 -5 9 -9 19 -9 11 0 26 -7 35 -15 8 -8 31 -15 50
-15 26 0 36 -4 36 -16 0 -14 -16 -15 -127 -12 -90 2 -128 7 -131 16 -2 7 -20
12 -42 12 -24 0 -40 5 -44 15 -3 9 -19 15 -41 15 -19 0 -35 5 -35 10 0 6 -13
10 -29 10 -16 0 -36 7 -45 15 -8 8 -26 15 -40 15 -14 0 -26 4 -26 10 0 5 -11
12 -25 16 -14 3 -25 10 -25 15 0 5 -6 9 -14 9 -8 0 -21 6 -28 13 -7 6 -31 21
-53 32 -22 11 -50 30 -62 43 -12 12 -29 22 -38 22 -9 0 -18 7 -21 15 -4 8 -17
15 -30 15 -15 0 -24 6 -24 15 0 8 -7 15 -15 15 -8 0 -15 4 -15 9 0 5 -11 12
-24 15 -14 3 -28 15 -31 26 -3 11 -11 20 -16 20 -5 0 -9 7 -9 15 0 8 -7 15
-15 15 -8 0 -15 5 -15 11 0 14 -25 39 -39 39 -6 0 -11 7 -11 15 0 8 -4 15 -10
15 -5 0 -10 -7 -10 -15 0 -8 5 -15 10 -15 6 0 10 -11 10 -25 0 -16 6 -25 15
-25 9 0 15 -9 15 -25 0 -16 6 -25 15 -25 8 0 15 -5 15 -11 0 -14 25 -39 39
-39 6 0 11 -7 11 -15 0 -9 9 -15 25 -15 16 0 25 -6 25 -15 0 -8 7 -15 15 -15
8 0 15 -4 15 -10 0 -5 11 -12 25 -16 14 -3 25 -10 25 -15 0 -5 7 -9 15 -9 8 0
15 -7 15 -15 0 -9 9 -15 25 -15 16 0 25 -6 25 -15 0 -8 7 -15 15 -15 8 0 15
-4 15 -10 0 -5 7 -10 15 -10 8 0 15 -7 15 -15 0 -9 9 -15 25 -15 14 0 25 -4
25 -9 0 -5 14 -12 30 -16 17 -4 30 -11 30 -16 0 -5 11 -9 24 -9 14 0 31 -7 40
-15 8 -8 26 -15 40 -15 16 0 26 -6 26 -15 0 -11 11 -15 40 -15 22 0 40 -4 40
-9 0 -4 21 -11 47 -14 26 -3 49 -10 51 -16 2 -6 27 -11 57 -11 32 0 55 -5 57
-12 2 -6 31 -13 66 -16 34 -2 62 -8 62 -13 0 -5 11 -9 24 -9 31 0 56 -10 56
-21 0 -5 -22 -9 -49 -9 -31 0 -51 -5 -54 -12 -3 -10 -46 -13 -172 -13 -126 0
-169 3 -173 13 -2 8 -31 12 -98 12 -52 0 -94 4 -94 9 0 5 -18 11 -40 15 -22 3
-40 11 -40 16 0 6 -10 10 -23 10 -13 0 -32 7 -43 15 -10 8 -29 15 -41 15 -13
0 -23 4 -23 10 0 5 -18 13 -40 16 -22 4 -40 10 -40 14 0 4 -11 11 -25 14 -14
4 -25 11 -25 16 0 6 -13 10 -30 10 -16 0 -30 4 -30 10 0 5 -11 12 -25 16 -14
3 -25 10 -25 14 0 5 -13 11 -30 15 -16 4 -30 11 -30 16 0 5 -11 9 -25 9 -14 0
-25 4 -25 10 0 5 -11 12 -25 16 -14 3 -25 10 -25 14 0 4 -18 10 -40 14 -22 3
-40 11 -40 16 0 6 -7 10 -15 10 -8 0 -15 4 -15 10 0 5 -11 12 -25 16 -14 3
-25 10 -25 14 0 4 -11 11 -25 14 -14 4 -25 11 -25 16 0 6 -6 10 -14 10 -8 0
-16 7 -20 15 -3 8 -15 15 -26 15 -11 0 -20 5 -20 10 0 6 -7 10 -15 10 -8 0
-15 -4 -15 -10 0 -5 7 -10 15 -10 8 0 15 -7 15 -15 0 -8 7 -15 15 -15 9 0 26
-11 39 -25 13 -14 28 -25 35 -25 6 0 11 -7 11 -15 0 -8 7 -15 15 -15 8 0 15
-4 15 -9 0 -5 10 -13 23 -17 12 -4 32 -17 44 -30 12 -13 31 -24 41 -24 11 0
22 -7 26 -15 3 -8 17 -15 31 -15 14 0 25 -4 25 -10 0 -5 11 -10 24 -10 14 0
31 -7 40 -15 8 -8 24 -15 36 -15 12 0 28 -7 36 -15 9 -8 24 -15 35 -15 10 0
19 -4 19 -10 0 -5 11 -10 24 -10 14 0 31 -7 40 -15 8 -8 26 -15 40 -15 16 0
26 -6 26 -15 0 -9 9 -15 25 -15 14 0 25 -4 25 -9 0 -5 14 -12 30 -16 17 -4 30
-11 30 -16 0 -5 11 -9 24 -9 13 0 26 -5 28 -12 3 -8 33 -14 81 -16 42 -2 77
-8 77 -12 0 -4 36 -11 80 -15 44 -4 80 -11 80 -16 0 -5 36 -9 79 -9 54 0 81
-4 83 -12 3 -8 33 -14 81 -16 77 -4 82 -7 71 -36 -5 -14 -29 -16 -160 -16 -96
0 -154 4 -154 10 0 6 -18 10 -40 10 -22 0 -40 -4 -40 -10 0 -5 15 -10 34 -10
21 0 36 -6 40 -15 4 -11 20 -15 56 -15 46 0 80 -15 80 -35 0 -11 -58 -65 -69
-65 -6 0 -11 -7 -11 -15 0 -9 -9 -15 -25 -15 -16 0 -25 -6 -25 -15 0 -10 -10
-15 -30 -15 -16 0 -30 -4 -30 -10 0 -5 -16 -10 -35 -10 -19 0 -35 5 -35 10 0
6 -7 10 -15 10 -8 0 -15 7 -15 15 0 8 -7 15 -15 15 -8 0 -15 7 -15 15 0 8 -5
15 -11 15 -14 0 -39 25 -39 39 0 6 -5 11 -10 11 -6 0 -27 16 -47 35 -20 19
-40 35 -44 35 -4 0 -21 14 -37 30 -17 17 -35 30 -41 30 -6 0 -11 7 -11 15 0 8
-9 15 -20 15 -12 0 -31 11 -44 25 -13 14 -28 25 -35 25 -6 0 -11 7 -11 15 0 9
-9 15 -25 15 -16 0 -25 6 -25 15 0 8 -6 15 -14 15 -8 0 -16 6 -19 13 -3 9 -51
12 -197 12 -146 0 -194 3 -197 13 -3 6 -16 12 -29 12 -13 0 -24 4 -24 10 0 5
-18 13 -40 16 -22 4 -40 10 -40 14 0 5 -13 11 -30 15 -16 4 -30 11 -30 16 0 5
-14 9 -31 9 -18 0 -37 7 -44 17 -7 9 -17 13 -22 10 -12 -8 -5 -57 8 -57 5 0 9
-4 9 -10 0 -5 -11 -10 -25 -10 -14 0 -25 5 -25 10 0 6 -13 10 -30 10 -16 0
-30 -4 -30 -10 0 -5 7 -10 15 -10 8 0 15 -7 15 -15 0 -9 9 -15 25 -15 14 0 25
-5 25 -10 0 -6 8 -14 18 -17 9 -4 22 -12 29 -17 35 -31 43 -36 58 -36 8 0 15
-4 15 -9 0 -5 10 -13 22 -17 26 -8 48 -28 48 -43 0 -6 7 -11 15 -11 8 0 15 -7
15 -15 0 -8 5 -15 10 -15 6 0 76 -65 156 -144 80 -80 154 -148 164 -151 11 -4
20 -11 20 -16 0 -5 7 -9 15 -9 8 0 15 -4 15 -10 0 -5 11 -12 25 -16 14 -3 25
-10 25 -15 0 -5 11 -9 25 -9 14 0 28 -7 31 -15 4 -8 17 -15 30 -15 13 0 24 -4
24 -10 0 -5 11 -12 25 -16 14 -3 25 -10 25 -15 0 -5 11 -9 25 -9 14 0 28 -7
31 -15 4 -8 17 -15 29 -15 13 0 25 -6 27 -12 3 -9 35 -14 96 -16 51 -2 92 -7
92 -11 0 -5 51 -11 112 -14 65 -3 114 -10 116 -16 5 -16 189 -15 194 1 2 6 31
13 66 16 34 2 62 8 62 12 0 4 30 10 67 13 38 4 69 11 71 17 2 5 33 10 68 10
35 0 64 4 64 9 0 5 12 12 27 16 15 3 37 17 50 31 12 13 27 24 33 24 5 0 27 18
49 40 21 22 44 40 50 40 6 0 11 5 11 11 0 14 25 39 39 39 6 0 11 7 11 15 0 8
7 15 15 15 8 0 15 5 15 11 0 6 22 32 49 58 26 25 51 56 55 68 4 13 12 23 17
23 5 0 9 7 9 15 0 8 7 15 15 15 9 0 15 9 15 25 0 16 6 25 15 25 8 0 15 7 15
15 0 8 5 15 10 15 6 0 10 7 10 15 0 8 7 15 15 15 8 0 15 5 15 10 0 6 -18 10
-40 10 -22 0 -40 -4 -40 -9 0 -5 -13 -12 -30 -16 -16 -4 -30 -11 -30 -16 0 -5
-15 -9 -34 -9 -21 0 -36 -6 -40 -15 -3 -8 -16 -15 -30 -15 -13 0 -26 -4 -28
-10 -3 -11 -62 -15 -150 -12 -55 2 -58 3 -58 27 0 16 6 25 15 25 8 0 15 4 15
10 0 5 23 12 50 16 28 4 50 10 50 15 0 5 24 9 54 9 35 0 60 5 70 15 9 9 33 15
61 15 28 0 52 6 61 15 9 8 24 15 35 15 10 0 19 5 19 10 0 6 11 10 25 10 21 0
25 5 25 30 0 17 -5 30 -11 30 -7 0 -22 11 -35 25 -18 19 -33 25 -68 25 -26 0
-46 5 -48 12 -3 8 -33 14 -81 16 -42 2 -77 8 -77 12 0 4 -30 10 -67 13 -38 4
-69 11 -71 17 -2 5 -15 10 -28 10 -15 0 -24 6 -24 15 0 8 -5 15 -11 15 -7 0
-22 11 -35 25 -13 14 -28 25 -34 25 -5 0 -27 18 -49 40 -21 22 -44 40 -50 40
-6 0 -11 5 -11 11 0 6 -22 32 -49 58 -26 25 -51 56 -55 69 -4 12 -11 22 -16
22 -4 0 -11 11 -14 25 -4 14 -11 25 -16 25 -6 0 -10 7 -10 15 0 8 -4 15 -10
15 -5 0 -10 -13 -10 -30 0 -16 5 -30 10 -30 6 0 10 -11 10 -25 0 -16 6 -25 15
-25 9 0 15 -9 15 -25 0 -16 6 -25 15 -25 8 0 15 -5 15 -11 0 -7 11 -22 25 -35
14 -13 25 -28 25 -34 0 -6 11 -21 25 -34 14 -13 25 -28 25 -35 0 -6 7 -11 15
-11 8 0 15 -4 15 -10 0 -5 11 -12 25 -16 14 -3 25 -10 25 -15 0 -5 -11 -9 -25
-9 -14 0 -25 4 -25 9 0 5 -22 11 -50 15 -27 4 -50 11 -50 16 0 6 -13 10 -30
10 -16 0 -30 4 -30 10 0 5 -18 13 -40 16 -22 4 -40 10 -40 14 0 4 -11 11 -25
14 -14 4 -25 11 -25 16 0 6 -11 10 -25 10 -14 0 -28 7 -31 15 -4 8 -17 15 -30
15 -13 0 -24 4 -24 9 0 5 -11 12 -25 15 -14 4 -25 11 -25 16 0 6 -9 10 -19 10
-11 0 -26 7 -35 15 -8 8 -18 15 -22 15 -4 0 -17 11 -30 25 -13 14 -28 25 -34
25 -6 0 -21 11 -34 25 -13 14 -28 25 -35 25 -6 0 -11 7 -11 15 0 9 -9 15 -25
15 -16 0 -25 6 -25 15 0 8 -7 15 -15 15 -8 0 -15 -7 -15 -15z"/>
<path d="M3990 1060 c0 -5 5 -10 10 -10 6 0 10 5 10 10 0 6 -4 10 -10 10 -5 0
-10 -4 -10 -10z"/>
</g>
</svg>
